<?xml version="1.0" encoding="UTF-8" standalone="no"?>
<!-- Created with Inkscape (http://www.inkscape.org/) -->

<svg
   xmlns:dc="http://purl.org/dc/elements/1.1/"
   xmlns:cc="http://creativecommons.org/ns#"
   xmlns:rdf="http://www.w3.org/1999/02/22-rdf-syntax-ns#"
   xmlns:svg="http://www.w3.org/2000/svg"
   xmlns="http://www.w3.org/2000/svg"
   xmlns:sodipodi="http://sodipodi.sourceforge.net/DTD/sodipodi-0.dtd"
   xmlns:inkscape="http://www.inkscape.org/namespaces/inkscape"
   width="85.043999mm"
   height="85.043999mm"
   viewBox="0 0 85.044 85.043999"
   version="1.1"
   id="svg8"
   inkscape:version="0.92.4 (5da689c313, 2019-01-14)"
   sodipodi:docname="camundongo_icon.svg">
  <defs
     id="defs2">
    <filter
       inkscape:collect="always"
       style="color-interpolation-filters:sRGB"
       id="filter925"
       x="-0.04859627"
       width="1.0971925"
       y="-0.047418185"
       height="1.0948364">
      <feGaussianBlur
         inkscape:collect="always"
         stdDeviation="0.89242104"
         id="feGaussianBlur927" />
    </filter>
    <filter
       inkscape:collect="always"
       style="color-interpolation-filters:sRGB"
       id="filter965"
       x="-0.072894409"
       width="1.1457888"
       y="-0.071127281"
       height="1.1422546">
      <feGaussianBlur
         inkscape:collect="always"
         stdDeviation="0.60803959"
         id="feGaussianBlur967" />
    </filter>
  </defs>
  <sodipodi:namedview
     id="base"
     pagecolor="#ffffff"
     bordercolor="#666666"
     borderopacity="1.0"
     inkscape:pageopacity="0.0"
     inkscape:pageshadow="2"
     inkscape:zoom="0.7"
     inkscape:cx="78.737627"
     inkscape:cy="203.42444"
     inkscape:document-units="mm"
     inkscape:current-layer="layer1"
     showgrid="false"
     inkscape:window-width="1850"
     inkscape:window-height="1009"
     inkscape:window-x="70"
     inkscape:window-y="34"
     inkscape:window-maximized="1" />
  <metadata
     id="metadata5">
    <rdf:RDF>
      <cc:Work
         rdf:about="">
        <dc:format>image/svg+xml</dc:format>
        <dc:type
           rdf:resource="http://purl.org/dc/dcmitype/StillImage" />
        <dc:title></dc:title>
      </cc:Work>
    </rdf:RDF>
  </metadata>
  <g
     inkscape:label="Camada 1"
     inkscape:groupmode="layer"
     id="layer1"
     transform="translate(0,-211.95599)">
    <circle
       style="opacity:1;fill:#ffeeaa;fill-opacity:0.99071206;stroke:none;stroke-width:3.06500006;stroke-miterlimit:4;stroke-dasharray:none"
       id="path844-7"
       cx="42.521999"
       cy="254.478"
       r="42.521999" />
    <path
       style="fill:#000000;stroke-width:0.35916984"
       d="m 40.353211,213.85922 c -1.63988,0.0129 -3.030823,1.48151 -3.030823,3.39669 0,0.49675 -0.566055,2.06504 -1.257806,3.48506 -1.77184,3.63723 -1.817957,6.88663 -0.131775,9.2816 0.36917,0.52435 0.671277,1.0309 0.671277,1.125 0,0.38155 -3.917141,2.06536 -6.034773,2.59415 -2.895232,0.72296 -4.329139,1.38662 -7.434171,3.44062 -1.382797,0.91473 -3.403152,2.11208 -4.489649,2.66082 -2.18054,1.10131 -4.713555,2.74498 -7.18354,4.66173 -0.975928,0.75733 -2.7639243,1.60915 -4.5134197,2.14974 -4.5525951,1.40676 -6.50317804,3.09703 -6.10453681,5.29063 0.096599,0.53151 0.67895231,2.06706 1.29397771,3.4122 0.6636917,1.4516 1.1676084,3.20903 1.2402344,4.32377 0.1924788,2.95458 1.5261137,5.4469 3.705717,6.92619 1.7402916,1.18107 1.8465271,1.34096 1.854667,2.80861 0.00979,1.64435 0.7969938,2.00999 1.0226767,0.47491 l 0.1157547,-0.786 1.033529,0.73587 c 0.568518,0.40484 1.915073,1.13968 2.992582,1.63298 1.07751,0.4933 2.076995,1.17475 2.221053,1.51464 0.144043,0.33986 0.361924,3.3123 0.483691,6.60528 0.21614,5.84485 0.453528,7.10958 1.133265,6.03477 0.469787,-0.74284 0.426374,-2.33813 -0.213941,-7.84138 -0.307106,-2.63935 -0.508961,-4.84446 -0.448551,-4.89996 0.184334,-0.16947 3.513153,0.41153 3.757393,0.65577 0.55269,0.55269 1.164977,5.83999 1.182357,10.21023 0.01538,3.87537 0.114077,4.75888 0.53175,4.75888 0.793766,0 1.027889,-3.1867 0.594279,-8.08116 -0.209991,-2.37053 -0.382806,-4.57148 -0.385506,-4.89065 -0.0034,-0.52504 0.186205,-0.5176 1.986959,0.0765 1.09467,0.36113 2.543261,0.76049 3.219441,0.88728 0.676179,0.12686 1.373314,0.41555 1.549259,0.64182 0.515602,0.66304 2.459789,6.3443 2.906284,8.49303 0.507254,2.44112 0.928058,3.19831 1.473811,2.65255 0.527995,-0.52798 -0.363672,-4.35332 -1.843299,-7.90753 -0.61455,-1.47622 -1.012711,-2.78861 -0.8847,-2.91662 0.127958,-0.12796 1.116256,-0.039 2.196248,0.19792 1.079995,0.23696 2.892827,0.60687 4.028696,0.82217 5.33064,1.01031 6.813421,1.46942 8.530228,2.64067 0.987713,0.67386 2.212808,1.41233 2.722314,1.64073 0.908161,0.40713 0.927195,0.49166 0.978236,4.31446 0.07807,5.84249 -0.981216,7.79818 -3.980635,7.34839 -1.818839,-0.27275 -3.354295,0.34324 -4.126881,1.61179 a 42.521999,42.521999 0 0 0 0.240294,0.0119 42.521999,42.521999 0 0 0 3.75326,-0.19688 c 1.076291,-0.42216 2.813333,-1.52622 4.092258,-2.61121 l 2.34456,-1.98903 -0.236162,-3.36207 -0.236677,-3.36155 0.99632,0.50849 c 0.547748,0.2797 1.809969,0.68045 2.804996,0.89091 3.193679,0.6755 3.757911,1.00306 3.757911,2.18229 0,0.58789 -0.377777,1.51061 -0.849561,2.07429 -0.467344,0.55839 -1.292206,1.89134 -1.832962,2.9621 -0.05737,0.1136 -0.109987,0.22565 -0.161232,0.33693 a 42.521999,42.521999 0 0 0 2.020549,-0.79169 c 0.194128,-0.58155 0.654161,-1.22461 1.167371,-1.60403 0.568301,-0.42018 1.140373,-1.26424 1.276408,-1.88361 0.208537,-0.94947 0.365631,-1.0839 1.019059,-0.87178 0.348506,0.11313 1.963044,0.28431 3.835942,0.42013 a 42.521999,42.521999 0 0 0 3.176032,-2.35231 c -0.242845,-0.0169 -0.453372,-0.0327 -0.72657,-0.0512 -3.607361,-0.24369 -4.598551,-0.45702 -7.18354,-1.54513 -1.649286,-0.69424 -3.800655,-1.3726 -4.781103,-1.5074 -1.917295,-0.26365 -4.06799,-1.25937 -8.683191,-4.02042 l -2.923336,-1.74873 1.58905,-0.65785 c 1.81786,-0.75186 5.873544,-4.04034 5.873544,-4.76249 0,-0.68523 -0.140875,-0.63989 -2.810682,0.90537 -2.196505,1.27131 -2.773527,1.42936 -6.886919,1.88567 -5.331619,0.59149 -8.974021,0.59947 -10.986926,0.0238 -1.39337,-0.39852 -1.539251,-0.57807 -2.839619,-3.49643 -1.424118,-3.19607 -3.803697,-6.7108 -4.047815,-5.97844 -0.07715,0.23144 0.17523,0.86775 0.561206,1.41386 0.964418,1.36461 3.72694,6.91948 3.441135,6.91948 -1.00194,0 -2.932015,-0.92947 -3.208591,-1.54513 -0.194203,-0.43233 -0.876244,-0.89103 -1.596285,-1.07383 -1.700639,-0.43172 -1.893967,-0.63735 -2.673222,-2.83756 -0.726408,-2.05102 -2.771001,-5.32805 -2.963643,-4.75009 -0.06447,0.19338 0.436578,1.72063 1.113627,3.39359 1.390995,3.43713 1.251992,3.71404 -1.298112,2.58589 -1.433987,-0.63438 -1.597814,-0.85521 -2.350761,-3.16622 -0.900262,-2.76318 -1.368184,-3.65838 -1.725476,-3.30109 -0.131731,0.13173 0.03438,1.01571 0.369487,1.96474 1.529378,4.33131 1.494591,4.39741 -1.205095,2.26343 -1.634313,-1.2918 -1.797465,-1.54692 -1.604036,-2.51406 0.241226,-1.20611 -0.05115,-1.3532 -0.994255,-0.49971 -0.5876305,0.5318 -0.7161577,0.52103 -1.6443435,-0.14056 -1.4546617,-1.03685 -2.074129,-1.84966 -2.762622,-3.62459 -0.5928714,-1.52859 -0.5893794,-1.58597 0.1240235,-2.08566 0.4034602,-0.28259 0.7338052,-0.81846 0.7338052,-1.19114 0,-0.76396 -1.2759386,-1.79576 -2.2205363,-1.79576 -0.7786441,0 -1.5666368,-2.40542 -1.2288654,-3.75119 0.1359122,-0.54153 0.6526929,-1.12835 1.2143962,-1.37924 0.5377976,-0.24021 1.8400045,-0.95193 2.8938801,-1.5813 1.0538757,-0.62938 2.1451919,-1.05615 2.4251745,-0.94878 0.9556207,0.3667 2.2408327,-0.23872 4.5842167,-2.15956 1.288261,-1.05596 3.724168,-2.69526 5.413106,-3.64319 1.688938,-0.94791 3.711079,-2.27197 4.493782,-2.94194 1.758021,-1.50479 3.836591,-2.44329 7.062618,-3.18895 1.363832,-0.31524 3.449077,-1.03429 4.634341,-1.59783 3.030673,-1.44098 7.024542,-2.72316 10.595737,-3.40238 1.67911,-0.31935 3.586988,-0.81735 4.239535,-1.10639 1.315831,-0.58283 1.233292,-1.36255 -0.108521,-1.02578 -0.761553,0.19113 -0.897567,0.0466 -1.266074,-1.34565 -1.203431,-4.54688 -6.491811,-12.9574 -8.457879,-13.45086 -0.241105,-0.0605 -0.480418,-0.0882 -0.714685,-0.0863 z m -0.05891,2.4076 c 0.289819,0.012 0.634272,0.24315 1.044382,0.6873 2.270987,2.4595 7.398369,11.54024 6.74429,11.94449 -0.207942,0.12851 -1.380525,0.26632 -2.606043,0.30592 -1.225529,0.0396 -2.47096,0.14468 -2.767272,0.23358 -0.453064,0.13596 -0.543578,-0.42345 -0.568957,-3.51555 -0.02945,-3.59748 -0.474583,-5.65288 -1.224733,-5.65288 -0.214294,0 -0.284003,0.362 -0.162779,0.84491 0.217725,0.86751 -0.378227,7.24958 -0.773081,8.27856 -0.429442,1.11909 -1.621462,0.44963 -2.611726,-1.46709 -0.734771,-1.42216 -0.478332,-4.08904 0.615982,-6.40219 0.561554,-1.18699 1.131655,-2.74674 1.26659,-3.46594 0.229417,-1.2229 0.560316,-1.81114 1.043347,-1.79111 z m 29.167211,4.8488 c -1.078756,0.33515 -2.160643,0.61492 -3.116088,0.7829 -4.280553,0.75259 -8.207224,2.7609 -11.33471,5.7981 -0.921573,0.89498 -1.161748,1.34197 -0.875914,1.6278 0.285832,0.28587 0.580605,0.25557 1.074352,-0.11007 0.37429,-0.27717 1.678731,-1.26146 2.899047,-2.18746 3.059912,-2.32195 5.746583,-3.29565 8.361765,-3.03031 1.823521,0.18501 3.489573,-0.0898 5.151106,-0.86919 a 42.521999,42.521999 0 0 0 -2.159558,-2.01177 z m -1.547709,6.79494 c -2.175857,0.0269 -3.756837,0.4653 -5.558833,1.42575 -4.10723,2.18913 -6.248635,5.83854 -6.578928,11.2112 -0.186994,3.04172 0.272741,4.68447 1.311032,4.68447 0.396875,0 0.586843,-0.66916 0.763778,-2.69338 0.546254,-6.24934 3.418073,-10.43115 7.901842,-11.50679 2.412931,-0.57884 7.182607,-0.19204 9.112623,0.73898 1.584613,0.76441 3.495598,3.48866 4.17649,5.95467 0.40426,1.46408 0.131731,6.42729 -0.434599,7.91683 -0.35546,0.93493 -3.133775,4.07934 -3.604432,4.07934 -0.164976,0 -1.192197,0.33412 -2.282547,0.74207 -1.704115,0.63759 -2.077135,0.95276 -2.658237,2.24483 -1.208074,2.68607 -3.136368,3.8064 -6.588744,3.8287 -1.378821,0.009 -1.949664,0.43597 -1.517737,1.13482 0.172944,0.2798 1.108149,0.33578 2.984314,0.1788 3.728977,-0.312 5.638708,-1.31821 7.042462,-3.71089 0.921047,-1.56986 1.207535,-1.81269 1.975075,-1.67276 1.383163,0.25215 3.943226,-1.27434 5.619295,-3.35019 1.860185,-2.30388 2.396474,-4.56731 2.22467,-9.39632 -0.01439,-0.40441 -0.03649,-0.78212 -0.06408,-1.14515 a 42.521999,42.521999 0 0 0 -4.302064,-8.43721 c -1.433875,-1.14495 -3.17564,-1.69059 -6.108671,-2.02003 -1.311587,-0.14733 -2.423687,-0.21999 -3.412712,-0.20774 z m -1.827279,11.02878 c -1.810456,-0.0203 -4.032737,1.57721 -5.215702,3.91501 -1.327573,2.6236 -1.683316,4.25792 -1.06195,4.87928 0.790929,0.79094 1.526005,0.2818 1.969389,-1.36477 0.936874,-3.47928 2.651265,-5.74261 5.048271,-6.66523 0.745413,-0.28691 0.770784,-0.35608 0.214455,-0.58084 -0.297801,-0.12031 -0.619193,-0.17969 -0.954463,-0.18345 z m -26.02425,5.59346 c -1.035597,-0.0406 -2.153195,0.43215 -3.709852,1.49758 -0.750501,0.51369 -1.848728,1.03555 -2.440159,1.15962 -1.357046,0.2847 -1.61925,1.28603 -0.415997,1.58802 0.483444,0.12133 1.199674,0.76467 1.592151,1.42988 0.77859,1.3196 2.712506,2.93072 3.849894,3.20704 1.437124,0.34912 2.615597,0.24643 3.040124,-0.2651 0.61079,-0.73595 0.232081,-1.1519 -1.313098,-1.44177 -1.675525,-0.31433 -3.676362,-1.32374 -4.558893,-2.2996 -0.674703,-0.74605 -0.668956,-0.7524 1.577681,-1.81488 l 2.254642,-1.0666 1.361157,0.69453 c 1.645743,0.8396 1.765109,1.01891 2.471684,3.72122 0.834081,3.19171 1.491372,3.01923 0.828374,-0.21755 -0.719471,-3.51246 -1.562772,-5.07616 -3.142962,-5.82601 -0.47035,-0.2232 -0.92402,-0.34793 -1.394746,-0.36638 z"
       id="path74"
       inkscape:connector-curvature="0" />
    <g
       id="g972"
       transform="matrix(0.06404284,0,0,0.06404284,32.57052,223.89706)">
      <path
         d="m 171.85431,391.88068 a 43.030396,44.099472 0 0 1 -41.92651,44.08495 43.030396,44.099472 0 0 1 -44.077645,-41.82308 43.030396,44.099472 0 0 1 39.665015,-46.23078 43.030396,44.099472 0 0 1 46.11274,39.45112"
         sodipodi:open="true"
         sodipodi:end="6.1805599"
         sodipodi:start="0"
         sodipodi:ry="44.099472"
         sodipodi:rx="43.030396"
         sodipodi:cy="391.88068"
         sodipodi:cx="128.82391"
         sodipodi:type="arc"
         id="path76"
         style="opacity:1;fill:#ff5555;fill-opacity:0.99071206;stroke:none;stroke-width:3.06500006;stroke-miterlimit:4;stroke-dasharray:none" />
      <path
         d="M 142.96329,380.25446 A 22.036777,22.584274 0 0 1 121.49183,402.8313 22.036777,22.584274 0 0 1 98.918741,381.41281 22.036777,22.584274 0 0 1 119.23204,357.73705 22.036777,22.584274 0 0 1 142.84735,377.9408"
         sodipodi:open="true"
         sodipodi:end="6.1805599"
         sodipodi:start="0"
         sodipodi:ry="22.584274"
         sodipodi:rx="22.036777"
         sodipodi:cy="380.25446"
         sodipodi:cx="120.92651"
         sodipodi:type="arc"
         id="path76-3"
         style="opacity:1;fill:#ffaaaa;fill-opacity:0.99071206;stroke:none;stroke-width:1.56965148;stroke-miterlimit:4;stroke-dasharray:none;filter:url(#filter925)" />
      <path
         d="m 122.26285,371.80392 a 10.00965,10.258336 0 0 1 -9.75287,10.25496 10.00965,10.258336 0 0 1 -10.25326,-9.7288 10.00965,10.258336 0 0 1 9.2268,-10.75412 10.00965,10.258336 0 0 1 10.72666,9.17705"
         sodipodi:open="true"
         sodipodi:end="6.1805599"
         sodipodi:start="0"
         sodipodi:ry="10.258336"
         sodipodi:rx="10.00965"
         sodipodi:cy="371.80392"
         sodipodi:cx="112.2532"
         sodipodi:type="arc"
         id="path76-3-6"
         style="opacity:1;fill:#ffd5d5;fill-opacity:0.99071206;stroke:none;stroke-width:0.71297455;stroke-miterlimit:4;stroke-dasharray:none;filter:url(#filter965)" />
    </g>
    <circle
       style="opacity:1;vector-effect:none;fill:none;fill-opacity:0.99071206;stroke:none;stroke-width:3.06500006;stroke-linecap:butt;stroke-linejoin:miter;stroke-miterlimit:4;stroke-dasharray:none;stroke-dashoffset:0;stroke-opacity:1"
       id="path844"
       cx="42.521999"
       cy="254.478"
       r="42.521999" />
  </g>
</svg>
