<?xml version="1.0" encoding="UTF-8" standalone="no"?>
<!-- Created with Inkscape (http://www.inkscape.org/) -->

<svg
   xmlns:dc="http://purl.org/dc/elements/1.1/"
   xmlns:cc="http://creativecommons.org/ns#"
   xmlns:rdf="http://www.w3.org/1999/02/22-rdf-syntax-ns#"
   xmlns:svg="http://www.w3.org/2000/svg"
   xmlns="http://www.w3.org/2000/svg"
   xmlns:sodipodi="http://sodipodi.sourceforge.net/DTD/sodipodi-0.dtd"
   xmlns:inkscape="http://www.inkscape.org/namespaces/inkscape"
   width="8.467mm"
   height="7.368mm"
   viewBox="0 0 8.467 7.368"
   version="1.1"
   id="svg1219"
   inkscape:version="0.92.4 (5da689c313, 2019-01-14)"
   sodipodi:docname="inoculacao.svg">
  <defs
     id="defs1213" />
  <sodipodi:namedview
     id="base"
     pagecolor="#ffffff"
     bordercolor="#666666"
     borderopacity="1.0"
     inkscape:pageopacity="0.0"
     inkscape:pageshadow="2"
     inkscape:zoom="9.9282939"
     inkscape:cx="31.568216"
     inkscape:cy="-0.2077597"
     inkscape:document-units="mm"
     inkscape:current-layer="layer1"
     showgrid="false"
     inkscape:window-width="1850"
     inkscape:window-height="1009"
     inkscape:window-x="70"
     inkscape:window-y="34"
     inkscape:window-maximized="1" />
  <metadata
     id="metadata1216">
    <rdf:RDF>
      <cc:Work
         rdf:about="">
        <dc:format>image/svg+xml</dc:format>
        <dc:type
           rdf:resource="http://purl.org/dc/dcmitype/StillImage" />
        <dc:title></dc:title>
      </cc:Work>
    </rdf:RDF>
  </metadata>
  <g
     inkscape:label="Camada 1"
     inkscape:groupmode="layer"
     id="layer1"
     transform="translate(0,-289.632)">
    <g
       id="g1847">
      <g
         transform="matrix(0.07770906,0,0,0.07770906,-15.586868,287.20363)"
         id="g1164">
        <path
           style="opacity:1;fill:#1a1a1a;stroke-width:0.26458332"
           d="m 245.9081,77.329263 c -0.8844,-0.20495 -1.79799,-0.98328 -5.55901,-4.73592 -2.47537,-2.46986 -4.63368,-4.49066 -4.79625,-4.49066 -0.16256,0 -0.44379,0.17859 -0.62495,0.39688 -0.50253,0.60551 -1.2121,0.478 -2.20853,-0.39688 -0.81063,-0.71174 -1.08582,-0.79375 -2.66354,-0.79375 -0.96773,0 -2.14263,-0.16658 -2.6109,-0.37019 -0.46827,-0.2036 -3.70797,-3.23969 -7.19933,-6.74687 -3.49137,-3.50718 -6.45462,-6.37669 -6.585,-6.37669 -0.13038,0 -0.75373,0.47625 -1.38522,1.05833 -1.27034,1.17097 -1.56354,1.24916 -2.42402,0.64646 -1.35987,-0.95249 -1.03745,-1.40273 6.10462,-8.52471 4.38743,-4.37509 6.87947,-6.67383 7.23503,-6.67383 0.29831,0 0.73943,0.21774 0.98026,0.48386 0.70208,0.77578 0.53442,1.70002 -0.48816,2.69114 -0.50932,0.49366 -0.92604,0.99189 -0.92604,1.10718 0,0.1153 2.92486,3.14086 6.49968,6.72348 3.57482,3.58262 6.61091,6.80643 6.74687,7.16403 0.13596,0.3576 0.2472,1.45442 0.2472,2.43738 0,1.61183 0.0779,1.87445 0.79375,2.67626 0.89805,1.00589 0.99858,1.71637 0.34504,2.43853 -0.42997,0.47511 -0.21737,0.72735 5.09087,6.0401 5.63139,5.63618 5.72409,5.77806 3.42763,5.24587 z"
           id="path1087"
           inkscape:connector-curvature="0" />
        <path
           style="opacity:1;fill:#999999;stroke-width:0.26458332"
           d="m 226.96169,53.832923 c 0.2591,-0.16013 -6.15837,-6.89691 -6.57,-6.89691 -0.0879,0 -1.16926,1.01716 -2.40297,2.26034 l -2.24312,2.26034 1.38352,1.32501 1.38352,1.32502 4.08012,-0.0476 c 2.24407,-0.0262 4.21009,-0.12798 4.36893,-0.22615 z"
           id="path1085"
           inkscape:connector-curvature="0" />
        <path
           style="opacity:1;fill:#1a1a1a;stroke-width:0.26458332"
           d="m 209.13102,44.554763 c -1.15734,-1.16416 -2.21461,-2.11666 -2.34948,-2.11666 -0.13487,0 -0.87468,0.59531 -1.64401,1.32291 -0.76934,0.72761 -1.5663,1.32292 -1.77102,1.32292 -0.61763,0 -1.51153,-0.94757 -1.51153,-1.60228 0,-0.75407 9.30985,-10.23801 10.29355,-10.48605 0.80489,-0.20294 1.41034,0.17256 1.7315,1.07389 0.22662,0.63598 0.11696,0.84052 -1.12448,2.09758 -1.41835,1.4362 -1.61395,1.85369 -1.04484,2.23021 0.1819,0.12035 1.16117,1.07897 2.17616,2.13026 l 1.84543,1.91145 -2.10381,2.11622 c -1.15709,1.16392 -2.16892,2.11622 -2.24851,2.11622 -0.0796,0 -1.09162,-0.9525 -2.24896,-2.11667 z"
           id="path1010-7"
           inkscape:connector-curvature="0" />
      </g>
      <path
         inkscape:connector-curvature="0"
         d="m 1.4204348,295.02927 c 0.074926,-0.0387 0.094984,-0.0777 0.094984,-0.18421 0,-0.10191 -0.056027,-0.17352 -0.1494745,-0.19105 -0.2140371,-0.0402 -0.3331458,0.18698 -0.178925,0.3412 0.075996,0.076 0.1355238,0.0847 0.2334156,0.0341 z m 2.3527388,1.59402 c 0.096324,-0.0466 0.1159151,-0.0484 0.2558256,-0.0226 0.083332,0.0154 0.1556941,0.0237 0.1608055,0.0186 0.00511,-0.005 -0.031514,-0.0376 -0.081389,-0.0721 -0.2054853,-0.14617 -0.4006719,-0.60172 -0.4116291,-0.82097 l 0.1700866,-0.50493 c -0.4204261,0.27777 -0.1717831,0.98691 -0.1717831,0.98691 -0.6716261,0.23565 -0.9950773,0.0105 -1.2047649,0.0422 -0.076588,0.0898 -0.020819,0.19673 -0.051237,0.2654 0.086449,0.0553 -0.021172,0.0613 -0.085095,0.12995 -0.047359,0.0508 -0.055146,0.0514 -0.6590439,0.0452 l -0.6111185,-0.006 -0.00743,-0.0775 c 0.011704,-0.43298 0.4955464,-0.25665 0.5549262,-0.2466 0.3163631,-0.14123 0.3227882,-0.20589 0.2220203,-0.39381 -0.2449019,-0.43676 -1.27941887,-0.20079 -1.53936651,-0.44155 -0.0384926,-0.0379 -0.10672933,-0.0921 -0.15163825,-0.12044 -0.09737863,-0.0615 -0.16064243,-0.17959 -0.16218192359,-0.30288 -0.002054416,-0.16461 0.006136814,-0.1724 0.64865451359,-0.61694 0.18078193,-0.12508 0.71217137,-0.39782 0.87244087,-0.4478 l 0.087484,-0.0273 v -0.19158 c 0,-0.30927 0.082099,-0.55133 0.1869919,-0.55133 0.048605,0 0.2059975,0.10256 0.2629208,0.17131 0.075588,0.0913 0.1519865,0.25997 0.1689289,0.37295 l 0.016679,0.11123 0.1663163,-0.0148 c 0.3172404,-0.0283 0.5780257,-0.1148 1.050679,-0.34872 0.5232485,-0.25896 0.7001746,-0.30695 1.0511225,-0.28508 0.3967482,0.0247 0.7246875,0.16759 1.0820252,0.47137 0.092801,0.0789 0.2740517,0.31983 0.3420971,0.45476 0.1043954,0.20701 0.15381,0.41007 0.164671,0.67669 l 0.00998,0.24496 0.297487,0.0164 c 0.6740994,0.0371 0.9657821,0.16369 1.0021665,0.43495 0.021993,0.16397 -0.028191,0.25194 -0.3058873,0.53619 l -0.258819,0.26492 0.069435,0.0554 c 0.1875059,0.14964 0.833793,0.29019 1.3343106,0.29019 0.070054,0 0.1476775,0.0109 0.1724955,0.0242 0.05934,0.0318 0.059052,0.14265 -5.291e-4,0.19656 -0.041149,0.0372 -0.080711,0.0398 -0.4024247,0.026 -1.1246055,-0.0484 -1.4990425,-0.15734 -1.6189263,-0.47125 -0.071871,-0.18819 0.00169,-0.34133 0.3064172,-0.63782 0.1725739,-0.16792 0.1769138,-0.17477 0.1202382,-0.18993 -0.1169044,-0.0313 -0.5440404,-0.0713 -0.6787786,-0.0636 l -0.137849,0.008 -0.041258,0.12167 c -0.092079,0.27156 -0.2100887,0.454 -0.4460878,0.68965 -0.2009814,0.20069 -0.2284383,0.2378 -0.2284383,0.30874 0,0.0561 -0.020691,0.10382 -0.068027,0.15683 l -0.068027,0.0762 -0.4788819,0.007 c -0.3918035,0.01 -0.9032456,0.0683 -1.0656401,-0.0196 -0.1166637,-0.0631 0.023788,-0.26174 0.1590324,-0.329 z"
         style="opacity:1;fill:#999999;stroke-width:0.02332898"
         id="path1089" />
    </g>
  </g>
</svg>
