<?xml version="1.0" encoding="UTF-8" standalone="no"?>
<!-- Created with Inkscape (http://www.inkscape.org/) -->

<svg
   xmlns:dc="http://purl.org/dc/elements/1.1/"
   xmlns:cc="http://creativecommons.org/ns#"
   xmlns:rdf="http://www.w3.org/1999/02/22-rdf-syntax-ns#"
   xmlns:svg="http://www.w3.org/2000/svg"
   xmlns="http://www.w3.org/2000/svg"
   xmlns:sodipodi="http://sodipodi.sourceforge.net/DTD/sodipodi-0.dtd"
   xmlns:inkscape="http://www.inkscape.org/namespaces/inkscape"
   width="8.467mm"
   height="7.368mm"
   viewBox="0 0 8.467 7.368"
   version="1.1"
   id="svg1219"
   inkscape:version="0.92.4 (5da689c313, 2019-01-14)"
   sodipodi:docname="observacao.svg">
  <defs
     id="defs1213" />
  <sodipodi:namedview
     id="base"
     pagecolor="#ffffff"
     bordercolor="#666666"
     borderopacity="1.0"
     inkscape:pageopacity="0.0"
     inkscape:pageshadow="2"
     inkscape:zoom="9.9282939"
     inkscape:cx="31.568216"
     inkscape:cy="-0.2077597"
     inkscape:document-units="mm"
     inkscape:current-layer="layer1"
     showgrid="false"
     inkscape:window-width="1850"
     inkscape:window-height="1009"
     inkscape:window-x="70"
     inkscape:window-y="34"
     inkscape:window-maximized="1" />
  <metadata
     id="metadata1216">
    <rdf:RDF>
      <cc:Work
         rdf:about="">
        <dc:format>image/svg+xml</dc:format>
        <dc:type
           rdf:resource="http://purl.org/dc/dcmitype/StillImage" />
        <dc:title></dc:title>
      </cc:Work>
    </rdf:RDF>
  </metadata>
  <g
     inkscape:label="Camada 1"
     inkscape:groupmode="layer"
     id="layer1"
     transform="translate(0,-289.632)">
    <g
       id="g1193"
       transform="matrix(0.08261948,0,0,0.08261948,-32.259847,286.77511)"
       inkscape:export-xdpi="96"
       inkscape:export-ydpi="96">
      <g
         transform="matrix(0.12269444,0,0,0.12269444,390.52134,-110.03801)"
         id="g1105">
        <path
           inkscape:connector-curvature="0"
           id="path1119"
           d="m 38.170205,1665.8983 c -6.447406,-1.3988 -13.381858,-5.618 -21.328851,-12.9772 -9.7146569,-8.9963 -16.32993901,-19.4195 -17.22410927,-27.1387 -0.27904335,-2.4089 0.0116708,-3.2817 1.67347667,-5.0239 0.8117867,-0.8511 1.6064284,-1.5474 1.7658742,-1.5474 0.1594486,0 39.2831234,-38.9838 86.9414994,-86.6307 75.774715,-75.7565 86.784445,-86.6664 87.709935,-86.9142 1.52142,-0.4074 2.42567,-0.3571 4.78632,0.2664 1.15107,0.304 2.22585,0.5719 2.38841,0.5953 0.16256,0.024 1.82002,-1.4301 3.68323,-3.23 2.04869,-1.9791 3.70967,-3.3659 4.20235,-3.5085 0.51276,-0.1486 1.34361,-0.127 2.24189,0.058 l 1.4272,0.294 9.74328,-9.7406 9.74329,-9.7406 -0.15893,-1.8801 c -0.10656,-1.2606 -0.0522,-2.0796 0.16506,-2.4855 0.1782,-0.3329 1.8905,-2.2091 3.80511,-4.1692 1.91462,-1.9601 3.52154,-3.6758 3.57093,-3.8127 0.0494,-0.1369 -0.88811,-1.7535 -2.08334,-3.5926 -4.24334,-6.529 -8.43328,-14.3624 -11.23951,-21.0132 -1.60465,-3.8031 -3.9904,-10.5451 -4.34481,-12.2782 -0.11902,-0.5821 -0.31289,-1.2965 -0.4308,-1.5875 -0.1908,-0.471 -0.16528,-0.4892 0.23203,-0.166 0.24553,0.1997 0.44641,0.5271 0.44641,0.7276 0,0.2004 0.25361,0.3644 0.56358,0.3644 0.61178,0 0.61055,-0.3041 -0.0144,-3.5718 -0.13916,-0.7276 -0.26012,-1.9503 -0.26879,-2.7171 -0.0154,-1.3596 7.9e-4,-1.3899 0.64912,-1.2272 0.38809,0.097 0.83422,0.026 1.07161,-0.1706 0.33169,-0.2753 0.47558,-0.2686 0.77997,0.037 0.43726,0.4383 2.68019,4.5434 2.93192,5.3662 0.30781,1.006 0.62183,1.2396 1.18967,0.885 0.63979,-0.3996 1.39478,0.014 1.51628,0.8307 0.10428,0.7009 1.10408,0.7957 1.11013,0.1052 0.002,-0.2614 0.0887,-0.3478 0.19843,-0.1984 0.10692,0.1455 0.47826,0.4244 0.82521,0.6197 0.76232,0.4292 0.79453,0.6152 -0.74879,-4.3239 -6.45561,-20.6597 -8.01438,-42.5339 -4.50618,-63.2354 0.29133,-1.7191 0.39103,-2.9465 0.24358,-2.9986 -0.13731,-0.048 -0.24965,-0.3759 -0.24965,-0.7276 0,-0.6051 -0.0851,-0.6394 -1.5875,-0.6394 -1.41672,0 -1.5875,0.057 -1.5875,0.5348 0,0.2942 -0.28721,0.9788 -0.63825,1.5214 -0.75554,1.1678 -1.81854,4.937 -2.72197,9.6516 -0.11771,0.6143 -0.27213,0.7276 -0.99168,0.7276 h -0.85226 l 0.0991,-2.1828 c 0.0545,-1.2006 0.21342,-3.1245 0.35311,-4.2754 0.35455,-2.9211 0.31922,-4.0062 -0.14288,-4.3897 -0.23915,-0.1985 -0.39688,-0.7774 -0.39688,-1.4568 0,-0.8789 -0.10909,-1.1559 -0.49498,-1.2568 -0.53198,-0.1391 -0.49349,-0.8471 0.21929,-4.0333 4.64371,-20.758 14.93015,-41.0378 29.39052,-57.9438 3.59871,-4.2073 11.74311,-12.3096 15.86434,-15.7823 31.24745,-26.3304 71.68328,-37.7801 111.90413,-31.6867 26.40015,3.9997 50.79264,15.3168 71.16035,33.0155 4.19571,3.6459 11.75774,11.3323 15.13067,15.3796 11.19516,13.4332 19.50808,28.0455 24.76072,43.5239 2.27877,6.7151 4.02592,13.3195 4.45891,16.8549 0.18045,1.4736 0.16836,1.5132 -0.51368,1.6844 -0.55126,0.1383 -0.66294,0.2874 -0.52978,0.7069 0.11208,0.3531 0.0704,0.4708 -0.12422,0.3505 -0.16111,-0.1 -0.29292,-0.389 -0.29292,-0.6432 0,-0.2542 -0.22479,-1.1699 -0.49956,-2.0349 -0.27474,-0.865 -0.82524,-2.6443 -1.22328,-3.954 -1.34395,-4.4219 -3.64312,-11.3692 -4.15919,-12.5677 -0.282,-0.6548 -0.68268,-1.6869 -0.89041,-2.2935 -0.729,-2.129 -3.52758,-7.7701 -3.93168,-7.9251 -0.2246,-0.086 -0.40838,-0.3821 -0.40838,-0.6576 0,-0.2755 -0.16587,-0.5009 -0.36857,-0.5009 -0.48791,0 -0.79322,-0.8308 -0.3956,-1.0766 0.19362,-0.1196 0.23169,-0.3788 0.10033,-0.6826 -0.19675,-0.4549 -0.21968,-0.4568 -0.32255,-0.027 -0.13523,0.5654 -0.60111,0.6167 -0.60111,0.066 0,-0.2182 -0.23109,-0.3968 -0.51356,-0.3968 -0.28244,0 -0.58714,-0.1191 -0.67707,-0.2646 -0.0899,-0.1455 -0.30533,-0.2608 -0.47863,-0.2562 -0.17333,0 -0.0909,0.1782 0.1832,0.3857 0.38028,0.288 0.459,0.574 0.33232,1.2074 -0.13171,0.6585 -0.0689,0.8555 0.30398,0.953 0.66092,0.1729 1.30601,1.6614 0.84378,1.9471 -0.2681,0.1657 -0.21005,0.5394 0.27286,1.757 0.33737,0.8507 0.70149,1.6657 0.80921,1.8112 0.10771,0.1455 0.49836,1.1575 0.86812,2.249 0.36978,1.0914 1.21605,3.5917 1.88063,5.5562 1.16573,3.446 2.30764,7.4513 3.18548,11.1731 0.40873,1.7329 0.99237,6.0478 0.83881,6.2014 -0.0421,0.042 -0.36653,0.1089 -0.72086,0.1484 -0.49358,0.055 -0.66424,-0.067 -0.72967,-0.5234 -0.0826,-0.576 -0.17968,-0.5953 -2.98571,-0.5953 -2.31492,0 -2.93064,0.079 -3.05041,0.3911 -0.0826,0.2151 0.0944,1.8522 0.39312,3.638 1.53352,9.1664 2.00707,15.7064 1.80609,24.9427 -0.24738,11.3692 -1.39472,20.0513 -4.05593,30.6917 -1.05854,4.2325 -2.28888,8.6484 -2.71388,9.7407 -0.367,0.9433 -0.3646,0.9749 0.0747,0.9749 0.53933,0 1.18869,0.8469 0.75999,0.9912 -0.1819,0.061 -0.33073,0.2204 -0.33073,0.3538 0,0.1362 1.73985,0.2425 3.96875,0.2425 3.7061,0 3.96875,-0.033 3.96875,-0.4967 0,-0.2733 0.1786,-0.645 0.39688,-0.8262 0.45963,-0.3814 0.54139,-0.01 0.16049,0.7312 -0.12999,0.2527 -0.37774,1.1143 -0.55057,1.9147 -0.53459,2.4757 -2.35823,7.6562 -4.36073,12.3878 -1.81927,4.2986 -6.09309,12.7864 -7.72922,15.3502 -0.21698,0.3401 -0.34115,0.6717 -0.27591,0.7369 0.1243,0.1243 2.96918,-4.1801 5.00502,-7.5729 1.30019,-2.1668 4.97279,-8.8654 4.97279,-9.0701 0,-0.07 0.76332,-1.719 1.69627,-3.6645 0.93295,-1.9455 1.93255,-4.1325 2.22131,-4.8601 1.08524,-2.7343 2.43565,-5.7976 2.65046,-6.0125 0.39077,-0.3907 1.10488,0.093 1.10488,0.7491 0,0.3864 0.15467,0.6331 0.39687,0.6331 0.58616,0 0.493,0.7908 -0.43034,3.6533 -3.22514,9.9984 -8.79576,21.3737 -15.11983,30.8749 -13.76296,20.6772 -32.89993,37.521 -54.87935,48.3033 -16.31741,8.0046 -33.23299,12.5935 -51.67569,14.0186 -4.87042,0.3763 -15.98483,0.3781 -20.6375,0 -17.52275,-1.4116 -33.71811,-5.6362 -49.08021,-12.8028 -6.28304,-2.931 -13.81385,-7.1919 -18.87879,-10.6814 l -2.47465,-1.7049 -3.47848,3.4184 c -4.19748,4.125 -4.67934,4.4126 -7.05731,4.2133 l -1.75392,-0.1471 -9.83766,9.8403 -9.83766,9.8403 0.1698,1.6245 c 0.0934,0.8935 0.093,1.9306 -8e-4,2.3046 -0.0939,0.374 -1.61579,2.1751 -3.38205,4.0023 l -3.21137,3.3223 0.56888,2.3197 c 0.64167,2.6164 0.68796,3.4261 0.28239,4.9399 -0.24779,0.9249 -11.19854,11.9892 -86.84801,87.7487 -47.610538,47.6796 -87.10033,87.3151 -87.755174,88.0789 -0.654843,0.7636 -1.547812,1.6087 -1.984375,1.8778 -0.952748,0.5874 -2.928106,0.6176 -5.394066,0.083 z M 204.67776,1480.9365 c 0.34699,-0.1332 0.2564,-0.3458 -0.50753,-1.1914 -0.51145,-0.5661 -0.92991,-1.2257 -0.92991,-1.4658 0,-0.2402 1.75617,-2.2043 3.9026,-4.3648 4.15585,-4.183 4.29991,-4.267 6.06008,-3.5315 1.90019,0.7939 2.65069,0.3377 1.56566,-0.9518 -0.37423,-0.4447 -0.68042,-0.9444 -0.68042,-1.1104 0,-0.166 4.17069,-4.4786 9.2682,-9.5836 l 9.2682,-9.2817 -0.60671,-0.57 c -0.33369,-0.3135 -1.07099,-0.764 -1.63844,-1.0011 l -1.03174,-0.431 -9.15251,9.1496 c -5.03388,5.0324 -9.27354,9.1498 -9.42148,9.1498 -0.14793,0 -1.2758,-0.6549 -2.50636,-1.4552 -1.23056,-0.8004 -2.33302,-1.4553 -2.44991,-1.4553 -0.55671,0 -0.40834,0.8426 0.36844,2.0921 l 0.85561,1.3764 -4.08022,4.0866 c -2.57025,2.5743 -4.27724,4.0861 -4.61259,4.0853 -0.2928,0 -1.00862,-0.2947 -1.5907,-0.6532 -0.58209,-0.3585 -1.20716,-0.6556 -1.38906,-0.6601 -1.72731,-0.043 3.8467,5.4574 7.47056,7.3721 1.16244,0.6142 1.22953,0.6286 1.83823,0.395 z m 35.3289,-35.3738 c -0.006,-0.1734 -0.36311,-0.7274 -0.79376,-1.2312 -0.43065,-0.5038 -0.783,-1.0978 -0.783,-1.3199 0,-0.2221 1.87267,-2.2793 4.16148,-4.5715 l 4.1615,-4.1675 -1.5743,-1.5909 c -0.86585,-0.875 -1.80152,-1.663 -2.07923,-1.7512 -0.39457,-0.1252 -1.43796,0.7715 -4.77294,4.1018 -2.36939,2.3662 -4.48111,4.2621 -4.7471,4.2621 -0.26353,0 -1.00164,-0.3062 -1.64026,-0.6804 -0.86403,-0.5064 -1.27883,-0.6146 -1.62116,-0.423 -0.90037,0.5038 4.40424,5.384 7.88246,7.2517 1.32509,0.7116 1.82764,0.7449 1.80631,0.12 z m 105.71179,-4.1655 c -0.58208,-0.1182 -2.78474,-0.351 -4.89479,-0.5173 -4.5398,-0.3578 -11.982,-1.5451 -16.59528,-2.6476 -14.10753,-3.3715 -27.7191,-9.4162 -39.42924,-17.5101 -7.98494,-5.519 -15.8768,-12.6393 -22.67019,-20.4538 -7.08541,-8.1504 -13.58529,-18.4917 -18.22442,-28.995 -1.44923,-3.2812 -1.72397,-3.9842 -3.2997,-8.4436 -4.80621,-13.6017 -6.97268,-27.4336 -6.58919,-42.0687 0.46789,-17.8558 4.60625,-34.3017 12.61661,-50.1386 9.97607,-19.723 24.35863,-35.2807 43.92057,-47.5089 3.50856,-2.1933 12.40981,-6.6024 16.96175,-8.4018 4.66112,-1.8426 10.4039,-3.7525 14.52367,-4.8302 3.52888,-0.923 2.57728,-0.9659 -2.28274,-0.1028 -7.24255,1.2863 -15.81087,3.7317 -23.11726,6.5977 -3.49573,1.3712 -10.08541,4.572 -14.02292,6.8113 -17.47036,9.9357 -31.79185,23.9688 -42.46896,41.6139 -2.21378,3.6585 -6.58984,12.5326 -8.1546,16.5365 -3.3685,8.6192 -5.99306,18.5414 -7.17355,27.1198 -3.27037,23.765 0.60521,47.4123 11.26542,68.7371 15.51337,31.0332 44.05366,53.5881 77.75253,61.4465 6.067,1.4148 13.71081,2.5607 19.05,2.8558 3.36317,0.1858 13.83808,0.1041 12.83229,-0.1002 z m -2.11667,-21.8272 c 2.54723,-0.1302 3.27965,-0.2576 3.70417,-0.6443 0.29104,-0.265 1.30307,-0.6115 2.24896,-0.7699 0.94589,-0.1584 2.19604,-0.4028 2.77812,-0.5431 0.58209,-0.1402 1.39243,-0.335 1.80076,-0.4328 0.48609,-0.1164 1.03423,-0.023 1.5875,0.2701 0.76242,0.4042 0.98687,0.4111 2.2947,0.071 1.11573,-0.2901 1.54634,-0.5514 1.86958,-1.1346 0.50853,-0.9175 1.55464,-1.2473 4.05561,-1.2787 1.57819,-0.02 1.87095,-0.1014 2.21506,-0.6181 0.22294,-0.3346 0.6675,-0.5953 1.01542,-0.5953 0.34039,0 0.85003,-0.2481 1.13253,-0.5513 0.43576,-0.4677 0.76406,-0.5379 2.16577,-0.463 1.59835,0.085 1.66666,0.062 2.09648,-0.7055 0.39206,-0.7004 0.61838,-0.8094 1.92497,-0.9275 0.81439,-0.074 1.51972,-0.1926 1.56742,-0.2646 0.0477,-0.072 0.21738,-0.3689 0.37709,-0.6599 0.25836,-0.4709 1.26994,-0.7747 3.87,-1.1621 0.10541,-0.016 0.36807,-0.3697 0.58367,-0.7866 0.29959,-0.5794 0.64223,-0.7981 1.45339,-0.9278 1.31035,-0.2096 2.40151,-0.6894 2.40151,-1.056 0,-0.1516 0.38055,-0.6683 0.84567,-1.1482 0.85383,-0.8809 1.67034,-1.1297 1.85819,-0.5661 0.18799,0.5639 1.45783,0.015 1.63947,-0.7085 0.10337,-0.412 0.51569,-0.837 1.06695,-1.0998 0.49417,-0.2357 0.95658,-0.6506 1.02757,-0.922 0.071,-0.2715 0.54657,-0.668 1.05687,-0.8812 0.51033,-0.2133 1.1838,-0.7472 1.49665,-1.1865 0.31281,-0.4393 0.88828,-0.8693 1.27881,-0.9555 1.8705,-0.4127 2.38252,-0.6784 2.54341,-1.3194 0.0997,-0.3972 0.52099,-0.8268 1.06537,-1.0864 0.51777,-0.2469 0.96626,-0.6914 1.05521,-1.0459 0.0851,-0.3391 0.48411,-0.7869 0.88665,-0.995 0.96419,-0.4986 3.04866,-2.5964 3.44561,-3.4676 0.17278,-0.3792 0.66009,-0.8101 1.08289,-0.9575 0.47562,-0.1658 0.83108,-0.5164 0.93229,-0.9196 0.0955,-0.3805 0.5185,-0.822 1.0165,-1.0609 0.62063,-0.2977 1.02455,-0.8014 1.48302,-1.8491 0.66825,-1.5273 1.34038,-2.4312 3.11049,-4.1834 0.60211,-0.5961 1.17801,-1.3588 1.27974,-1.6951 0.10173,-0.3363 0.45728,-0.7356 0.79012,-0.8872 0.55055,-0.2509 0.79838,-0.7677 1.33969,-2.794 0.0865,-0.3236 0.50991,-0.8396 0.94097,-1.1465 0.43108,-0.307 0.94895,-0.9534 1.15083,-1.4366 0.20188,-0.4832 0.6032,-0.9535 0.8918,-1.0451 0.64305,-0.2041 0.88213,-1.0234 0.67559,-2.3151 -0.1484,-0.9281 -0.10631,-0.9987 0.86736,-1.4558 1.00325,-0.4709 1.02592,-0.5134 1.15562,-2.1632 0.12689,-1.6142 0.17007,-1.7008 1.05833,-2.1234 l 0.92604,-0.4406 -0.0862,-1.735 c -0.0798,-1.6053 -0.0367,-1.7674 0.57605,-2.1689 0.36425,-0.2387 0.70072,-0.6926 0.74768,-1.0088 0.047,-0.3161 0.32354,-0.706 0.61458,-0.8664 0.83079,-0.4578 0.90524,-0.698 0.74578,-2.4057 -0.11994,-1.2842 -0.0642,-1.6742 0.27985,-1.9598 0.23627,-0.1961 0.42958,-0.6211 0.42958,-0.9446 0,-0.3234 0.23812,-0.8035 0.52916,-1.0669 0.43411,-0.3929 0.53481,-0.8399 0.56047,-2.4884 0.0442,-2.8366 0.23103,-3.4801 1.15933,-3.9929 0.743,-0.4104 0.80724,-0.5724 1.0047,-2.5348 0.11599,-1.153 0.20148,-2.4536 0.18992,-2.8902 -0.0833,-3.1432 0.0772,-6.9162 0.31914,-7.5018 0.41526,-1.0053 0.58287,-10.9146 0.21772,-12.8711 -0.53877,-2.8866 -0.89455,-7.3618 -0.84603,-10.641 0.0471,-3.1845 0.0379,-3.2391 -0.61725,-3.6684 -0.36578,-0.2397 -0.66508,-0.6716 -0.66508,-0.9599 0,-0.2882 -0.20206,-0.8661 -0.44902,-1.2842 -0.38495,-0.6516 -0.405,-0.9406 -0.1406,-2.0252 0.43434,-1.7815 -0.0868,-3.7285 -1.15787,-4.3256 -0.72401,-0.4036 -0.76605,-0.5225 -0.76605,-2.1661 0,-0.9565 -0.0595,-1.7792 -0.13229,-1.8281 -0.0728,-0.049 -0.37042,-0.22 -0.66146,-0.3802 -0.29104,-0.1602 -0.56685,-0.6068 -0.61291,-0.9923 -0.046,-0.3856 -0.30853,-0.8214 -0.58327,-0.9684 -0.39878,-0.2134 -0.51533,-0.623 -0.57775,-2.03 -0.0732,-1.6502 -0.1288,-1.7907 -0.87191,-2.201 -0.69498,-0.3838 -0.82674,-0.6495 -1.0588,-2.1352 -0.25263,-1.6173 -0.31306,-1.7195 -1.28792,-2.1785 -0.97298,-0.4582 -1.01523,-0.5292 -0.86688,-1.4571 0.20611,-1.2891 -0.0323,-2.1109 -0.67114,-2.3137 -0.2862,-0.091 -0.7394,-0.6762 -1.00714,-1.3008 -0.26776,-0.6246 -0.71061,-1.2984 -0.98417,-1.4973 -0.27352,-0.1988 -0.78973,-1.0452 -1.1471,-1.8807 -0.35896,-0.8393 -0.86778,-1.5907 -1.13694,-1.6791 -0.26794,-0.088 -0.65236,-0.5554 -0.85423,-1.0385 -0.20188,-0.4832 -0.71975,-1.1297 -1.15084,-1.4366 -0.43105,-0.307 -0.85449,-0.8229 -0.94096,-1.1465 -0.59364,-2.2222 -0.75665,-2.5172 -1.61801,-2.928 -0.53009,-0.2527 -0.95392,-0.6861 -1.05156,-1.0751 -0.1012,-0.4032 -0.45667,-0.7538 -0.93228,-0.9196 -0.42281,-0.1474 -0.9066,-0.5706 -1.07514,-0.9405 -0.3902,-0.8564 -6.73277,-7.2198 -7.69482,-7.72 -0.39807,-0.207 -0.79658,-0.6664 -0.88556,-1.021 -0.15708,-0.6258 -0.68511,-0.8984 -2.52378,-1.3028 -0.38143,-0.084 -1.01256,-0.5709 -1.40253,-1.0821 -0.38995,-0.5113 -0.88556,-0.9296 -1.10133,-0.9296 -0.21579,0 -0.64177,-0.4228 -0.94663,-0.9395 -0.37663,-0.6383 -0.81012,-0.9906 -1.35236,-1.099 -0.56198,-0.1124 -0.88331,-0.3855 -1.08625,-0.9232 -0.30152,-0.7987 -1.50339,-1.3553 -1.69373,-0.7843 -0.0562,0.1686 -0.29488,0.3064 -0.53049,0.3064 -0.51138,0 -2.17337,-1.5493 -2.17337,-2.026 0,-0.301 -2.26187,-1.149 -3.06458,-1.149 -0.17751,0 -0.55423,-0.3923 -0.83717,-0.8719 -0.4749,-0.8049 -1.86254,-1.5093 -2.97318,-1.5093 -0.18219,0 -0.72054,-0.3418 -1.19631,-0.7596 -0.63029,-0.5534 -1.26286,-0.8092 -2.33051,-0.9426 -1.14474,-0.143 -1.55784,-0.3242 -1.8879,-0.828 -0.37542,-0.5729 -0.61257,-0.6448 -2.12694,-0.6448 -1.43359,0 -1.74937,-0.084 -1.98757,-0.5292 -0.15772,-0.2947 -0.55399,-0.5292 -0.89435,-0.5292 -0.33612,0 -0.82664,-0.2381 -1.09003,-0.5291 -0.38478,-0.4252 -0.82174,-0.5309 -2.22382,-0.5376 -1.1131,-0.01 -1.9309,-0.1491 -2.25851,-0.3969 -0.2825,-0.2136 -0.77481,-0.3884 -1.09405,-0.3884 -0.31925,0 -0.75634,-0.2679 -0.97131,-0.5954 -0.52695,-0.8025 -2.98522,-1.3927 -4.06893,-0.9768 -0.96999,0.3723 -3.92461,0.079 -4.34837,-0.4315 -0.17232,-0.2077 -0.57796,-0.3776 -0.90141,-0.3776 -0.32343,0 -0.79473,-0.2284 -1.04733,-0.5075 -0.38499,-0.4254 -0.97996,-0.5357 -3.67903,-0.682 -4.11366,-0.223 -14.22429,-0.2283 -18.1687,-0.01 -2.70793,0.1501 -3.10094,0.2343 -3.57187,0.7651 -0.84982,0.9579 -5.19205,1.7785 -6.5813,1.2439 -1.08329,-0.417 -3.54153,0.1727 -4.06892,0.9759 -0.21498,0.3275 -0.65636,0.5954 -0.98087,0.5954 -0.32451,0 -0.81684,0.2512 -1.09405,0.5583 -0.44688,0.4949 -0.6904,0.5392 -2.14744,0.3905 -1.5522,-0.1584 -1.66769,-0.1307 -2.08094,0.5 -0.26202,0.3999 -0.68657,0.6678 -1.05829,0.6678 -0.34139,0 -0.85185,0.2481 -1.13434,0.5513 -0.43577,0.4678 -0.76407,0.538 -2.16578,0.4631 -1.59816,-0.086 -1.66674,-0.062 -2.0974,0.7054 -0.38711,0.6901 -0.66297,0.8283 -2.11262,1.0583 -1.25579,0.1993 -1.76472,0.4116 -2.06177,0.8599 -0.2169,0.3275 -0.59676,0.5954 -0.84412,0.5954 -0.77944,0 -2.92529,0.8306 -2.92529,1.1323 0,0.1588 -0.25887,0.5643 -0.57528,0.9011 -0.4372,0.4654 -0.8659,0.6134 -1.78594,0.6164 -1.3357,0 -1.69344,0.1626 -1.95194,0.8629 -0.0954,0.2585 -0.69794,0.6948 -1.33892,0.9695 -0.64095,0.2748 -1.33639,0.7437 -1.54541,1.0421 -0.20899,0.2984 -1.04568,0.7973 -1.8593,1.1087 -0.91541,0.3503 -1.52866,0.7548 -1.60878,1.0612 -0.0712,0.2723 -0.46878,0.6434 -0.88352,0.8247 -0.41471,0.1813 -1.66957,1.2558 -2.78857,2.3877 -1.12702,1.14 -2.2601,2.0579 -2.54022,2.0579 -1.06264,0 -2.12346,0.5639 -2.28706,1.2157 -0.0983,0.3915 -0.52294,0.823 -1.06402,1.081 -0.52628,0.251 -0.96607,0.6908 -1.05833,1.0584 -0.0923,0.3675 -0.53205,0.8073 -1.05833,1.0583 -0.52629,0.251 -0.96608,0.6907 -1.05834,1.0583 -0.0896,0.3569 -0.52684,0.806 -1.01081,1.0381 -0.62063,0.2978 -1.02455,0.8014 -1.48302,1.8492 -0.65997,1.5083 -1.30651,2.3838 -3.0893,4.1834 -0.59047,0.596 -1.20827,1.4008 -1.37295,1.7883 -0.16465,0.3876 -0.51853,0.7743 -0.78642,0.8593 -0.26786,0.085 -0.62309,0.515 -0.78938,0.9556 -0.19267,0.5104 -0.58897,0.9009 -1.09228,1.0764 -0.81193,0.283 -1.44008,1.5834 -0.85852,1.7773 0.56941,0.1898 0.26286,1.0733 -0.65069,1.8754 -0.51438,0.4516 -1.03111,0.8212 -1.14827,0.8212 -0.18986,0 -0.50165,0.8299 -0.9603,2.5562 -0.0836,0.3145 -0.54989,0.8753 -1.0363,1.2463 -0.48641,0.371 -0.95303,0.9472 -1.03693,1.2803 -0.0839,0.3331 -0.42539,0.7248 -0.7589,0.8703 -0.34938,0.1525 -0.64386,0.5449 -0.6949,0.926 -0.0487,0.3638 -0.19751,0.7746 -0.33073,0.9129 -0.13319,0.1382 -0.24217,0.6799 -0.24217,1.2038 0,0.5239 -0.10899,1.0656 -0.24218,1.2039 -0.13322,0.1382 -0.28204,0.5368 -0.33073,0.8858 -0.0487,0.3489 -0.32668,0.7656 -0.61772,0.926 -0.29104,0.1604 -0.5887,0.3316 -0.66146,0.3806 -0.0728,0.049 -0.13229,0.8715 -0.13229,1.828 0,1.6574 -0.0373,1.76 -0.79375,2.1827 -0.75835,0.4238 -0.79476,0.5252 -0.81653,2.273 -0.0313,2.5126 -0.36002,3.5573 -1.27968,4.067 -1.04553,0.5795 -1.58287,2.5449 -1.16523,4.2621 0.45075,1.8533 0.0343,3.6593 -0.97189,4.2147 -0.71345,0.3939 -0.80053,0.5834 -0.86061,1.8733 -0.0368,0.7894 -0.20056,1.9393 -0.36394,2.5554 -0.24789,0.9348 -0.22624,1.2284 0.13068,1.7731 0.37584,0.5736 0.3964,1.1117 0.16941,4.436 -0.3285,4.8109 -0.3285,9.8992 0,14.7101 0.22805,3.3398 0.20759,3.8606 -0.17449,4.4438 -0.36142,0.5516 -0.38285,0.8274 -0.12996,1.6715 0.16658,0.556 0.30287,1.2465 0.30287,1.5345 0,0.288 0.23812,0.7391 0.52916,1.0025 0.29104,0.2634 0.52917,0.7316 0.52917,1.0404 0,0.3089 0.17195,0.8071 0.38214,1.1072 0.55345,0.7902 0.792,3.0497 0.4359,4.1288 -0.45834,1.3887 0.17989,3.6274 1.19509,4.1919 0.72078,0.4008 0.76748,0.5312 0.80788,2.2546 0.0616,2.6267 0.35753,3.5661 1.28731,4.0863 0.73371,0.4105 0.78647,0.5447 0.78647,2.0018 0,1.7482 0.19791,2.2233 0.92604,2.2233 0.65858,0 0.78835,0.2555 0.97129,1.912 0.1098,0.9941 0.35803,1.6236 0.86325,2.1891 0.39003,0.4365 0.85715,1.389 1.03807,2.1167 0.2395,0.9631 0.61315,1.5844 1.37401,2.2845 0.57478,0.5289 1.04505,1.1753 1.04505,1.4364 0,0.6567 0.59124,2.2322 0.8377,2.2322 0.4419,0 2.07272,1.6721 2.07272,2.1252 0,0.2655 0.15322,0.6401 0.34046,0.8324 0.18725,0.1923 0.63373,1.0273 0.99219,1.8554 0.36999,0.8548 0.89916,1.6199 1.22409,1.7698 0.31481,0.1453 0.65911,0.5392 0.76513,0.8755 0.10601,0.3363 1.12836,1.527 2.27189,2.646 1.14353,1.119 2.07915,2.2417 2.07915,2.4948 0,1.0661 0.63971,2.1722 1.49109,2.5782 0.50541,0.2411 0.94308,0.6841 1.03412,1.0468 0.0923,0.3676 0.53205,0.8074 1.05834,1.0584 0.53702,0.2561 0.96586,0.6898 1.06243,1.0747 0.12263,0.4886 0.52774,0.782 1.66852,1.2087 0.95818,0.3583 1.59998,0.7762 1.76321,1.1482 0.14118,0.3217 0.67339,0.7811 1.18271,1.0209 0.50932,0.2398 1.1975,0.8053 1.52927,1.2567 0.33178,0.4514 0.78229,0.8208 1.00113,0.8208 0.21881,0 0.64632,0.4211 0.95001,0.9358 0.31649,0.5364 0.94395,1.0995 1.47013,1.3194 0.5049,0.2109 0.97933,0.6182 1.05434,0.9049 0.12819,0.4902 0.79319,0.8034 2.51036,1.1824 0.39053,0.086 0.966,0.5161 1.27882,0.9554 0.31284,0.4394 0.98631,0.9733 1.49664,1.1865 0.5103,0.2132 0.99086,0.6287 1.06788,0.9233 0.15769,0.603 1.44336,1.0604 1.60631,0.5716 0.0562,-0.1685 0.29488,-0.3064 0.53049,-0.3064 0.51435,0 2.17337,1.5505 2.17337,2.0312 0,0.3735 0.64331,0.5687 2.2293,0.6764 0.84489,0.057 1.12011,0.2186 1.47511,0.8643 0.39743,0.7228 0.58512,0.8055 2.09999,0.926 1.59192,0.1266 1.68225,0.172 2.09762,1.0549 0.24482,0.5204 0.6644,0.9589 0.96237,1.0058 0.29056,0.046 0.76644,0.1868 1.05749,0.3133 0.29104,0.1266 1.30307,0.3001 2.24895,0.3858 1.36105,0.1231 1.81351,0.2793 2.16903,0.7484 0.38418,0.507 0.70993,0.5962 2.24896,0.6156 2.50674,0.032 3.52743,0.3608 4.05575,1.3074 l 0.43894,0.7865 2.88584,0.057 c 4.56059,0.091 6.9197,0.3365 7.26839,0.7566 0.17185,0.2071 0.57709,0.3765 0.90054,0.3765 0.32342,0 0.80354,0.2382 1.06693,0.5292 0.43556,0.4813 0.82825,0.5309 4.34049,0.5478 2.12386,0.01 4.09972,0.1246 4.39076,0.2543 0.50856,0.2265 2.09161,0.1995 8.99583,-0.1536 z m 74.92032,-12.1579 c 6.44761,-5.6261 14.03136,-15.0919 19.60793,-24.4739 2.22631,-3.7456 6.93947,-13.3241 6.93947,-14.103 0,-0.1888 0.10133,-0.4564 0.22516,-0.5946 0.333,-0.3718 1.67013,-3.8683 1.53207,-4.0063 -0.0652,-0.065 -1.23135,-0.4558 -2.59149,-0.8681 -6.30518,-1.9111 -10.62768,-3.2744 -13.0791,-4.125 -1.46772,-0.5093 -2.85085,-0.856 -3.07366,-0.7705 -0.24003,0.092 -0.89345,1.6319 -1.60351,3.7786 -0.6591,1.9928 -1.50839,4.3002 -1.88727,5.1277 -0.37888,0.8274 -0.68887,1.6049 -0.68887,1.7278 0,0.2615 -3.3025,7.8955 -3.7524,8.674 -0.1682,0.291 -1.1974,2.2556 -2.28711,4.3656 -1.08971,2.1101 -2.55789,4.7686 -3.26258,5.908 -0.70469,1.1393 -1.28124,2.1174 -1.28124,2.1736 0,0.3489 -6.81131,10.3448 -10.44882,15.3341 -0.63656,0.8731 -1.16536,1.7138 -1.17512,1.8683 -0.01,0.1545 0.236,0.5532 0.5461,0.886 0.50019,0.5369 0.72204,0.5855 1.96532,0.4302 1.05061,-0.1313 1.61168,-0.066 2.24118,0.2591 0.69165,0.3576 1.55744,0.422 4.90945,0.365 2.23835,-0.038 4.14705,0.01 4.24156,0.1026 0.18656,0.1866 1.03111,-0.4084 2.92293,-2.0592 z m 33.66871,-63.2395 c 3.49536,-21.0672 1.08575,-42.6976 -6.91131,-62.0407 -0.87236,-2.11 -2.05039,-4.7384 -2.61784,-5.8408 -0.56746,-1.1024 -1.03175,-2.0834 -1.03175,-2.18 0,-0.23 -2.66147,-5.0624 -4.17999,-7.5896 -8.05265,-13.4015 -19.73551,-25.7605 -32.55137,-34.4351 -1.94022,-1.3133 -3.5714,-2.3441 -3.62487,-2.2906 -0.0534,0.053 0.55901,0.8079 1.36107,1.6765 1.24068,1.3438 2.30148,2.5878 5.9047,6.9246 0.73793,0.8881 5.05299,6.9063 6.129,8.548 6.67919,10.1908 12.2555,22.9366 15.46368,35.3457 2.85305,11.0355 4.12639,21.4729 4.11226,33.708 -0.007,5.9063 -0.1337,8.4465 -0.67406,13.4937 -0.63621,5.9425 -1.36308,10.9686 -1.94659,13.4602 -0.43032,1.8375 -0.39563,1.8715 2.46555,2.4158 1.71421,0.326 7.60042,1.6754 12.7,2.9113 3.95372,0.9582 4.18965,1.0013 4.42269,0.8082 0.10414,-0.086 0.54462,-2.2981 0.97883,-4.9152 z m -248.28903,-45.3719 c 0.0899,-0.1455 0.0374,-0.2646 -0.11668,-0.2646 -0.15411,0 -0.2802,0.1191 -0.2802,0.2646 0,0.1455 0.0525,0.2646 0.11668,0.2646 0.0642,0 0.19026,-0.1191 0.2802,-0.2646 z m 256.54586,-28.7536 c -0.23061,-0.3966 -0.28223,-0.408 -0.28885,-0.064 -0.008,0.4456 0.26966,0.8468 0.45717,0.6593 0.0619,-0.062 -0.014,-0.3297 -0.16832,-0.5953 z m -244.62831,99.6802 c -0.18073,-0.2924 0.23664,-0.6082 0.48096,-0.3639 0.25156,0.2516 0.20468,0.6102 -0.0798,0.6102 -0.13693,0 -0.31747,-0.1108 -0.40119,-0.2463 z m 258.90438,-70.0226 c 0.0127,-0.3083 0.0754,-0.371 0.15986,-0.1599 0.0764,0.191 0.067,0.4192 -0.0209,0.5071 -0.0879,0.088 -0.15047,-0.068 -0.13899,-0.3472 z"
           style="fill:#e6e6e6;stroke-width:0.26458335" />
        <path
           inkscape:connector-curvature="0"
           id="path1117"
           d="m 36.288229,1665.3503 c -4.255145,-1.256 -9.650315,-4.3403 -14.816667,-8.4703 -3.082909,-2.4646 -10.334363,-9.7432 -12.7501549,-12.7981 -5.8528905,-7.4011 -8.62314111,-13.2647 -8.87504986,-18.7854 l -0.12676638,-2.7781 1.92081454,-1.7198 c 1.0564495,-0.9459 40.7466606,-40.5508 88.2004696,-88.011 47.453805,-47.4602 86.660695,-86.4829 87.126405,-86.7172 1.21287,-0.6101 4.03496,-0.5492 6.35096,0.1373 l 1.90604,0.5649 3.65021,-3.5015 3.6502,-3.5014 1.5875,0.1322 c 0.87313,0.073 1.77478,0.2086 2.00367,0.3018 0.30167,0.1231 3.11706,-2.558 10.23351,-9.7452 l 9.81734,-9.9149 -0.14783,-1.9546 -0.14782,-1.9547 1.58949,-1.8329 c 0.87422,-1.0082 2.68081,-2.8948 4.01466,-4.1925 1.43671,-1.3978 2.36921,-2.5053 2.28788,-2.7172 -0.0755,-0.1968 -0.59915,-1.04 -1.16366,-1.8739 -1.22549,-1.8102 -1.74978,-2.8022 -2.25288,-4.2624 -0.35285,-1.0242 -0.34543,-1.0901 0.12264,-1.0901 0.60873,0 0.62585,-0.2292 0.0758,-1.0146 -1.35748,-1.938 -8.30883,-16.8506 -8.30883,-17.8247 0,-0.2259 -0.17859,-0.8381 -0.39687,-1.3606 -0.51195,-1.2252 -0.53341,-1.1594 0.44803,-1.3749 0.4647,-0.1021 1.02219,-0.3629 1.23887,-0.5795 0.34889,-0.3489 0.43384,-0.3395 0.74259,0.083 0.19175,0.2622 0.34863,0.6524 0.34863,0.867 0,0.2146 0.51861,1.2337 1.15245,2.2645 0.63385,1.0309 1.8955,3.3031 2.80365,5.0493 3.62883,6.9777 7.60501,12.976 9.09076,13.714 0.91997,0.457 1.29642,0.9704 0.71148,0.9704 -0.14552,0 -0.26459,0.1271 -0.26459,0.2824 0,0.1687 0.22933,0.2097 0.56919,0.1018 0.45256,-0.1437 0.53559,-0.093 0.40519,0.2467 -0.14045,0.366 0.0788,0.4274 1.52542,0.4274 1.10399,0 1.73569,-0.1146 1.82289,-0.3307 0.10677,-0.2646 0.13763,-0.2646 0.15434,0 0.0115,0.1819 0.12805,0.3307 0.25902,0.3307 0.13097,0 0.2382,-0.4464 0.23829,-0.9921 1.3e-4,-0.6978 -0.25431,-1.3455 -0.85748,-2.1829 -1.18901,-1.6506 -4.14619,-6.4251 -5.97837,-9.6524 -9.29495,-16.3724 -14.70871,-34.1511 -16.39705,-53.8476 -0.37142,-4.3331 -0.36807,-15.8709 0.006,-20.3813 1.06821,-12.8826 3.71114,-24.4552 8.33675,-36.5041 0.97765,-2.5466 1.83525,-5.0767 1.90576,-5.6224 l 0.12821,-0.9922 h -1.86147 c -1.72897,0 -1.86749,0.042 -1.94602,0.5954 -0.0465,0.3274 -0.36482,0.7143 -0.70737,0.8598 -1.08022,0.4589 -3.53904,6.2146 -7.17742,16.8011 -0.7073,2.058 -1.20936,2.9104 -1.71422,2.9104 -0.45774,0 -0.35887,-0.8329 0.56536,-4.7625 0.57837,-2.4591 3.01259,-10.0681 4.5977,-14.3717 0.56928,-1.5456 0.50037,-2.3004 -0.13117,-1.4367 -0.45058,0.6162 -0.6768,0.5836 -0.6768,-0.097 0,-0.4484 -0.12651,-0.5359 -0.63479,-0.4387 l -0.63479,0.1213 0.36115,-1.2149 c 0.83873,-2.8217 5.80164,-12.7151 8.94126,-17.8241 20.77539,-33.8075 54.80147,-57.1678 93.69946,-64.3285 4.78274,-0.8805 10.80018,-1.6328 16.21089,-2.0268 5.52254,-0.4022 18.41489,-0.188 23.74119,0.3943 23.31059,2.5487 44.55568,10.2232 63.61822,22.9812 16.03624,10.7326 30.64899,25.8322 40.56602,41.9175 2.84991,4.6225 6.04317,10.4781 7.10711,13.0326 0.45262,1.0867 0.97689,2.2178 1.16504,2.5135 0.18817,0.2958 0.72581,1.5182 1.19478,2.7165 0.69995,1.7885 0.79309,2.2506 0.51993,2.5797 -0.18301,0.2205 -0.48564,0.401 -0.67252,0.401 -0.18684,0 -1.46327,-2.2325 -2.83646,-4.961 -8.53985,-16.9685 -18.93914,-30.8348 -31.68399,-42.2472 -3.56717,-3.1942 -8.19253,-6.9825 -9.26042,-7.5846 -0.3638,-0.2051 -1.04182,-0.6909 -1.50672,-1.0795 -0.54967,-0.4596 -1.03539,-0.657 -1.38906,-0.5645 -0.39336,0.1029 -0.5438,0.016 -0.5438,-0.3138 0,-0.2788 -0.14176,-0.4017 -0.36462,-0.3161 -0.20056,0.077 -0.49623,0.01 -0.65707,-0.1525 -0.16081,-0.1609 -0.3837,-0.1948 -0.49525,-0.075 -0.11157,0.1193 -0.054,0.2702 0.12788,0.3351 0.57557,0.2056 0.35755,0.6032 -0.33073,0.6032 -0.3638,0 -0.66146,-0.1093 -0.66146,-0.2429 0,-0.1337 -0.0723,-0.4313 -0.1606,-0.6615 -0.10285,-0.268 -0.0167,-0.4185 0.23982,-0.4185 0.25953,0 0.3553,-0.1725 0.27223,-0.4902 -0.0902,-0.3449 -0.35695,-0.4821 -0.90067,-0.463 -0.65352,0.023 -0.77259,0.1358 -0.77309,0.7327 0,0.3881 -0.13393,0.75 -0.29689,0.8043 -0.16295,0.054 0.14052,0.4319 0.6744,0.8392 0.53388,0.4072 1.13255,0.6782 1.33035,0.6023 0.21431,-0.082 0.42593,0.095 0.52364,0.4397 0.0902,0.3177 1.3149,1.4705 2.72161,2.5617 8.07222,6.2617 17.92473,16.36 24.39479,25.0035 3.97479,5.3099 8.64865,12.7497 11.37378,18.1044 1.81502,3.5665 3.89834,8.1521 4.13872,9.1097 0.15713,0.6261 0.12144,0.6541 -0.58486,0.4587 -0.56203,-0.1555 -0.73626,-0.3521 -0.68916,-0.7775 0.0611,-0.5516 -0.0263,-0.5693 -2.81218,-0.5693 h -2.8752 l -0.31753,0.7666 c -0.26074,0.6295 -0.24281,0.9111 0.10039,1.5747 0.22981,0.4445 1.174,2.8677 2.09814,5.385 9.55247,26.0201 10.83569,52.4007 3.85768,79.306 -2.84933,10.9863 -7.94187,23.0347 -13.87652,32.8305 -3.37355,5.5685 -3.58786,5.9075 -4.84169,7.6593 -1.0155,1.4188 -1.08114,1.5946 -0.59532,1.5946 0.30036,0 0.54608,0.1659 0.54608,0.3686 0,0.5978 0.63055,0.6897 4.73122,0.6897 2.67605,0 3.99352,-0.099 4.21169,-0.3175 0.49321,-0.4932 0.37825,-0.7408 -0.34395,-0.7408 -0.48506,0 -0.66146,-0.1411 -0.66146,-0.5292 0,-0.4115 0.1764,-0.5291 0.79375,-0.5291 0.52916,0 0.79375,0.1323 0.79375,0.3969 0,0.5139 0.23921,0.5018 0.84068,-0.043 0.6876,-0.6223 0.94346,-0.2084 0.31306,0.5065 -0.28821,0.3269 -0.91305,1.381 -1.38853,2.3426 -0.47551,0.9616 -1.51019,2.6066 -2.29934,3.6556 -0.78915,1.049 -1.57186,2.1633 -1.73934,2.4763 -0.34269,0.6403 -2.91524,4.0207 -5.48011,7.201 -2.71827,3.3706 -2.67739,3.3587 0.91713,-0.267 3.17129,-3.1987 5.78538,-6.2656 9.36561,-10.988 2.25388,-2.9728 2.9114,-3.6769 3.29587,-3.5294 0.19544,0.075 0.89598,0.2175 1.55675,0.3166 l 1.20145,0.1803 -1.10882,1.7851 c -9.11968,14.6818 -23.68992,29.5232 -39.0765,39.8035 -26.62928,17.7921 -58.15642,25.8059 -90.3477,22.9651 -23.23764,-2.0506 -45.79771,-10.0061 -65.1991,-22.9916 l -3.0145,-2.0177 -3.3355,3.2709 c -4.30107,4.2176 -4.8188,4.5316 -7.15029,4.3362 l -1.78252,-0.1495 -9.80749,9.8365 c -5.39411,5.4101 -9.92405,10.0747 -10.06653,10.3657 -0.14324,0.2926 -0.16394,0.7658 -0.0463,1.0583 0.4127,1.0266 0.26477,2.5135 -0.33668,3.3842 -0.32263,0.467 -1.82113,2.1115 -3.32998,3.6544 l -2.74338,2.8052 0.55186,1.7867 c 0.69604,2.2535 0.72771,5.1962 0.0692,6.4307 -0.25326,0.4749 -40.0998,40.5096 -88.54786,88.9662 l -88.087385,88.1029 -2.259277,-0.014 c -1.604632,-0.01 -2.910938,-0.2064 -4.508239,-0.6779 z M 206.82887,1482.1299 c 0.1021,-0.1652 -0.54875,-0.9682 -1.50178,-1.8528 l -1.68197,-1.5613 4.09388,-4.1003 c 2.25163,-2.2551 4.27735,-4.1002 4.50159,-4.1002 0.22424,0 1.23771,0.3539 2.25216,0.7865 2.11788,0.9033 2.46353,0.9547 2.67707,0.3982 0.10065,-0.2623 -0.27133,-0.7776 -1.06664,-1.4777 -0.67166,-0.5912 -1.22119,-1.2738 -1.22119,-1.5169 0,-0.2431 4.10765,-4.5483 9.12812,-9.5672 5.02047,-5.0189 9.12813,-9.2523 9.12813,-9.4077 0,-0.5345 -3.67523,-2.7632 -4.55673,-2.7632 -0.18754,0 -4.3878,4.0482 -9.3339,8.9959 -4.9461,4.9477 -9.11427,8.9958 -9.2626,8.9958 -0.29449,0 -2.65819,-1.6001 -4.98319,-3.3734 -0.81088,-0.6185 -1.59847,-1.1245 -1.7502,-1.1245 -0.65049,0 -0.17499,1.0687 1.18266,2.6581 2.29048,2.6815 2.39524,2.3495 -2.18723,6.932 -3.43832,3.4383 -4.0619,3.954 -4.61377,3.8155 -0.35097,-0.088 -1.51637,-0.8126 -2.58978,-1.61 -1.92904,-1.433 -2.38651,-1.579 -2.38651,-0.7619 0,0.5557 5.77594,6.2409 7.87537,7.7517 1.72447,1.241 5.25574,3.1733 5.8012,3.1744 0.17331,0 0.3962,-0.1306 0.49531,-0.291 z m 35.19794,-35.2031 c 0.11295,-0.1827 -0.41434,-0.8459 -1.31464,-1.6536 -0.82674,-0.7417 -1.49989,-1.5258 -1.49585,-1.7424 0.004,-0.2167 1.86542,-2.2547 4.13645,-4.5291 3.61712,-3.6224 4.09477,-4.1992 3.85228,-4.6523 -0.53766,-1.0047 -4.00886,-4.0508 -4.61603,-4.0508 -0.41402,0 -1.8715,1.2799 -4.82057,4.2333 -2.32493,2.3284 -4.42658,4.2334 -4.67034,4.2334 -0.24377,0 -1.42183,-0.7256 -2.61791,-1.6125 -1.60405,-1.1893 -2.23007,-1.5228 -2.3857,-1.271 -0.34957,0.5656 0.20397,1.2892 3.4217,4.4731 3.12892,3.0961 4.85262,4.4036 7.89729,5.9906 1.82507,0.9513 2.31707,1.0607 2.61332,0.5813 z m 109.90935,-4.9723 c 2.86012,-0.3449 4.14033,-0.6916 4.42973,-1.1996 0.11026,-0.1936 1.62923,-0.6563 3.37548,-1.0283 4.48725,-0.9559 11.03693,-2.6967 12.3776,-3.2898 0.6241,-0.276 1.78539,-0.6548 2.58064,-0.8418 0.79526,-0.187 2.16319,-0.6616 3.03986,-1.0547 0.87664,-0.3931 1.94389,-0.8026 2.37164,-0.91 0.85326,-0.2141 2.57077,-0.9874 7.45681,-3.3573 1.77117,-0.859 3.34285,-1.5619 3.49258,-1.5619 0.14975,0 0.3675,-0.1488 0.48387,-0.3307 0.11636,-0.1819 1.28315,-0.8595 2.59283,-1.5056 1.30969,-0.6462 2.67891,-1.3971 3.04271,-1.6688 1.30178,-0.9721 3.04795,-2.0416 3.34105,-2.0463 0.16407,0 0.45628,-0.1952 0.64935,-0.4278 0.19309,-0.2327 1.1304,-0.9419 2.08293,-1.5762 2.736,-1.8219 3.90956,-2.6518 4.83737,-3.421 0.4748,-0.3936 1.81576,-1.4287 2.97993,-2.3002 2.35347,-1.7617 2.73507,-2.0894 6.85736,-5.889 11.98298,-11.0451 22.2648,-25.9625 28.29627,-41.054 1.49653,-3.7445 1.77524,-4.9933 1.16043,-5.1992 -0.2423,-0.081 0,-1.2718 0.9031,-4.4538 0.67861,-2.3887 1.44767,-5.2791 1.709,-6.4231 0.30631,-1.341 0.62,-2.1234 0.88284,-2.2019 0.91707,-0.2741 1.2093,-0.5814 1.36485,-1.4354 1.66616,-9.147 2.07386,-12.9 2.26753,-20.8733 0.33322,-13.7169 -1.48291,-25.8089 -5.86139,-39.026 -7.23435,-21.8379 -21.0833,-41.05 -39.69666,-55.0696 -2.18395,-1.6449 -7.68567,-5.3877 -7.91975,-5.3877 -0.0727,0 -0.86905,-0.4762 -1.76964,-1.0583 -0.90058,-0.5821 -1.7282,-1.0584 -1.83914,-1.0584 -0.11094,0 -1.10794,-0.5357 -2.21557,-1.1906 -1.10762,-0.6548 -2.09034,-1.1906 -2.18384,-1.1906 -0.0935,0 -0.35796,-0.1614 -0.5877,-0.3586 -0.22973,-0.1972 -1.31066,-0.7552 -2.40207,-1.24 -1.0914,-0.4847 -2.16297,-1.0173 -2.38125,-1.1836 -0.55083,-0.4194 -6.40038,-2.9762 -7.31864,-3.1989 -0.41315,-0.1002 -1.46553,-0.5147 -2.33865,-0.9211 -0.87313,-0.4064 -2.12328,-0.9137 -2.77813,-1.1274 -6.08983,-1.9865 -14.21579,-4.0478 -18.38854,-4.6647 -1.16416,-0.1721 -3.54541,-0.5474 -5.29167,-0.8341 -4.30937,-0.7074 -12.48362,-1.1173 -18.25625,-0.9155 -2.61937,0.092 -5.11968,0.2243 -5.55625,0.295 -1.63724,0.2649 -0.1498,-0.1638 3.13259,-0.9029 4.73414,-1.0659 4.95411,-1.4649 0.69583,-1.2624 -16.26367,0.7736 -36.5328,7.1084 -51.50422,16.0968 -4.88751,2.9343 -9.002,5.7336 -13.03533,8.8686 -1.4542,1.1303 -3.62442,2.9031 -3.8472,3.1427 -0.14552,0.1565 -0.97896,0.8705 -1.85209,1.5867 -0.87312,0.7162 -2.24234,1.9181 -3.0427,2.6709 -0.80037,0.7527 -1.78263,1.6249 -2.18282,1.9382 -0.40018,0.3132 -0.7276,0.7432 -0.7276,0.9555 0,0.2123 -0.20836,0.4599 -0.46302,0.5502 -0.70033,0.2483 -1.42306,0.9399 -1.67746,1.6051 -0.12523,0.3274 -0.4033,0.5953 -0.61796,0.5953 -0.21463,0 -0.50686,0.2084 -0.64937,0.463 -0.31549,0.5638 -1.26299,1.6546 -3.27239,3.7675 -0.83643,0.8795 -1.81758,2.0437 -2.18033,2.5869 -1.05801,1.5846 -1.81279,2.5238 -2.45041,3.0492 -0.32742,0.2698 -0.59531,0.5957 -0.59531,0.7242 0,0.2982 -1.21947,2.1008 -1.80359,2.666 -0.48352,0.4679 -1.50384,2.0636 -2.95891,4.6276 -0.50932,0.8975 -1.10464,1.8387 -1.32292,2.0917 -0.59795,0.6928 -2.57673,4.2639 -4.98462,8.9958 -1.15351,2.2668 -2.95288,6.2181 -2.95288,6.4843 0,0.1541 -0.29227,0.8569 -0.64948,1.5619 -0.35722,0.7049 -0.79337,1.8618 -0.96923,2.5708 -0.17586,0.7091 -0.54484,1.8201 -0.81995,2.4689 -1.14896,2.7095 -3.19048,10.2976 -4.16721,15.4891 -0.13689,0.7276 -0.42698,2.1564 -0.64464,3.175 -0.43679,2.0442 -0.81668,5.2924 -1.25325,10.7156 -0.32628,4.0534 -0.14396,18.4649 0.26779,21.1667 0.14415,0.9459 0.39977,2.8509 0.56804,4.2333 0.16827,1.3825 0.46449,3.2279 0.65826,4.1011 0.19378,0.8731 0.49648,2.3018 0.67268,3.175 0.3039,1.5059 1.46544,6.1776 2.10508,8.4666 0.59408,2.126 2.93747,8.9129 3.57584,10.3563 0.36084,0.816 0.65607,1.5859 0.65607,1.711 0,0.1251 0.36586,0.9735 0.81303,1.8853 0.44716,0.9118 1.04769,2.274 1.3345,3.0271 0.2868,0.753 0.80199,1.7825 1.14485,2.2878 0.34287,0.5052 0.7111,1.1949 0.8183,1.5327 0.1718,0.5413 1.47118,2.8388 4.62057,8.1699 2.71076,4.5886 6.43216,9.5786 11.82611,15.8574 1.59509,1.8568 6.06073,6.2784 9.08166,8.9923 1.52485,1.3698 3.01057,2.7545 3.30161,3.0772 0.29104,0.3226 1.12448,0.9832 1.85208,1.4681 0.72761,0.4849 2.15636,1.5841 3.175,2.4427 1.01865,0.8587 2.14974,1.6893 2.51354,1.8459 0.36381,0.1566 0.98129,0.5749 1.37219,0.9296 0.70487,0.6395 1.32225,1.0429 2.59656,1.6963 0.36381,0.1865 1.4949,0.8756 2.51354,1.5313 2.5526,1.6429 2.7517,1.7587 4.09179,2.3799 0.64976,0.3011 1.24507,0.6363 1.32291,0.7448 0.21223,0.2959 5.3694,2.7855 8.05299,3.8876 1.29538,0.532 2.54553,1.0805 2.77813,1.2189 0.23262,0.1384 1.91122,0.7928 3.73023,1.4542 1.81901,0.6614 3.78354,1.3818 4.36562,1.6009 0.58209,0.219 1.9513,0.6303 3.04271,0.9139 3.68657,0.958 10.17715,2.5331 11.64167,2.8252 9.98744,1.9921 14.81545,2.4268 25.66458,2.3109 4.58391,-0.049 9.46547,-0.2255 10.84792,-0.3923 z m -129.76725,-39.6841 c -0.0959,-0.1552 -0.30102,-0.2822 -0.45577,-0.2822 -0.17544,0 -0.15537,0.1518 0.0533,0.4032 0.36289,0.4373 0.68721,0.3397 0.40245,-0.121 z m 217.07975,0.082 c 0,-0.3516 -0.0718,-0.3697 -0.39687,-0.1 -0.21828,0.1811 -0.39688,0.3743 -0.39688,0.4292 0,0.055 0.1786,0.1 0.39688,0.1 0.21828,0 0.39687,-0.1931 0.39687,-0.4292 z m -218.01667,0.048 c 0,-0.064 -0.11906,-0.1903 -0.26459,-0.2802 -0.14552,-0.09 -0.26458,-0.037 -0.26458,0.1166 0,0.1542 0.11906,0.2802 0.26458,0.2802 0.14553,0 0.26459,-0.053 0.26459,-0.1166 z m 193.01625,-187.9368 c 0.73533,0.1405 0.90445,-0.3866 0.31355,-0.9775 -0.38338,-0.3834 -4.15271,-0.6925 -4.15271,-0.3405 0,0.3042 1.38814,1.4987 1.75355,1.5089 0.16407,0 0.45522,0.1974 0.64701,0.4285 0.31271,0.3768 0.3709,0.3601 0.56425,-0.1626 0.16428,-0.4441 0.3723,-0.5528 0.87435,-0.4568 z m 41.66917,187.596 c -0.41047,-0.1562 -0.78263,-0.5914 -0.7897,-0.9233 -0.003,-0.1046 0.18122,-0.1191 0.40765,-0.032 0.24159,0.093 0.63693,-0.084 0.95689,-0.4272 0.77221,-0.8289 1.16165,-0.3162 0.56113,0.7387 -0.49954,0.8775 -0.50882,0.8827 -1.13597,0.644 z M 230.4924,1400.899 c 0,-0.4517 0.11521,-0.5292 0.59532,-0.4005 0.32742,0.088 0.67187,0.1612 0.76544,0.1631 0.0936,0 0.23866,0.1823 0.32243,0.4005 0.11733,0.3058 -0.0584,0.3969 -0.76545,0.3969 -0.7582,0 -0.91774,-0.097 -0.91774,-0.56 z m 0.67276,-1.5384 c -0.0837,-0.1354 -0.0437,-0.3133 0.089,-0.3953 0.13265,-0.082 0.30945,0.029 0.39289,0.2463 0.16449,0.4286 -0.23303,0.5516 -0.48184,0.149 z M 217.9247,1273.6653 c -0.0899,-0.1456 0.0291,-0.2646 0.26458,-0.2646 0.23546,0 0.35452,0.119 0.26458,0.2646 -0.0899,0.1455 -0.209,0.2645 -0.26458,0.2645 -0.0556,0 -0.17465,-0.119 -0.26458,-0.2645 z m 1.4552,-0.016 c 0,-0.1541 0.11907,-0.2066 0.26459,-0.1166 0.14552,0.09 0.26458,0.216 0.26458,0.2802 0,0.064 -0.11906,0.1166 -0.26458,0.1166 -0.14552,0 -0.26459,-0.126 -0.26459,-0.2802 z m 199.23126,-55.2979 c 0,-0.1541 0.11907,-0.2066 0.26459,-0.1167 0.14552,0.09 0.26458,0.2161 0.26458,0.2802 0,0.064 -0.11906,0.1167 -0.26458,0.1167 -0.14552,0 -0.26459,-0.1261 -0.26459,-0.2802 z"
           style="fill:#cfcfcf;stroke-width:0.26458335" />
        <path
           inkscape:connector-curvature="0"
           id="path1115"
           d="m 38.801771,1665.7527 c -7.215153,-1.4053 -16.615979,-7.5333 -25.026989,-16.314 -8.8090746,-9.1963 -13.68282395,-17.9034 -13.77419542342,-24.6079 l -0.0303397766,-2.2263 1.5481036,-1.5644 c 0.8514583,-0.8604 1.6713174,-1.5644 1.821913,-1.5644 0.1505955,0 39.2625066,-38.9899 86.9153586,-86.6443 l 86.641548,-86.6442 1.35789,-0.2819 c 1.07637,-0.2235 1.7892,-0.1928 3.43834,0.1478 2.10161,0.4341 3.55525,1.0106 3.55525,1.4099 0,0.3182 -3.08465,3.2085 -3.42422,3.2085 -0.15868,0 -0.48879,0.42 -0.73359,0.9334 -2.06101,4.322 7.42017,18.2309 18.8092,27.5931 2.93903,2.416 9.65404,5.5695 12.30423,5.7784 2.51161,0.1979 3.81921,-0.9558 1.42989,-1.2617 -1.30465,-0.167 -3.35159,-0.9514 -5.2752,-2.0215 -2.1242,-1.1817 -2.2002,-0.9973 2.24175,-5.4393 l 4.01522,-4.0152 1.25751,0.4928 c 3.72509,1.4599 5.59375,2.0062 6.8799,2.0115 0.92156,0 1.38906,0.1154 1.38906,0.3318 0,0.1794 -1.20116,1.5315 -2.66926,3.0046 l -2.66927,2.6784 0.39892,1.175 c 0.2194,0.6462 0.5316,1.9066 0.69376,2.8009 0.26808,1.4784 0.24385,1.9976 -0.16989,3.6409 -0.0733,0.2911 -39.08494,39.5446 -86.69259,87.2302 -47.607663,47.6855 -87.28996,87.5034 -88.182892,88.4841 -1.622247,1.7817 -1.624713,1.7831 -3.175,1.8522 -0.853318,0.038 -2.146803,-0.047 -2.874407,-0.1884 z M 219.91874,1471.7921 c -1.11118,-0.3188 -2.44949,-1.2334 -2.32987,-1.5923 0.0478,-0.1435 4.31015,-4.4886 9.47181,-9.6558 l 9.38485,-9.395 -0.91695,-0.7018 c -0.50431,-0.3859 -1.27075,-1.0127 -1.70318,-1.3928 l -0.78624,-0.6911 1.41083,-1.4917 c 0.77596,-0.8205 1.54778,-1.4918 1.71515,-1.4918 0.16737,0 1.54908,0.6309 3.07047,1.4019 1.52138,0.771 3.39125,1.6574 4.15523,1.9697 0.76399,0.3123 1.38907,0.7252 1.38907,0.9175 0,0.1923 -4.97417,5.3186 -11.05369,11.3917 -10.43148,10.4206 -11.1054,11.0408 -11.9724,11.0183 -0.50529,-0.013 -1.33108,-0.1422 -1.83508,-0.2868 z m -27.44352,-2.7265 c -5.2943,-5.3914 -9.16606,-11.6285 -9.5194,-15.3348 l -0.1277,-1.3395 3.75885,-3.7703 c 2.06737,-2.0737 3.84026,-3.7703 3.93974,-3.7703 0.0995,0 0.53021,0.7385 0.95715,1.6412 1.72918,3.656 4.40322,7.4403 9.82764,13.9082 1.49741,1.7854 2.72257,3.3347 2.72257,3.4429 0,0.4595 -7.84549,7.9952 -8.32389,7.9952 -0.30084,0 -1.63602,-1.1444 -3.23496,-2.7726 z m 13.25219,-7.7697 c -1.85373,-1.3523 -6.32496,-6.2459 -8.01401,-8.771 -1.90899,-2.854 -2.73756,-4.4142 -3.23245,-6.0867 -0.19377,-0.6549 -0.61773,-1.5851 -0.94214,-2.0673 -0.61453,-0.9133 -1.05269,-2.9267 -0.78739,-3.618 0.18223,-0.4749 2.0392,-0.5513 2.8502,-0.1172 0.50267,0.269 0.47587,0.3401 -0.54656,1.4493 -1.04506,1.1337 -1.30999,1.9856 -0.84538,2.7184 0.15964,0.2518 2.74985,-2.1793 9.25636,-8.6876 7.64228,-7.6444 9.0347,-9.1534 9.0347,-9.7912 0,-0.4147 0.11866,-1.0662 0.2637,-1.4476 0.32367,-0.8514 2.85941,-3.5742 3.32856,-3.5742 0.18728,0 0.77929,0.861 1.31559,1.9133 2.45688,4.8209 6.34225,9.8019 12.8793,16.5111 2.00426,2.057 3.6441,3.8467 3.6441,3.977 0,0.1303 -0.72113,0.9476 -1.60251,1.8162 l -1.60251,1.5792 -2.6241,-1.389 c -1.44325,-0.764 -2.78768,-1.3891 -2.98762,-1.3891 -0.19994,0 -4.34039,3.9866 -9.201,8.8591 -4.86061,4.8725 -8.9089,8.8611 -8.99621,8.8635 -0.0873,0 -0.62309,-0.3342 -1.19063,-0.7482 z m 120.67646,-8.7832 c -26.0418,-2.2754 -49.71722,-11.7423 -69.58542,-27.8246 -5.54019,-4.4845 -13.62766,-12.4772 -18.0162,-17.8051 -22.43633,-27.2388 -32.46212,-62.4048 -27.86912,-97.7526 4.74237,-36.4973 25.309,-69.1485 56.41013,-89.5556 16.55924,-10.8654 35.28144,-17.5411 55.75332,-19.8797 5.06899,-0.579 16.63043,-0.7884 21.96724,-0.3978 31.70431,2.3207 59.85198,15.3693 82.02523,38.0251 19.86828,20.3007 31.9614,45.8712 35.33151,74.7074 0.91836,7.8582 0.78094,21.6775 -0.2979,29.958 -2.57828,19.7889 -9.37382,38.152 -20.04989,54.1795 -9.27396,13.9227 -21.5301,26.2238 -35.23557,35.3648 -17.01308,11.3471 -35.38916,18.0546 -56.48854,20.6191 -4.13491,0.5026 -19.64968,0.7368 -23.94479,0.3615 z m 25.53229,-10.5582 c 2.86012,-0.3449 4.14033,-0.6916 4.42973,-1.1996 0.11026,-0.1936 1.62923,-0.6563 3.37548,-1.0283 4.48725,-0.9559 11.03693,-2.6967 12.3776,-3.2898 0.6241,-0.276 1.78539,-0.6548 2.58064,-0.8418 0.79526,-0.187 2.16319,-0.6616 3.03986,-1.0547 0.87664,-0.3931 1.94389,-0.8026 2.37164,-0.91 0.85326,-0.2141 2.57077,-0.9874 7.45681,-3.3573 1.77117,-0.859 3.34285,-1.5619 3.49258,-1.5619 0.14975,0 0.3675,-0.1488 0.48387,-0.3307 0.11636,-0.1819 1.28315,-0.8595 2.59283,-1.5056 1.30969,-0.6462 2.67891,-1.3971 3.04271,-1.6688 1.30178,-0.9721 3.04795,-2.0416 3.34105,-2.0463 0.16407,0 0.45628,-0.1952 0.64935,-0.4278 0.19309,-0.2327 1.1304,-0.9419 2.08293,-1.5762 2.736,-1.8219 3.90956,-2.6518 4.83737,-3.421 0.4748,-0.3936 1.81576,-1.4287 2.97993,-2.3002 2.35347,-1.7617 2.73507,-2.0894 6.85736,-5.889 11.98298,-11.0451 22.2648,-25.9625 28.29627,-41.054 1.49653,-3.7445 1.77524,-4.9933 1.16043,-5.1992 -0.2423,-0.081 0,-1.2718 0.9031,-4.4538 0.67861,-2.3887 1.44767,-5.2791 1.709,-6.4231 0.30631,-1.341 0.62,-2.1234 0.88284,-2.2019 0.91707,-0.2741 1.2093,-0.5814 1.36485,-1.4354 1.66616,-9.147 2.07386,-12.9 2.26753,-20.8733 0.33322,-13.7169 -1.48291,-25.8089 -5.86139,-39.026 -7.23435,-21.8379 -21.0833,-41.05 -39.69666,-55.0696 -2.18395,-1.6449 -7.68567,-5.3877 -7.91975,-5.3877 -0.0727,0 -0.86905,-0.4762 -1.76964,-1.0583 -0.90058,-0.5821 -1.7282,-1.0584 -1.83914,-1.0584 -0.11094,0 -1.10794,-0.5357 -2.21557,-1.1906 -1.10762,-0.6548 -2.09034,-1.1906 -2.18384,-1.1906 -0.0935,0 -0.35796,-0.1614 -0.5877,-0.3586 -0.22973,-0.1972 -1.31066,-0.7552 -2.40207,-1.24 -1.0914,-0.4847 -2.16297,-1.0173 -2.38125,-1.1836 -0.55083,-0.4194 -6.40038,-2.9762 -7.31864,-3.1989 -0.41315,-0.1002 -1.46553,-0.5147 -2.33865,-0.9211 -0.87313,-0.4064 -2.12328,-0.9137 -2.77813,-1.1274 -6.08983,-1.9865 -14.21579,-4.0478 -18.38854,-4.6647 -1.16416,-0.1721 -3.54541,-0.5474 -5.29167,-0.8341 -4.30937,-0.7074 -12.48362,-1.1173 -18.25625,-0.9155 -2.61937,0.092 -5.11968,0.2243 -5.55625,0.295 -1.63724,0.2649 -0.1498,-0.1638 3.13259,-0.9029 4.73414,-1.0659 4.95411,-1.4649 0.69583,-1.2624 -16.26367,0.7736 -36.5328,7.1084 -51.50422,16.0968 -4.88751,2.9343 -9.002,5.7336 -13.03533,8.8686 -1.4542,1.1303 -3.62442,2.9031 -3.8472,3.1427 -0.14552,0.1565 -0.97896,0.8705 -1.85209,1.5867 -0.87312,0.7162 -2.24234,1.9181 -3.0427,2.6709 -0.80037,0.7527 -1.78263,1.6249 -2.18282,1.9382 -0.40018,0.3132 -0.7276,0.7432 -0.7276,0.9555 0,0.2123 -0.20836,0.4599 -0.46302,0.5502 -0.70033,0.2483 -1.42306,0.9399 -1.67746,1.6051 -0.12523,0.3274 -0.4033,0.5953 -0.61796,0.5953 -0.21463,0 -0.50686,0.2084 -0.64937,0.463 -0.31549,0.5638 -1.26299,1.6546 -3.27239,3.7675 -0.83643,0.8795 -1.81758,2.0437 -2.18033,2.5869 -1.05801,1.5846 -1.81279,2.5238 -2.45041,3.0492 -0.32742,0.2698 -0.59531,0.5957 -0.59531,0.7242 0,0.2982 -1.21947,2.1008 -1.80359,2.666 -0.48352,0.4679 -1.50384,2.0636 -2.95891,4.6276 -0.50932,0.8975 -1.10464,1.8387 -1.32292,2.0917 -0.59795,0.6928 -2.57673,4.2639 -4.98462,8.9958 -1.15351,2.2668 -2.95288,6.2181 -2.95288,6.4843 0,0.1541 -0.29227,0.8569 -0.64948,1.5619 -0.35722,0.7049 -0.79337,1.8618 -0.96923,2.5708 -0.17586,0.7091 -0.54484,1.8201 -0.81995,2.4689 -1.14896,2.7095 -3.19048,10.2976 -4.16721,15.4891 -0.13689,0.7276 -0.42698,2.1564 -0.64464,3.175 -0.43679,2.0442 -0.81668,5.2924 -1.25325,10.7156 -0.32628,4.0534 -0.14396,18.4649 0.26779,21.1667 0.14415,0.9459 0.39977,2.8509 0.56804,4.2333 0.16827,1.3825 0.46449,3.2279 0.65826,4.1011 0.19378,0.8731 0.49648,2.3018 0.67268,3.175 0.3039,1.5059 1.46544,6.1776 2.10508,8.4666 0.59408,2.126 2.93747,8.9129 3.57584,10.3563 0.36084,0.816 0.65607,1.5859 0.65607,1.711 0,0.1251 0.36586,0.9735 0.81303,1.8853 0.44716,0.9118 1.04769,2.274 1.3345,3.0271 0.2868,0.753 0.80199,1.7825 1.14485,2.2878 0.34287,0.5052 0.7111,1.1949 0.8183,1.5327 0.1718,0.5413 1.47118,2.8388 4.62057,8.1699 2.71076,4.5886 6.43216,9.5786 11.82611,15.8574 1.59509,1.8568 6.06073,6.2784 9.08166,8.9923 1.52485,1.3698 3.01057,2.7545 3.30161,3.0772 0.29104,0.3226 1.12448,0.9832 1.85208,1.4681 0.72761,0.4849 2.15636,1.5841 3.175,2.4427 1.01865,0.8587 2.14974,1.6893 2.51354,1.8459 0.36381,0.1566 0.98129,0.5749 1.37219,0.9296 0.70487,0.6395 1.32225,1.0429 2.59656,1.6963 0.36381,0.1865 1.4949,0.8756 2.51354,1.5313 2.5526,1.6429 2.7517,1.7587 4.09179,2.3799 0.64976,0.3011 1.24507,0.6363 1.32291,0.7448 0.21223,0.2959 5.3694,2.7855 8.05299,3.8876 1.29538,0.532 2.54553,1.0805 2.77813,1.2189 0.23262,0.1384 1.91122,0.7928 3.73023,1.4542 1.81901,0.6614 3.78354,1.3818 4.36562,1.6009 0.58209,0.219 1.9513,0.6303 3.04271,0.9139 3.68657,0.958 10.17715,2.5331 11.64167,2.8252 9.98744,1.9921 14.81545,2.4268 25.66458,2.3109 4.58391,-0.049 9.46547,-0.2255 10.84792,-0.3923 z m -101.33542,-28.1462 c 0,-0.047 -0.32742,-0.3749 -0.72761,-0.7276 l -0.7276,-0.6415 0.64143,0.7276 c 0.59952,0.6801 0.81378,0.849 0.81378,0.6415 z m -4.23333,-4.498 c 0,-0.047 -0.32743,-0.3748 -0.72761,-0.7276 l -0.7276,-0.6414 0.64143,0.7276 c 0.59952,0.6801 0.81378,0.8489 0.81378,0.6414 z m 0.66145,38.7465 c -1.87912,-0.6804 -4.02531,-1.8075 -4.67069,-2.4529 l -0.55157,-0.5515 3.93073,-3.9373 c 2.16191,-2.1656 4.12284,-3.9373 4.3576,-3.9373 0.23477,0 1.30784,0.6275 2.38456,1.3946 1.07675,0.767 2.58279,1.7914 3.34677,2.2765 0.76398,0.4851 1.38906,1.0247 1.38906,1.1992 0,0.1744 -1.41002,1.7098 -3.13338,3.412 l -3.13335,3.0947 -1.29842,-0.01 c -0.71411,-0.01 -1.8937,-0.2251 -2.62131,-0.4885 z m -17.90687,-12.8401 c -4.24494,-3.6237 -8.97873,-10.3163 -10.57267,-14.9475 -0.89857,-2.6109 -0.86603,-2.6866 2.71656,-6.3236 l 3.20739,-3.2561 0.66097,0.6103 c 0.36353,0.3356 3.11682,3.3853 6.11842,6.777 3.0016,3.3916 6.14206,6.9396 6.97881,7.8842 0.83674,0.9447 1.52135,1.862 1.52135,2.0385 0,0.4098 -8.23728,8.6491 -8.64695,8.6491 -0.16861,0 -1.06135,-0.6443 -1.98388,-1.4319 z"
           style="fill:#cdcdcd;stroke-width:0.26458335" />
        <path
           inkscape:connector-curvature="0"
           id="path1113"
           d="m 38.801771,1665.7527 c -7.215153,-1.4053 -16.615979,-7.5333 -25.026989,-16.314 -8.8090746,-9.1963 -13.68282395,-17.9034 -13.77419542342,-24.6079 l -0.0303397766,-2.2263 1.5481036,-1.5644 c 0.8514583,-0.8604 1.6713174,-1.5644 1.821913,-1.5644 0.1505955,0 39.2625066,-38.9899 86.9153586,-86.6443 l 86.641548,-86.6442 1.35789,-0.2819 c 1.07637,-0.2235 1.7892,-0.1928 3.43834,0.1478 2.10161,0.4341 3.55525,1.0106 3.55525,1.4099 0,0.3182 -3.08465,3.2085 -3.42422,3.2085 -0.15868,0 -0.48879,0.42 -0.73359,0.9334 -2.06101,4.322 7.42017,18.2309 18.8092,27.5931 2.93903,2.416 9.65404,5.5695 12.30423,5.7784 2.51161,0.1979 3.81921,-0.9558 1.42989,-1.2617 -1.30465,-0.167 -3.35159,-0.9514 -5.2752,-2.0215 -2.1242,-1.1817 -2.2002,-0.9973 2.24175,-5.4393 l 4.01522,-4.0152 1.25751,0.4928 c 3.72509,1.4599 5.59375,2.0062 6.8799,2.0115 0.92156,0 1.38906,0.1154 1.38906,0.3318 0,0.1794 -1.20116,1.5315 -2.66926,3.0046 l -2.66927,2.6784 0.39892,1.175 c 0.2194,0.6462 0.5316,1.9066 0.69376,2.8009 0.26808,1.4784 0.24385,1.9976 -0.16989,3.6409 -0.0733,0.2911 -39.08494,39.5446 -86.69259,87.2302 -47.607663,47.6855 -87.28996,87.5034 -88.182892,88.4841 -1.622247,1.7817 -1.624713,1.7831 -3.175,1.8522 -0.853318,0.038 -2.146803,-0.047 -2.874407,-0.1884 z M 219.91874,1471.7921 c -1.11118,-0.3188 -2.44949,-1.2334 -2.32987,-1.5923 0.0478,-0.1435 4.31015,-4.4886 9.47181,-9.6558 l 9.38485,-9.395 -0.91695,-0.7018 c -0.50431,-0.3859 -1.27075,-1.0127 -1.70318,-1.3928 l -0.78624,-0.6911 1.41083,-1.4917 c 0.77596,-0.8205 1.54778,-1.4918 1.71515,-1.4918 0.16737,0 1.54908,0.6309 3.07047,1.4019 1.52138,0.771 3.39125,1.6574 4.15523,1.9697 0.76399,0.3123 1.38907,0.7252 1.38907,0.9175 0,0.1923 -4.97417,5.3186 -11.05369,11.3917 -10.43148,10.4206 -11.1054,11.0408 -11.9724,11.0183 -0.50529,-0.013 -1.33108,-0.1422 -1.83508,-0.2868 z m -27.44352,-2.7265 c -5.2943,-5.3914 -9.16606,-11.6285 -9.5194,-15.3348 l -0.1277,-1.3395 3.75885,-3.7703 c 2.06737,-2.0737 3.84026,-3.7703 3.93974,-3.7703 0.0995,0 0.53021,0.7385 0.95715,1.6412 1.72918,3.656 4.40322,7.4403 9.82764,13.9082 1.49741,1.7854 2.72257,3.3347 2.72257,3.4429 0,0.4595 -7.84549,7.9952 -8.32389,7.9952 -0.30084,0 -1.63602,-1.1444 -3.23496,-2.7726 z m 13.25219,-7.7697 c -1.85373,-1.3523 -6.32496,-6.2459 -8.01401,-8.771 -1.90899,-2.854 -2.73756,-4.4142 -3.23245,-6.0867 -0.19377,-0.6549 -0.61773,-1.5851 -0.94214,-2.0673 -0.61453,-0.9133 -1.05269,-2.9267 -0.78739,-3.618 0.18223,-0.4749 2.0392,-0.5513 2.8502,-0.1172 0.50267,0.269 0.47587,0.3401 -0.54656,1.4493 -1.04506,1.1337 -1.30999,1.9856 -0.84538,2.7184 0.15964,0.2518 2.74985,-2.1793 9.25636,-8.6876 7.64228,-7.6444 9.0347,-9.1534 9.0347,-9.7912 0,-0.4147 0.11866,-1.0662 0.2637,-1.4476 0.32367,-0.8514 2.85941,-3.5742 3.32856,-3.5742 0.18728,0 0.77929,0.861 1.31559,1.9133 2.45688,4.8209 6.34225,9.8019 12.8793,16.5111 2.00426,2.057 3.6441,3.8467 3.6441,3.977 0,0.1303 -0.72113,0.9476 -1.60251,1.8162 l -1.60251,1.5792 -2.6241,-1.389 c -1.44325,-0.764 -2.78768,-1.3891 -2.98762,-1.3891 -0.19994,0 -4.34039,3.9866 -9.201,8.8591 -4.86061,4.8725 -8.9089,8.8611 -8.99621,8.8635 -0.0873,0 -0.62309,-0.3342 -1.19063,-0.7482 z m 120.67646,-8.7832 c -26.0418,-2.2754 -49.71722,-11.7423 -69.58542,-27.8246 -5.54019,-4.4845 -13.62766,-12.4772 -18.0162,-17.8051 -22.43633,-27.2388 -32.46212,-62.4048 -27.86912,-97.7526 4.74237,-36.4973 25.309,-69.1485 56.41013,-89.5556 16.55924,-10.8654 35.28144,-17.5411 55.75332,-19.8797 5.06899,-0.579 16.63043,-0.7884 21.96724,-0.3978 31.70431,2.3207 59.85198,15.3693 82.02523,38.0251 19.86828,20.3007 31.9614,45.8712 35.33151,74.7074 0.91836,7.8582 0.78094,21.6775 -0.2979,29.958 -2.57828,19.7889 -9.37382,38.152 -20.04989,54.1795 -9.27396,13.9227 -21.5301,26.2238 -35.23557,35.3648 -17.01308,11.3471 -35.38916,18.0546 -56.48854,20.6191 -4.13491,0.5026 -19.64968,0.7368 -23.94479,0.3615 z m 21.29896,-4.075 c 15.88034,-1.4696 29.85397,-5.4379 44.13043,-12.5325 5.20793,-2.588 7.34378,-3.8157 12.65048,-7.2717 13.15929,-8.57 25.87945,-21.2156 34.78657,-34.5828 9.93431,-14.9087 16.51799,-31.9394 19.28021,-49.874 1.58978,-10.3221 1.74072,-23.437 0.39135,-33.9989 -4.50673,-35.2752 -24.13167,-67.0498 -53.55987,-86.7186 -29.35111,-19.6173 -65.27332,-25.7569 -99.38248,-16.9858 -47.63958,12.2505 -83.58364,51.9655 -90.97574,100.5202 -1.06214,6.9766 -1.3189,10.6204 -1.32436,18.7946 -0.005,7.9768 0.2333,11.536 1.20626,17.9916 2.76129,18.3214 9.41181,35.6247 19.32151,50.2709 3.07902,4.5507 3.38808,4.9815 5.41768,7.552 16.75707,21.2229 38.83581,35.9049 64.66629,43.0022 6.54209,1.7975 13.01792,2.9564 21.96042,3.9299 3.44908,0.3754 16.98802,0.3141 21.43125,-0.097 z m -100.67397,-0.3809 c -1.87912,-0.6804 -4.02531,-1.8075 -4.67069,-2.4529 l -0.55157,-0.5515 3.93073,-3.9373 c 2.16191,-2.1656 4.12284,-3.9373 4.3576,-3.9373 0.23477,0 1.30784,0.6275 2.38456,1.3946 1.07675,0.767 2.58279,1.7914 3.34677,2.2765 0.76398,0.4851 1.38906,1.0247 1.38906,1.1992 0,0.1744 -1.41002,1.7098 -3.13338,3.412 l -3.13335,3.0947 -1.29842,-0.01 c -0.71411,-0.01 -1.8937,-0.2251 -2.62131,-0.4885 z m -17.90687,-12.8401 c -4.24494,-3.6237 -8.97873,-10.3163 -10.57267,-14.9475 -0.89857,-2.6109 -0.86603,-2.6866 2.71656,-6.3236 l 3.20739,-3.2561 0.66097,0.6103 c 0.36353,0.3356 3.11682,3.3853 6.11842,6.777 3.0016,3.3916 6.14206,6.9396 6.97881,7.8842 0.83674,0.9447 1.52135,1.862 1.52135,2.0385 0,0.4098 -8.23728,8.6491 -8.64695,8.6491 -0.16861,0 -1.06135,-0.6443 -1.98388,-1.4319 z"
           style="fill:#979797;stroke-width:0.26458335" />
        <path
           inkscape:connector-curvature="0"
           id="path1111"
           d="m 37.477113,1665.2623 c -6.968265,-1.8279 -15.165097,-7.3305 -23.208695,-15.5803 -8.7266571,-8.9503 -13.70899171,-17.5451 -14.15418547,-24.4168 l -0.15241826,-2.3525 1.69289443,-1.5778 c 0.9310926,-0.8678 40.7125583,-40.5448 88.4032593,-88.1711 54.573732,-54.5001 87.031592,-86.7272 87.577092,-86.9545 1.53328,-0.639 7.08443,0.2456 7.08443,1.1289 0,0.1927 -0.87915,1.1803 -1.95365,2.1945 -1.3185,1.2446 -2.0131,2.1149 -2.13653,2.6768 -0.45158,2.0561 1.25782,6.475 4.2098,10.8826 2.56877,3.8355 4.87995,6.5826 9.62563,11.4409 4.46546,4.5714 4.66916,4.898 3.60596,5.7803 -0.65408,0.5429 -0.44271,1.5053 0.54823,2.4963 0.51418,0.5141 1.11242,0.9348 1.32943,0.9348 0.21701,0 0.71819,-0.5358 1.11374,-1.1906 0.39553,-0.6548 0.85623,-1.1906 1.02376,-1.1906 0.16753,0 1.75787,0.7044 3.53408,1.5655 3.51725,1.7049 6.38463,2.5552 7.75199,2.2987 1.77698,-0.3334 2.82163,-1.7347 1.31162,-1.7595 -0.40018,-0.01 -1.05806,-0.1554 -1.46194,-0.3307 l -0.73434,-0.3188 3.84677,-3.8365 3.84678,-3.8364 1.71621,-0.01 c 0.98372,0 1.71621,0.1067 1.71621,0.2598 0,0.147 -1.12493,1.4004 -2.49984,2.7855 l -2.49983,2.5182 0.54084,1.5872 c 0.29746,0.8729 0.59987,2.4207 0.67204,3.4396 0.11297,1.595 0.0451,2.0093 -0.4884,2.9814 -0.39274,0.7157 -32.82728,33.3385 -88.58403,89.0985 l -87.964417,87.9695 -1.729333,-0.015 c -0.951132,-0.01 -2.563553,-0.2334 -3.583157,-0.5008 z m 81.619167,-92.2145 c 54.34097,-54.3411 85.22764,-85.4118 85.06339,-85.5702 -0.65569,-0.6321 -3.18311,-2.4103 -3.42593,-2.4103 -0.14952,0 -38.70382,38.4322 -85.67622,85.4047 l -85.404366,85.4047 0.605557,0.5465 c 0.722455,0.6521 2.877262,1.9402 3.251547,1.9437 0.145605,0 38.659315,-38.3922 85.586022,-85.3191 z M 230.87731,1461.796 c 8.14359,-8.1458 9.68884,-9.8072 9.25908,-9.9547 -1.47292,-0.5058 -3.29399,-1.4394 -3.29399,-1.6888 0,-0.5283 2.47164,-2.6776 2.89918,-2.521 2.29047,0.839 4.76308,1.8807 4.76784,2.0087 0.003,0.088 -4.89413,5.0584 -10.88303,11.0463 -9.64304,9.6414 -10.98248,10.8871 -11.70648,10.8871 -0.75206,0 -0.0347,-0.783 8.9574,-9.7776 z m -40.47898,4.2875 c -1.97181,-1.9783 -3.61165,-4.7356 -3.03013,-5.095 0.15695,-0.097 1.92488,-1.8018 3.92873,-3.7885 l 3.64335,-3.612 0.80536,0.8568 c 1.13335,1.2059 2.96013,3.5905 3.39548,4.4324 0.36363,0.7032 0.33195,0.7447 -3.49529,4.5863 -2.12424,2.1322 -3.89209,3.8768 -3.92855,3.8768 -0.0365,0 -0.63,-0.5656 -1.31895,-1.2568 z m 10.53218,-10.2018 c -1.31878,-1.3944 -2.18811,-2.7503 -2.18811,-3.4126 0,-0.19 3.92907,-4.2731 8.73125,-9.0736 4.80219,-4.8006 8.73125,-8.9207 8.73125,-9.1558 0,-0.2351 -0.48069,-1.468 -1.06821,-2.7397 -1.22005,-2.6408 -1.93189,-5.3592 -1.68251,-6.4254 0.15889,-0.6793 2.10259,-2.9781 2.51807,-2.9781 0.10249,0 0.72017,0.9255 1.37263,2.0567 1.95592,3.391 5.40674,7.8675 10.29341,13.353 1.1332,1.2721 2.06036,2.4662 2.06036,2.6535 0,0.1873 -0.74414,1.0764 -1.65364,1.9756 l -1.65365,1.635 -0.81506,-0.3972 c -0.44829,-0.2184 -1.68529,-1.1064 -2.7489,-1.9733 -1.0636,-0.8669 -2.09607,-1.5762 -2.29435,-1.5762 -0.1983,0 -4.27479,3.9291 -9.05888,8.7312 -4.78409,4.8022 -8.81468,8.7313 -8.95688,8.7313 -0.1422,0 -0.85625,-0.632 -1.58678,-1.4044 z m 126.66398,-3.801 c -22.94493,-1.6558 -45.48026,-9.689 -63.98387,-22.8083 -26.07056,-18.4845 -44.30083,-46.232 -50.6992,-77.1671 -1.90842,-9.227 -2.60404,-16.078 -2.61839,-25.788 -0.0146,-9.8707 0.58644,-16.28 2.35701,-25.1354 7.10731,-35.5467 28.69732,-65.8585 60.09521,-84.372 3.97542,-2.3441 12.88273,-6.6921 17.14612,-8.3696 23.41943,-9.2151 49.53399,-11.2595 74.14416,-5.8046 29.02424,6.4333 54.90327,23.0569 73.06898,46.9363 12.71426,16.7134 21.18288,36.8251 24.22686,57.5352 1.02513,6.9744 1.32363,11.2634 1.31869,18.9456 -0.009,13.6625 -1.80819,25.4739 -5.84452,38.3645 -11.27786,36.0175 -39.31311,65.8166 -74.78321,79.4882 -11.1324,4.2908 -23.24725,7.0477 -35.51013,8.0806 -2.86718,0.2415 -15.97334,0.307 -18.91771,0.095 z m 19.57917,-1.0126 c 12.40473,-1.1225 23.9649,-3.8248 35.32188,-8.257 3.79211,-1.4799 14.75814,-6.7682 17.28012,-8.3333 17.01242,-10.5571 28.52116,-21.1107 39.03993,-35.7999 6.4488,-9.0056 12.44079,-20.579 16.0282,-30.9582 3.14772,-9.107 4.91014,-16.5149 6.08438,-25.5741 6.02782,-46.504 -14.361,-92.4447 -52.90034,-119.1966 -14.27861,-9.9114 -31.25817,-17.0276 -48.15417,-20.1815 -9.15636,-1.7092 -12.19835,-1.973 -22.88646,-1.9845 -10.50504,-0.011 -13.43374,0.2048 -21.69583,1.6003 -5.78171,0.9766 -17.41282,3.9433 -20.10834,5.129 -0.29104,0.1281 -1.77932,0.7068 -3.30729,1.2862 -18.51443,7.0199 -35.41477,18.5778 -48.42452,33.1168 -17.68617,19.765 -28.01246,42.3417 -31.46445,68.7916 -0.58241,4.4625 -1.06156,14.282 -0.92311,18.9177 0.69217,23.1756 7.75826,45.7002 20.41202,65.0674 16.64451,25.4753 42.36545,44.2624 71.58863,52.2899 7.30544,2.0068 16.37379,3.6309 23.33956,4.18 4.90468,0.3866 16.01491,0.3364 20.76979,-0.094 z m -98.4054,-3.01 c -0.35301,-0.099 -0.68088,-0.2964 -0.72858,-0.4396 -0.0477,-0.1431 1.39909,-1.7425 3.21516,-3.5542 l 3.3019,-3.294 1.20586,0.5858 c 1.00312,0.4874 1.16361,0.6636 0.95464,1.0481 -0.13816,0.2541 -1.4941,1.6825 -3.0132,3.1741 -2.88576,2.8335 -3.16617,2.9744 -4.93578,2.4798 z m -23.36323,-17.4288 c -0.67707,-0.6912 -1.65695,-1.9676 -2.17752,-2.8364 l -0.94648,-1.5796 3.90394,-3.9105 c 2.14717,-2.1507 4.04189,-3.9105 4.21049,-3.9105 0.37956,0 4.06743,3.896 4.55167,4.8085 0.34474,0.6496 0.25118,0.7679 -3.69839,4.6759 -2.22864,2.2052 -4.17822,4.0094 -4.33238,4.0094 -0.15417,0 -0.83427,-0.5656 -1.51133,-1.2568 z"
           style="fill:#7e7e7e;stroke-width:0.26458335" />
        <path
           inkscape:connector-curvature="0"
           id="path1109"
           d="m 38.404896,1665.3669 c -6.773595,-1.4525 -15.30108,-6.9413 -23.415626,-15.0719 -5.6792549,-5.6904 -9.5775651,-10.8903 -12.0139888,-16.0253 -1.9134233,-4.0328 -2.43699036,-5.8036 -2.60082116,-8.7964 l -0.14240061,-2.6014 1.54949057,-1.5658 c 0.8522177,-0.8612 1.6737648,-1.5658 1.8256595,-1.5658 0.1518946,0 39.2676525,-38.9974 86.9239105,-86.6609 51.11228,-51.12 86.91902,-86.7366 87.3092,-86.8456 1.54589,-0.4316 6.3245,0.3147 6.78492,1.0597 0.18063,0.2923 -1.82094,2.4227 -2.85977,3.0439 -2.50728,1.4992 -1.29344,6.535 3.17708,13.1805 2.16227,3.2142 4.43605,5.9859 8.08483,9.855 1.68805,1.7901 3.06875,3.3974 3.0682,3.5719 -5.3e-4,0.1745 -0.24334,0.7148 -0.53955,1.2007 -0.63496,1.0415 -0.53994,1.4597 0.6803,2.9947 0.50239,0.6319 0.91459,1.2678 0.916,1.4131 0.001,0.1452 -38.42485,38.698 -85.3917,85.673 l -85.394276,85.4089 1.591802,1.5072 c 2.476762,2.3452 6.928713,4.8145 8.679911,4.8145 0.457658,0 21.749433,-21.1454 85.788313,-85.1987 46.84876,-46.8594 85.2174,-85.2452 85.26364,-85.302 0.0462,-0.057 -0.72766,-0.6744 -1.71979,-1.3724 -2.29165,-1.6125 -3.33601,-2.4578 -3.60198,-2.9153 -0.18734,-0.3222 0.96685,-2.747 1.30758,-2.747 0.0663,0 1.21589,0.4644 2.55454,1.032 4.44696,1.8857 6.79562,2.3045 8.36654,1.4921 0.80552,-0.4165 1.15037,-1.189 0.78892,-1.7672 -0.16181,-0.2588 0.79438,-1.3824 3.40232,-3.998 1.99505,-2.0009 3.80508,-3.6381 4.02228,-3.6381 0.21719,0 -0.66958,1.0695 -1.97061,2.3766 l -2.36551,2.3765 0.32528,1.1292 c 1.10029,3.8197 1.23774,5.7339 0.51806,7.2146 -0.14145,0.2911 -39.14851,39.4787 -86.68236,87.0836 -47.533852,47.6049 -86.901435,87.1221 -87.483519,87.8159 -1.933683,2.3048 -3.078138,2.6149 -6.746875,1.8282 z m 53.247245,-120.702 c 68.205379,-68.2051 85.129849,-85.2618 85.129849,-85.7951 0,-0.6135 -0.8182,-2.4615 -1.33137,-3.0071 -0.1209,-0.1285 -38.37955,37.9269 -85.45585,85.0019 l -85.2369458,85.2347 0.1847533,1.12 c 0.2043906,1.239 0.8821314,2.5751 1.3061897,2.5751 0.1504395,0 38.5819588,-38.3082 85.4033738,-85.1295 z M 241.0678,1451.3234 c -0.28223,-0.34 -0.2146,-0.5345 0.41397,-1.1906 0.77179,-0.8056 1.75919,-1.0076 2.50439,-0.5124 0.33062,0.2198 0.2319,0.4178 -0.59143,1.1866 -1.0677,0.997 -1.79427,1.1582 -2.32693,0.5164 z m 12.10382,-6.5271 c 1.63062,-1.6306 3.05271,-2.8769 3.16015,-2.7695 0.25832,0.2584 -5.20861,5.7343 -5.72484,5.7343 -0.22005,0 0.93403,-1.3342 2.56469,-2.9648 z m -31.2928,-5.1752 c -2.81819,-2.3718 -4.60122,-4.7058 -5.67346,-7.4265 -0.3473,-0.8812 -0.3461,-0.8836 1.26936,-2.4991 1.60318,-1.6032 1.62169,-1.6127 2.16743,-1.1188 0.57415,0.5196 5.56242,6.5469 6.58441,7.956 l 0.58759,0.8101 -1.68122,1.801 -1.68123,1.801 z"
           style="fill:#606060;stroke-width:0.26458335" />
        <path
           inkscape:connector-curvature="0"
           id="path1107"
           d="m 39.198646,1665.3307 c -1.331627,-0.2224 -3.611409,-0.9352 -5.159375,-1.6133 -2.705423,-1.185 -9.910599,-5.7289 -12.964044,-8.1756 -5.512631,-4.4173 -11.4184913,-10.7494 -14.7601816,-15.8255 -3.207319,-4.8719 -5.59638756,-10.723 -5.91438976,-14.485 l -0.16949632,-2.0052 1.39816528,-1.4783 c 0.7689877,-0.8131 1.4999547,-1.4784 1.6243671,-1.4784 0.1244124,0 0.2262029,0.8485 0.2262029,1.8855 0,3.0064 0.8770964,6.1829 2.4147728,8.7453 0.7266411,1.2108 1.7282029,2.6778 2.225691,3.2599 l 0.9045258,1.0583 85.4658288,-85.4604 c 47.006207,-47.0033 85.465927,-85.6111 85.466047,-85.7952 1.3e-4,-0.1842 -0.71658,-1.7648 -1.59267,-3.5125 -3.02088,-6.0262 -4.13155,-9.6827 -3.44481,-11.3406 0.55588,-1.3421 2.17191,-2.6061 3.60684,-2.8213 1.3492,-0.2023 5.00798,0.4378 5.51702,0.9652 0.19895,0.2061 -0.22259,0.7593 -1.46313,1.9199 -0.95842,0.8967 -1.88116,1.8904 -2.05052,2.2082 -1.12176,2.1054 0.58842,6.9038 4.65996,13.075 2.65053,4.0174 2.54149,3.7198 1.86949,5.103 l -0.57622,1.186 0.67649,0.8869 c 0.37207,0.4878 1.65615,2.0136 2.8535,3.3905 1.19736,1.377 2.30458,2.7788 2.46048,3.1151 0.26599,0.5738 -4.97917,5.8741 -85.12393,86.0192 -72.00168,72.0019 -85.380128,85.4936 -85.23367,85.955 0.269473,0.8491 6.150155,6.3607 8.204547,7.6896 3.169097,2.0501 8.526748,4.007 10.970382,4.007 0.910447,0 4.403516,-3.4545 86.211851,-85.2614 46.89462,-46.8938 85.25909,-85.3212 85.25438,-85.3943 -0.005,-0.073 -1.40375,-0.8097 -3.10896,-1.6369 -1.70521,-0.8273 -3.41728,-1.8393 -3.80459,-2.249 l -0.70421,-0.7448 0.53524,-1.1245 c 0.3222,-0.6769 0.71561,-1.1245 0.98841,-1.1245 0.24925,0 1.44764,0.2977 2.6631,0.6615 3.62873,1.0861 5.73592,0.7579 6.48318,-1.0098 0.19584,-0.4633 0.83845,-1.3102 1.42802,-1.882 l 1.07194,-1.0397 0.40218,0.9625 c 0.74379,1.7802 1.07206,4.5015 0.69816,5.7878 -0.29965,1.0308 -9.30548,10.1361 -86.97315,87.9332 -47.651391,47.7309 -87.27262,87.468 -88.047174,88.3047 l -1.408285,1.5214 -1.560253,-0.036 c -0.858139,-0.02 -1.85791,-0.086 -2.221712,-0.1465 z"
           style="fill:#292929;stroke-width:0.26458335" />
      </g>
      <path
         sodipodi:nodetypes="ccsccccccccccccccccccssccccccccsccscccscccssccccsscccsccccccc"
         inkscape:connector-curvature="0"
         id="path1010-7-3"
         d="m 439.71003,119.48641 c 1.09245,-0.52884 1.31464,-0.54845 2.90142,-0.25608 0.9451,0.17414 1.76579,0.2692 1.82376,0.21123 0.058,-0.058 -0.35741,-0.42611 -0.92306,-0.81811 -2.33049,-1.65777 -4.54418,-6.82433 -4.66845,-9.31098 l 1.92902,-5.72663 c -4.76822,3.1504 -1.94826,11.19293 -1.94826,11.19293 -7.61718,2.6727 -11.28557,0.11943 -13.66372,0.47853 -0.86861,1.01815 -0.23612,2.23125 -0.5811,3.01005 0.98045,0.62691 -0.24012,0.69566 -0.96509,1.47382 -0.53712,0.57653 -0.62543,0.58259 -7.47448,0.51291 l -6.93094,-0.0705 -0.0843,-0.87883 c 0.13274,-4.91063 5.62019,-2.9108 6.29364,-2.79687 3.588,-1.60171 3.66087,-2.33498 2.51802,-4.46629 -2.77753,-4.95349 -14.5104,-2.27722 -17.45857,-5.00785 -0.43656,-0.42992 -1.21046,-1.04461 -1.71979,-1.36597 -1.10441,-0.69686 -1.82191,-2.03678 -1.83937,-3.43503 -0.0233,-1.8669 0.0696,-1.95526 7.35665,-6.996967 2.05032,-1.41855 8.07702,-4.51187 9.8947,-5.07865 l 0.99219,-0.30937 v -2.17285 c 0,-3.50749 0.93112,-6.25278 2.12075,-6.25278 0.55125,0 2.3363,1.16307 2.98189,1.94289 0.85727,1.0355 1.72374,2.94843 1.91589,4.22976 l 0.18916,1.26143 1.88626,-0.16795 c 3.59795,-0.32035 6.55562,-1.30201 11.91617,-3.955 5.93437,-2.93697 7.94096,-3.48117 11.9212,-3.2331 4.49968,0.28045 8.21897,1.9007 12.27168,5.34593 1.05249,0.89473 3.10813,3.62737 3.87986,5.15763 1.18399,2.34777 1.74442,4.65077 1.8676,7.67466 l 0.11316,2.778127 3.37392,0.18565 c 7.64523,0.42069 10.95331,1.85644 11.36597,4.93297 0.24942,1.85965 -0.31973,2.85734 -3.46919,6.08109 l -2.93537,3.00463 0.78749,0.62843 c 2.12658,1.69707 9.45637,3.29118 15.13295,3.29118 0.79451,0 1.67486,0.12326 1.95634,0.2739 0.673,0.36018 0.66973,1.61781 -0.006,2.22916 -0.46669,0.42235 -0.91538,0.4513 -4.56406,0.29444 -12.7546,-0.5483 -17.00124,-1.78445 -18.36089,-5.34463 -0.81512,-2.13436 0.0192,-3.87113 3.4752,-7.23377 1.95723,-1.90439 2.00645,-1.98213 1.36367,-2.15403 -1.32586,-0.35459 -6.17018,-0.80879 -7.6983,-0.72178 l -1.5634,0.089 -0.46792,1.37998 c -1.0443,3.07983 -2.3827,5.14898 -5.05926,7.82159 -2.27941,2.27604 -2.59081,2.69692 -2.59081,3.50155 0,0.6364 -0.23467,1.17739 -0.77152,1.77864 l -0.77152,0.86407 -5.43119,0.0811 c -4.4436,0.1107 -10.24407,0.7749 -12.08585,-0.22193 -1.32313,-0.71612 0.26979,-2.96848 1.80365,-3.73133 z m -26.68335,-18.07844 c 0.84977,-0.43944 1.07725,-0.88061 1.07725,-2.089217 0,-1.15576 -0.63543,-1.96793 -1.69525,-2.16675 -2.42748,-0.4554 -3.77834,2.12059 -2.02926,3.869657 0.8619,0.86191 1.53703,0.96043 2.64726,0.38631 z"
         style="opacity:1;fill:#999999;stroke-width:0.26458332" />
    </g>
  </g>
</svg>
