<?xml version="1.0" encoding="UTF-8" standalone="no"?>
<!-- Created with Inkscape (http://www.inkscape.org/) -->

<svg
   xmlns:dc="http://purl.org/dc/elements/1.1/"
   xmlns:cc="http://creativecommons.org/ns#"
   xmlns:rdf="http://www.w3.org/1999/02/22-rdf-syntax-ns#"
   xmlns:svg="http://www.w3.org/2000/svg"
   xmlns="http://www.w3.org/2000/svg"
   xmlns:sodipodi="http://sodipodi.sourceforge.net/DTD/sodipodi-0.dtd"
   xmlns:inkscape="http://www.inkscape.org/namespaces/inkscape"
   width="8.467mm"
   height="7.368mm"
   viewBox="0 0 8.467 7.368"
   version="1.1"
   id="svg1219"
   inkscape:version="0.92.4 (5da689c313, 2019-01-14)"
   sodipodi:docname="seisdias.svg">
  <defs
     id="defs1213" />
  <sodipodi:namedview
     id="base"
     pagecolor="#ffffff"
     bordercolor="#666666"
     borderopacity="1.0"
     inkscape:pageopacity="0.0"
     inkscape:pageshadow="2"
     inkscape:zoom="28.081456"
     inkscape:cx="-1.2033363"
     inkscape:cy="16.03543"
     inkscape:document-units="mm"
     inkscape:current-layer="layer1"
     showgrid="false"
     inkscape:window-width="1850"
     inkscape:window-height="1009"
     inkscape:window-x="70"
     inkscape:window-y="34"
     inkscape:window-maximized="1" />
  <metadata
     id="metadata1216">
    <rdf:RDF>
      <cc:Work
         rdf:about="">
        <dc:format>image/svg+xml</dc:format>
        <dc:type
           rdf:resource="http://purl.org/dc/dcmitype/StillImage" />
        <dc:title />
      </cc:Work>
    </rdf:RDF>
  </metadata>
  <g
     inkscape:label="Camada 1"
     inkscape:groupmode="layer"
     id="layer1"
     transform="translate(0,-289.632)">
    <g
       id="g1182"
       transform="matrix(0.08785191,0,0,0.08785191,-1.1683114,285.92831)"
       style="opacity:1"
       inkscape:export-xdpi="96"
       inkscape:export-ydpi="96">
      <g
         transform="matrix(0.16468249,0,0,0.16468249,49.672181,-116.60454)"
         id="g1145">
        <path
           inkscape:connector-curvature="0"
           id="path1157"
           d="m -201.51384,1201.6224 c -5.45729,-0.916 -10.52698,-3.8414 -14.08302,-8.1266 -1.70213,-2.0511 -3.81498,-6.22 -4.52403,-8.9265 -0.46605,-1.7789 -0.48522,-5.4577 -0.48522,-93.1333 v -91.2812 l 0.60259,-2.2039 c 2.07154,-7.57635 7.67939,-13.45615 15.14012,-15.87434 2.93607,-0.95164 4.86743,-1.10003 14.34434,-1.1021 8.8112,-0.002 9.19611,0.0188 9.45885,0.50978 0.15355,0.2869 0.27389,2.23887 0.27389,4.44233 0,4.3658 0.30066,5.99043 1.57625,8.51736 0.95665,1.89511 3.2546,4.43392 5.0645,5.59537 7.19363,4.6161 17.00155,2.0397 20.95655,-5.50501 1.35342,-2.58186 1.76131,-4.71261 1.76686,-9.22995 0.003,-2.81918 0.0928,-3.81111 0.36342,-4.03571 0.26332,-0.21854 11.51295,-0.27998 42.26719,-0.23083 l 41.908363,0.067 0.166267,4.49792 c 0.115784,3.13226 0.305564,4.93974 0.625059,5.95312 1.530702,4.85508 5.022192,8.52496 9.609328,10.10026 2.332451,0.801 6.587112,0.8572 8.781638,0.1161 3.563636,-1.2036 6.751894,-3.63204 8.334296,-6.34826 1.720628,-2.95349 2.059159,-4.39949 2.189123,-9.35058 0.08832,-3.36486 0.212235,-4.63331 0.473815,-4.8504 0.250354,-0.20778 2.937389,-0.26035 9.164427,-0.17931 10.070941,0.13106 10.878116,0.26063 15.160215,2.43355 5.8320622,2.95943 10.0061845,8.09438 11.83635511,14.56093 l 0.59906166,2.11667 0.06880754,90.2229 c 0.0608092,79.7365 0.0220663,90.4938 -0.33335913,92.5534 -1.60659238,9.3098 -8.63044398,16.5383 -17.93620518,18.4586 -2.367854,0.4887 -4.976193,0.5021 -92.262791,0.4753 -49.40432,-0.015 -90.40233,-0.1244 -91.10669,-0.2426 z m 181.329612,-8.9101 c 5.131054,-1.7552 9.322454,-5.9404 11.0491857,-11.0326 l 0.7247732,-2.1374 0.068474,-73.392 c 0.050665,-54.3049 -0.00937,-73.4858 -0.2308358,-73.7526 -0.2517325,-0.3033 -16.3977031,-0.3606 -101.5806891,-0.3606 -55.70476,0 -101.46972,0.072 -101.6999,0.1606 -0.38023,0.1459 -0.41851,6.8458 -0.41851,73.2472 0,71.3613 0.0121,73.1339 0.51114,75.0852 1.55738,6.0893 6.20364,10.7836 12.24223,12.3688 1.88604,0.4951 3.97616,0.5056 89.77267,0.4543 l 87.841671,-0.053 z m -180.657502,-16.2657 c -0.45521,-0.4552 -0.45521,-19.0181 0,-19.4733 0.23543,-0.2354 2.83191,-0.3175 10.04486,-0.3175 9.46177,0 9.7351,0.014 10.01101,0.53 0.19065,0.3563 0.25877,3.5693 0.20775,9.7995 -0.0647,7.8948 -0.13477,9.3066 -0.47279,9.5201 -0.62137,0.3924 -19.39534,0.3367 -19.79083,-0.059 z m 0.60854,-28.1816 c -0.29104,-0.075 -0.61664,-0.2721 -0.72355,-0.4372 -0.10692,-0.1651 -0.19621,-4.5524 -0.19844,-9.7497 -0.004,-9.0739 0.0163,-9.4604 0.50772,-9.7234 0.32522,-0.1741 3.93657,-0.2739 9.90687,-0.2739 h 9.3951 l 0.41188,0.588 c 0.58784,0.8393 0.62127,18.3389 0.0366,19.139 -0.35807,0.49 -0.79879,0.5155 -9.59115,0.5539 -5.0687,0.022 -9.45395,-0.021 -9.74499,-0.097 z m 54.25848,-0.4916 c -0.36201,-0.362 -0.41577,-1.6039 -0.41577,-9.6044 0,-6.7939 0.0827,-9.2714 0.3175,-9.5061 0.45521,-0.4552 19.01813,-0.4552 19.47333,0 0.23494,0.2349 0.3175,2.7437 0.3175,9.648 0,8.954 -0.0207,9.3415 -0.51177,9.6043 -0.32441,0.1737 -3.85316,0.2739 -9.63839,0.2739 -7.94415,0 -9.18049,-0.054 -9.5424,-0.4157 z m 54.816001,0.13 c -0.427344,-0.2489 -0.463021,-1.0004 -0.463021,-9.7533 0,-8.4036 0.04766,-9.5018 0.418516,-9.6441 0.230182,-0.088 4.506695,-0.1606 9.50336,-0.1606 4.996664,0 9.273177,0.072 9.50336,0.1606 0.370864,0.1423 0.418515,1.2408 0.418515,9.648 0,9.1091 -0.0204,9.4983 -0.511773,9.7612 -0.689962,0.3693 -18.233547,0.3583 -18.868957,-0.012 z m 54.368524,0.066 c -0.261172,-0.1658 -0.318912,-2.3158 -0.264583,-9.8517 l 0.0695,-9.6396 9.712392,-0.069 c 9.503968,-0.068 9.718516,-0.058 9.997905,0.4641 0.192876,0.3604 0.260848,3.4981 0.209484,9.6704 -0.06471,7.7769 -0.135101,9.1742 -0.472905,9.3876 -0.484101,0.3057 -18.773157,0.3424 -19.251791,0.039 z m -164.208445,-29.038 c -0.0883,-0.2301 -0.1606,-4.6116 -0.1606,-9.7366 0,-6.8947 0.0826,-9.4008 0.3175,-9.6357 0.23526,-0.2352 2.80038,-0.3175 9.90297,-0.3175 8.3613,0 9.63858,0.053 10.00125,0.4158 0.36191,0.3619 0.41578,1.5982 0.41578,9.5424 0,5.7852 -0.10028,9.314 -0.27389,9.6384 -0.26329,0.4919 -0.65667,0.5118 -10.15815,0.5118 -8.76908,0 -9.90238,-0.047 -10.04486,-0.4186 z m 164.337649,0.097 c -0.429897,-0.3151 -0.458991,-1.0432 -0.394221,-9.8652 l 0.06993,-9.525 9.712392,-0.069 c 9.503968,-0.068 9.718516,-0.058 9.997905,0.4641 0.340734,0.6367 0.258483,18.6191 -0.08674,18.9643 -0.121105,0.1211 -4.408551,0.2542 -9.527654,0.2958 -7.263013,0.059 -9.409417,8e-4 -9.771613,-0.2646 z m -109.567679,-0.3587 c -0.089,-0.2319 -0.16182,-4.4958 -0.16182,-9.4752 0,-6.6889 0.0829,-9.1365 0.3175,-9.3711 0.49389,-0.4939 19.08567,-0.4515 19.49728,0.044 0.21464,0.2586 0.28054,3.0344 0.23083,9.7234 l -0.0696,9.3615 -9.8262,0.069 c -8.78814,0.062 -9.84329,0.025 -9.98802,-0.3524 z m 54.504172,0 c -0.089,-0.2319 -0.161825,-4.505 -0.161825,-9.4957 0,-7.3529 0.06864,-9.1311 0.36186,-9.3745 0.258805,-0.2147 3.103346,-0.2805 9.988021,-0.2308 l 9.626161,0.069 v 9.6573 9.6573 l -9.826196,0.069 c -8.788149,0.062 -9.843294,0.025 -9.988021,-0.3524 z m -109.117242,-28.4771 c -0.45521,-0.4552 -0.45521,-19.0182 0,-19.4734 0.39561,-0.3956 19.1696,-0.4512 19.79083,-0.059 0.34054,0.2152 0.39688,1.576 0.39688,9.587 0,5.135 -0.0856,9.5447 -0.19014,9.7993 -0.17622,0.4292 -0.903,0.4631 -9.9351,0.4631 -7.22664,0 -9.82702,-0.082 -10.06247,-0.3175 z m 54.61185,-0.3656 c -0.0883,-0.2302 -0.1606,-4.4926 -0.1606,-9.4721 0,-6.6889 0.0829,-9.1365 0.3175,-9.3711 0.23525,-0.2352 2.79829,-0.3175 9.89357,-0.3175 8.48804,0 9.59431,0.048 9.73666,0.4185 0.20968,0.5464 0.20968,18.1958 0,18.7422 -0.14241,0.3711 -1.26245,0.4185 -9.89356,0.4185 -8.63112,0 -9.75115,-0.047 -9.89357,-0.4185 z m 54.78454,0.2425 c -0.09701,-0.097 -0.17639,-4.3595 -0.17639,-9.4721 0,-6.8772 0.08261,-9.3783 0.3175,-9.6132 0.455089,-0.4551 18.753662,-0.4551 19.208751,0 0.454967,0.455 0.454967,18.4892 0,18.9442 -0.235064,0.2351 -2.765385,0.3175 -9.745486,0.3175 -5.185394,0 -9.507363,-0.079 -9.604375,-0.1764 z m 54.449564,-0.1525 c -0.07078,-0.1844 -0.09738,-4.5614 -0.05909,-9.7267 l 0.0696,-9.3913 h 9.789584 9.789583 v 9.6573 9.6573 l -9.730489,0.069 c -7.663357,0.055 -9.757828,0 -9.859184,-0.266 z m 0,-28.8395 c -0.07078,-0.1845 -0.09738,-4.5615 -0.05909,-9.7268 l 0.0696,-9.3913 h 9.789584 9.789583 v 9.6573 9.6573 l -9.730489,0.069 c -7.663357,0.055 -9.757828,0 -9.859184,-0.2659 z M -168.88006,995.13035 c -1.89316,-0.61853 -3.66896,-2.15542 -4.74166,-4.10372 l -0.94689,-1.71979 v -9.39271 c 0,-9.06776 0.0198,-9.4355 0.57174,-10.62981 3.03279,-6.56226 12.08166,-6.812 15.49072,-0.42752 0.60062,1.12483 0.60629,1.22709 0.60629,10.92504 0,9.74001 -0.003,9.79562 -0.61752,10.98021 -0.878,1.69284 -2.54918,3.31322 -4.11883,3.99361 -1.70858,0.74061 -4.5939,0.91376 -6.24385,0.37469 z m 114.354227,-0.0909 c -1.750579,-0.62471 -3.112656,-1.69968 -4.217821,-3.32876 -1.45878,-2.15031 -1.52495,-2.66793 -1.52495,-11.92882 0,-9.87212 0.07188,-10.26755 2.311771,-12.71835 1.537425,-1.68219 2.616435,-2.30433 4.765834,-2.74791 1.656585,-0.34187 3.852799,-0.0521 5.321924,0.70223 1.279065,0.65673 3.089516,2.50292 3.829881,3.90549 l 0.703924,1.33354 v 9.525 c 0,9.17114 -0.02101,9.57044 -0.565502,10.74801 -1.363803,2.94951 -4.034584,4.73975 -7.326291,4.91087 -1.390963,0.0723 -2.271941,-0.0349 -3.29877,-0.4013 z"
           style="fill:#cfa09f;stroke-width:0.26458335"
           sodipodi:nodetypes="cccscccccssccccscscccsccscscssccccccscscscccccccscccccccccscccccccsccscsccscscsccccscccsccccscscscsccsccccccccsccccccccscccccccccccscscccscsccsccscccscccccccccccccccccccccsccsccscssccssccccsccc" />
        <path
           inkscape:connector-curvature="0"
           id="path1159"
           d="m -201.02694,1201.9756 c -9.09352,-1.2781 -16.67026,-7.9254 -19.23687,-16.8771 l -0.60688,-2.1167 v -91.5458 -91.54582 l 0.61079,-2.11667 c 2.06432,-7.15379 7.19925,-12.91382 13.77078,-15.44717 3.73486,-1.4398 5.48121,-1.61888 15.74401,-1.61441 5.38859,0.002 9.46419,0.10941 9.69421,0.25465 0.3207,0.20249 0.42507,1.20465 0.54374,5.22146 0.14249,4.82271 0.17153,5.02862 0.97427,6.90759 2.49744,5.84581 8.16155,9.39087 14.28097,8.93807 3.8677,-0.2861 7.07314,-1.8296 9.70646,-4.67392 2.82377,-3.05001 3.85111,-6.2729 3.85872,-12.10523 0.003,-1.93772 0.12784,-3.75342 0.27848,-4.03489 0.26903,-0.50268 1.02059,-0.51178 42.28042,-0.51178 32.318967,0 42.079749,0.0732 42.324028,0.3175 0.213979,0.21398 0.3175,1.42535 0.3175,3.71533 0,6.11852 1.25236,9.88794 4.326377,13.02177 5.637329,5.74702 14.705425,5.76162 20.434099,0.033 3.295952,-3.29595 4.331187,-6.33434 4.339098,-12.73516 0.0031,-2.53298 0.105754,-3.81856 0.322093,-4.0349 0.233466,-0.23346 2.491894,-0.31658 8.532813,-0.31402 7.095413,0.003 8.555053,0.0736 10.707571,0.51771 4.451575,0.9185 8.5732228,3.26371 11.9279675,6.787 2.802144,2.94292 4.4254554,5.85284 5.73842904,10.28661 0.44568005,1.50501 0.47437411,6.27538 0.5522357,91.81038 0.0585814,64.3528 -0.001058,90.809 -0.20757357,92.2668 -0.87963906,6.2059 -4.64002977,12.2197 -9.87413117,15.7912 -1.6780145,1.145 -5.1698635,2.7506 -7.3218945,3.3668 -1.661128,0.4757 -4.815453,0.4934 -92.471872,0.5208 -49.91365,0.016 -91.10928,-0.022 -91.54584,-0.083 z m 180.579314,-9.4983 c 5.673183,-2.1764 9.191999,-5.6418 11.0445132,-10.877 l 0.7282603,-2.058 v -73.5542 -73.5542 h -101.6000075 -101.6 l -0.0666,72.8412 c -0.0738,80.6591 -0.20218,74.6453 1.67792,78.5822 0.76915,1.6105 1.44745,2.5043 3.25215,4.2853 2.5698,2.5361 4.65753,3.75 7.76597,4.5156 1.82985,0.4507 6.1568,0.4712 89.63204,0.4257 l 87.709381,-0.048 z m -180.718154,-16.3918 c -0.14914,-0.3923 -0.25804,-4.4432 -0.25804,-9.5985 0,-7.6448 0.0589,-9.0038 0.41188,-9.5077 l 0.41188,-0.5881 h 9.52739 c 6.0615,0 9.71357,0.1 10.03917,0.2739 0.49137,0.263 0.51177,0.6523 0.51177,9.768 0,5.2217 -0.0723,9.6823 -0.1606,9.9125 -0.14254,0.3715 -1.28884,0.4185 -10.19301,0.4185 h -10.03241 z m 0.15384,-28.2198 c -0.35301,-0.504 -0.41188,-1.863 -0.41188,-9.5078 0,-5.1552 0.1089,-9.2062 0.25804,-9.5984 l 0.25803,-0.6787 h 9.87551 c 7.32817,0 9.9574,0.082 10.19301,0.3175 0.45532,0.4553 0.45532,19.2826 0,19.7379 -0.23543,0.2354 -2.83065,0.3175 -10.03917,0.3175 h -9.72166 z m 54.94491,0.1722 -0.58803,-0.4118 v -9.3589 c 0,-8.1552 0.0535,-9.4122 0.41577,-9.7745 0.36267,-0.3627 1.63996,-0.4158 10.00125,-0.4158 7.10259,0 9.66772,0.082 9.90298,0.3175 0.2351,0.2351 0.3175,2.7718 0.3175,9.7746 v 9.4571 l -0.58804,0.4118 c -0.50468,0.3535 -1.8841,0.4119 -9.73071,0.4119 -7.84662,0 -9.22604,-0.058 -9.73072,-0.4119 z m 54.643738,0.1261 c -0.427498,-0.2489 -0.463021,-1.0055 -0.463021,-9.8609 0,-7.107 0.08223,-9.6734 0.3175,-9.9087 0.235244,-0.2352 2.797384,-0.3175 9.88948,-0.3175 8.581033,0 9.609569,0.045 9.935104,0.4375 0.292711,0.3527 0.363125,2.2552 0.363125,9.811 0,8.9732 -0.02193,9.3894 -0.513591,9.7489 -0.42096,0.3078 -2.186577,0.3741 -9.789583,0.3675 -5.806713,-0.01 -9.449166,-0.1089 -9.739014,-0.2778 z m 54.358647,-0.032 c -0.235217,-0.2352 -0.3175,-2.7928 -0.3175,-9.8689 0,-7.0762 0.08228,-9.6338 0.3175,-9.869 0.395491,-0.3955 19.16946,-0.4512 19.790834,-0.059 0.613386,0.3874 0.740302,18.5619 0.136062,19.484 l -0.412845,0.6301 h -9.598274 c -7.112548,0 -9.680501,-0.082 -9.915777,-0.3175 z m -163.947295,-29.1101 c -0.58825,-0.8399 -0.62145,-18.6034 -0.0363,-19.4036 0.36014,-0.4924 0.78028,-0.5136 10.19616,-0.5136 8.4415,0 9.85577,0.056 10.07138,0.3969 0.39262,0.6212 0.33706,19.3952 -0.0586,19.7908 -0.23543,0.2355 -2.83065,0.3175 -10.03917,0.3175 h -9.72166 z m 55.15063,0.2526 -0.66146,-0.3398 -0.0695,-9.4861 c -0.0497,-6.7811 0.0161,-9.5893 0.23084,-9.848 0.41173,-0.4961 19.53229,-0.5385 20.0264,-0.044 0.23508,0.235 0.3175,2.7679 0.3175,9.7571 0,8.4547 -0.0456,9.4776 -0.43718,9.8029 -0.62459,0.5188 -18.42242,0.664 -19.40657,0.1583 z m 54.504164,-0.01 -0.661459,-0.3346 -0.06954,-9.3299 c -0.0457,-6.131 0.02553,-9.5075 0.207746,-9.848 0.2676,-0.5 0.617212,-0.5181 10.004647,-0.5181 7.212947,0 9.80943,0.082 10.044859,0.3175 0.235292,0.2353 0.3175,2.8061 0.3175,9.9284 v 9.611 l -0.678682,0.258 c -1.068496,0.4062 -18.345463,0.3302 -19.165068,-0.084 z m 54.418723,0.012 c -0.413321,-0.303 -0.445307,-1.1519 -0.381299,-10.1203 l 0.06987,-9.7896 9.921875,-0.07 c 9.092782,-0.064 9.949511,-0.032 10.252605,0.3813 0.249607,0.3405 0.330729,2.7101 0.330729,9.661 0,8.857 -0.02027,9.2301 -0.529167,9.739 -0.509185,0.5092 -0.881944,0.5291 -9.871305,0.5291 -7.0567,0 -9.452513,-0.081 -9.793307,-0.3307 z m -163.956227,-29.038 c -0.50901,-0.509 -0.52917,-0.882 -0.52917,-9.7896 0,-8.9615 0.0174,-9.2778 0.53856,-9.799 0.52491,-0.5249 0.78336,-0.5366 10.19631,-0.463 8.24037,0.064 9.69453,0.1338 9.90843,0.4724 0.14555,0.2305 0.25239,4.3557 0.25474,9.8368 0.004,8.2326 -0.0491,9.4932 -0.41173,9.8558 -0.36254,0.3625 -1.63274,0.4158 -9.92187,0.4158 -9.15333,0 -9.52574,-0.02 -10.03527,-0.5292 z m 54.55709,-0.053 c -0.50346,-0.5035 -0.44899,-18.7162 0.058,-19.4096 0.35969,-0.4919 0.77701,-0.5136 9.88121,-0.5136 7.66791,0 9.59026,0.07 9.94321,0.3632 0.39203,0.3253 0.43754,1.3448 0.43754,9.8028 0,6.9892 -0.0824,9.5221 -0.3175,9.7572 -0.23538,0.2353 -2.82223,0.3175 -10.00125,0.3175 -7.17903,0 -9.76588,-0.082 -10.00125,-0.3175 z m 54.768747,0 c -0.235053,-0.2351 -0.3175,-2.7635 -0.3175,-9.7367 0,-6.9732 0.08245,-9.5016 0.3175,-9.7367 0.235096,-0.2351 2.770987,-0.3175 9.770685,-0.3175 8.241027,0 9.506497,0.053 9.868958,0.4158 0.362241,0.3622 0.415774,1.6159 0.415774,9.7367 0,6.8968 -0.08257,9.4034 -0.3175,9.6384 -0.235217,0.2352 -2.792825,0.3175 -9.868958,0.3175 -7.076134,0 -9.633742,-0.082 -9.868959,-0.3175 z m 54.366193,0.1442 c -0.09874,-0.099 -0.179525,-4.4909 -0.179525,-9.7603 0,-8.5892 0.04528,-9.6184 0.437539,-9.9439 0.352526,-0.2926 2.241801,-0.3632 9.723438,-0.3632 5.107244,0 9.495711,0.086 9.752147,0.1914 0.435293,0.1787 0.461643,0.8462 0.396875,10.0542 l -0.06937,9.8628 -9.940788,0.069 c -5.467435,0.038 -10.021576,-0.011 -10.120313,-0.1103 z m 0.14114,-28.9838 c -0.496645,-0.4967 -0.457417,-19.0866 0.04115,-19.5004 0.258889,-0.2148 3.137781,-0.2805 10.120313,-0.2308 l 9.758503,0.069 v 9.9219 9.9219 l -9.799649,0.069 c -7.401086,0.052 -9.878134,-0.01 -10.120312,-0.2513 z m -130.93847,-65.83082 c -3.26594,-0.68266 -5.68925,-3.10158 -6.57641,-6.5645 -0.35345,-1.37966 -0.40939,-3.01077 -0.33995,-9.91307 l 0.0831,-8.2617 0.69722,-1.48696 c 0.94506,-2.01554 2.35896,-3.51009 4.1551,-4.39214 1.30269,-0.63973 1.80771,-0.73517 3.87893,-0.73305 2.08092,0.002 2.55532,0.0939 3.76147,0.72758 1.83321,0.96314 3.16714,2.34025 4.01204,4.1419 l 0.69316,1.47809 v 9.3927 9.39271 l -0.74093,1.50882 c -1.72006,3.50268 -5.8137,5.50601 -9.62375,4.70962 z m 114.564581,-0.002 c -3.169319,-0.65811 -5.637252,-2.97386 -6.562989,-6.15828 -0.373312,-1.28415 -0.423633,-2.73476 -0.35283,-10.17091 l 0.08258,-8.67307 0.730824,-1.48816 c 2.703267,-5.50461 9.660361,-6.68383 13.97538,-2.36881 2.441403,2.44141 2.491713,2.7116 2.491713,13.38197 v 8.99583 l -0.68821,1.46728 c -0.970878,2.06993 -2.144668,3.29373 -4.030779,4.20249 -1.800222,0.86739 -3.914063,1.17131 -5.645693,0.81174 z"
           style="fill:#bac3c6;stroke-width:0.26458335"
           sodipodi:nodetypes="ccccccscccccccsscsscccsccsscccccccccccccscccccccsccscscscccsccsccsccccssscsccsccscscsccccsccccsccccsccscccccccscccccscscscccccscccscscccscccccscccscscscccscscscsccscscscccccccccccccccccccccccccccccsscscscsccc" />
        <path
           inkscape:connector-curvature="0"
           id="path1155"
           d="m -201.51384,1201.6224 c -5.45729,-0.916 -10.52698,-3.8414 -14.08302,-8.1266 -1.70213,-2.0511 -3.81498,-6.22 -4.52403,-8.9265 -0.46605,-1.7789 -0.48522,-5.4577 -0.48522,-93.1333 v -91.2812 l 0.60259,-2.2039 c 2.07154,-7.57635 7.67939,-13.45615 15.14012,-15.87434 2.93607,-0.95164 4.86743,-1.10003 14.34434,-1.1021 8.8112,-0.002 9.19611,0.0188 9.45885,0.50978 0.15355,0.2869 0.27389,2.23887 0.27389,4.44233 0,4.3658 0.30066,5.99043 1.57625,8.51736 0.95665,1.89511 3.2546,4.43392 5.0645,5.59537 7.19363,4.6161 17.00155,2.0397 20.95655,-5.50501 1.35342,-2.58186 1.76131,-4.71261 1.76686,-9.22995 0.003,-2.81918 0.0928,-3.81111 0.36342,-4.03571 0.26332,-0.21854 11.51295,-0.27998 42.26719,-0.23083 l 41.908363,0.067 0.166267,4.49792 c 0.115784,3.13226 0.305564,4.93974 0.625059,5.95312 1.530702,4.85508 5.022192,8.52496 9.609328,10.10026 2.332451,0.801 6.587112,0.8572 8.781638,0.1161 3.563636,-1.2036 6.751894,-3.63204 8.334296,-6.34826 1.720628,-2.95349 2.059159,-4.39949 2.189123,-9.35058 0.08832,-3.36486 0.212235,-4.63331 0.473815,-4.8504 0.250354,-0.20778 2.937389,-0.26035 9.164427,-0.17931 10.070941,0.13106 10.878116,0.26063 15.160215,2.43355 5.8320622,2.95943 10.0061845,8.09438 11.83635511,14.56093 l 0.59906166,2.11667 0.06880754,90.2229 c 0.0608092,79.7365 0.0220663,90.4938 -0.33335913,92.5534 -1.60659238,9.3098 -8.63044398,16.5383 -17.93620518,18.4586 -2.367854,0.4887 -4.976193,0.5021 -92.262791,0.4753 -49.40432,-0.015 -90.40233,-0.1244 -91.10669,-0.2426 z m 181.329612,-8.9101 c 5.131054,-1.7552 9.322454,-5.9404 11.0491857,-11.0326 l 0.7247732,-2.1374 0.068474,-73.392 c 0.050665,-54.3049 -0.00937,-73.4858 -0.2308358,-73.7526 -0.2517325,-0.3033 -16.3977031,-0.3606 -101.5806891,-0.3606 -55.70476,0 -101.46972,0.072 -101.6999,0.1606 -0.38023,0.1459 -0.41851,6.8458 -0.41851,73.2472 0,71.3613 0.0121,73.1339 0.51114,75.0852 1.55738,6.0893 6.20364,10.7836 12.24223,12.3688 1.88604,0.4951 3.97616,0.5056 89.77267,0.4543 l 87.841671,-0.053 z m -180.416862,-16.5747 c -0.21465,-0.2586 -0.28054,-3.0345 -0.23084,-9.7234 l 0.0696,-9.3615 9.65729,-0.07 c 8.84407,-0.064 9.68515,-0.032 9.98803,0.3813 0.42653,0.5819 0.47918,17.8345 0.0568,18.6237 -0.26297,0.4913 -0.65212,0.5118 -9.75718,0.5118 -7.70031,0 -9.53978,-0.068 -9.7837,-0.362 z m 0.50019,-28.179 -0.66146,-0.1905 -0.0696,-9.3496 c -0.0497,-6.6801 0.0162,-9.4529 0.23084,-9.7115 0.24377,-0.2938 2.06154,-0.362 9.64182,-0.362 8.22953,0 9.39205,0.051 9.76686,0.4254 0.37759,0.3776 0.41692,1.4615 0.34962,9.6356 -0.0417,5.0655 -0.17488,9.3092 -0.29596,9.4303 -0.27156,0.2716 -18.0452,0.3862 -18.96215,0.1223 z m 54.12619,-0.186 c -0.36201,-0.362 -0.41577,-1.6039 -0.41577,-9.6044 0,-6.7939 0.0827,-9.2714 0.3175,-9.5061 0.45521,-0.4552 19.01813,-0.4552 19.47333,0 0.23494,0.2349 0.3175,2.7437 0.3175,9.648 0,8.954 -0.0207,9.3415 -0.51177,9.6043 -0.32441,0.1737 -3.85316,0.2739 -9.63839,0.2739 -7.94415,0 -9.18049,-0.054 -9.5424,-0.4157 z m 54.816001,0.13 c -0.427344,-0.2489 -0.463021,-1.0004 -0.463021,-9.7533 0,-8.4036 0.04766,-9.5018 0.418516,-9.6441 0.230182,-0.088 4.506695,-0.1606 9.50336,-0.1606 4.996664,0 9.273177,0.072 9.50336,0.1606 0.370864,0.1423 0.418515,1.2408 0.418515,9.648 0,9.1091 -0.0204,9.4983 -0.511773,9.7612 -0.689962,0.3693 -18.233547,0.3583 -18.868957,-0.012 z m 54.368524,0.066 c -0.261172,-0.1658 -0.318912,-2.3158 -0.264583,-9.8517 l 0.0695,-9.6396 9.712392,-0.069 c 9.503968,-0.068 9.718516,-0.058 9.997905,0.4641 0.192876,0.3604 0.260848,3.4981 0.209484,9.6704 -0.06471,7.7769 -0.135101,9.1742 -0.472905,9.3876 -0.484101,0.3057 -18.773157,0.3424 -19.251791,0.039 z m 0.129204,-28.9411 c -0.429897,-0.3151 -0.458991,-1.0432 -0.394221,-9.8652 l 0.06993,-9.525 9.712392,-0.069 c 9.503968,-0.068 9.718516,-0.058 9.997905,0.4641 0.340734,0.6367 0.258483,18.6191 -0.08674,18.9643 -0.121105,0.1211 -4.408551,0.2542 -9.527654,0.2958 -7.263013,0.059 -9.409417,8e-4 -9.771613,-0.2646 z m -164.057279,-0.1197 c -0.097,-0.097 -0.17639,-4.3595 -0.17639,-9.4721 0,-6.8772 0.0826,-9.3783 0.3175,-9.6132 0.23511,-0.2351 2.77312,-0.3175 9.78028,-0.3175 9.08478,0 9.47371,0.021 9.73666,0.5118 0.29442,0.5501 0.39219,17.4084 0.10713,18.4721 l -0.15954,0.5953 h -9.71462 c -5.34305,0 -9.79401,-0.079 -9.89102,-0.1764 z m 54.4896,-0.239 c -0.089,-0.2319 -0.16182,-4.4958 -0.16182,-9.4752 0,-6.6889 0.0829,-9.1365 0.3175,-9.3711 0.49389,-0.4939 19.08567,-0.4515 19.49728,0.044 0.21464,0.2586 0.28054,3.0344 0.23083,9.7234 l -0.0696,9.3615 -9.8262,0.069 c -8.78814,0.062 -9.84329,0.025 -9.98802,-0.3524 z m 54.504172,0 c -0.089,-0.2319 -0.161825,-4.505 -0.161825,-9.4957 0,-7.3529 0.06864,-9.1311 0.36186,-9.3745 0.258805,-0.2147 3.103346,-0.2805 9.988021,-0.2308 l 9.626161,0.069 v 9.6573 9.6573 l -9.826196,0.069 c -8.788149,0.062 -9.843294,0.025 -9.988021,-0.3524 z m -109.008322,-28.8395 c -0.089,-0.232 -0.16184,-4.5051 -0.16184,-9.4958 0,-7.3535 0.0686,-9.1311 0.36191,-9.3745 0.25872,-0.2147 3.06891,-0.2805 9.85573,-0.2308 l 9.49382,0.07 v 9.6573 9.6573 l -9.69389,0.069 c -8.66748,0.062 -9.71103,0.025 -9.85573,-0.3524 z m 54.50293,0 c -0.0883,-0.2302 -0.1606,-4.4926 -0.1606,-9.4721 0,-6.6889 0.0829,-9.1365 0.3175,-9.3711 0.23525,-0.2352 2.79829,-0.3175 9.89357,-0.3175 8.48804,0 9.59431,0.048 9.73666,0.4185 0.20968,0.5464 0.20968,18.1958 0,18.7422 -0.14241,0.3711 -1.26245,0.4185 -9.89356,0.4185 -8.63112,0 -9.75115,-0.047 -9.89357,-0.4185 z m 54.78454,0.2425 c -0.09701,-0.097 -0.17639,-4.3595 -0.17639,-9.4721 0,-6.8772 0.08261,-9.3783 0.3175,-9.6132 0.455089,-0.4551 18.753662,-0.4551 19.208751,0 0.454967,0.455 0.454967,18.4892 0,18.9442 -0.235064,0.2351 -2.765385,0.3175 -9.745486,0.3175 -5.185394,0 -9.507363,-0.079 -9.604375,-0.1764 z m 54.449564,-0.1525 c -0.07078,-0.1844 -0.09738,-4.5614 -0.05909,-9.7267 l 0.0696,-9.3913 h 9.789584 9.789583 v 9.6573 9.6573 l -9.730489,0.069 c -7.663357,0.055 -9.757828,0 -9.859184,-0.266 z m 0,-28.8419 c -0.07078,-0.1845 -0.09738,-4.5615 -0.05909,-9.7268 l 0.0696,-9.3913 h 9.789584 9.789583 v 9.6573 9.6573 l -9.730489,0.069 c -7.663357,0.055 -9.757828,0 -9.859184,-0.2659 z M -168.3509,995.02827 c -2.37992,-0.78313 -4.35152,-2.50328 -5.34475,-4.66309 -0.5895,-1.28189 -0.61084,-1.59223 -0.68801,-10.0062 -0.09,-9.81098 5.3e-4,-10.47708 1.72768,-12.72183 3.17502,-4.12643 9.22293,-4.2596 12.72571,-0.28023 1.83925,2.08949 1.89812,2.48324 1.89812,12.69438 v 9.03873 l -0.80614,1.61323 c -1.42026,2.8422 -3.73136,4.315 -6.99907,4.46031 -1.01864,0.0453 -2.14974,-0.0156 -2.51354,-0.1353 z m 114.140276,-0.12769 c -1.520299,-0.49802 -3.314012,-1.79295 -4.143108,-2.99103 -1.508297,-2.17954 -1.602621,-2.77591 -1.721731,-10.8858 -0.121534,-8.27492 0.0697,-10.22748 1.206164,-12.31554 3.446047,-6.33153 13.017876,-5.32552 15.025119,1.57915 0.333407,1.14688 0.389501,2.91454 0.323797,10.20334 -0.07858,8.7168 -0.08669,8.83082 -0.720532,10.11866 -0.815115,1.65617 -2.223942,3.06638 -3.849529,3.85331 -1.557075,0.75377 -4.510791,0.96511 -6.12018,0.43791 z"
           style="fill:#959da1;stroke-width:0.26458335"
           sodipodi:nodetypes="cccscccccssccccscscccsccscscssccccccscscscccccccccccsccccccsccccccsccscsccscscsccccscccsccccsccccccccscscccsccsccccccccscccccccccscccccccccscsccsccscccsccccccccccccccccccccccccccscsccccssssccc" />
        <path
           inkscape:connector-curvature="0"
           id="path1153"
           d="m -201.55611,1201.4673 c -5.04605,-1.0355 -8.47869,-2.7508 -11.88942,-5.9414 -3.26163,-3.0511 -5.41209,-6.7428 -6.567,-11.2737 l -0.59358,-2.3287 v -90.6198 -90.6198 l 0.70082,-2.53414 c 2.28816,-8.27402 8.29751,-14.19572 16.62939,-16.38685 2.06734,-0.54367 3.00958,-0.60195 11.66766,-0.72173 6.82336,-0.0944 9.57558,-0.0464 9.98802,0.17438 0.54281,0.29051 0.5695,0.48596 0.57323,4.19799 0.006,5.86029 0.95988,8.94418 3.72739,12.04926 6.48715,7.27839 17.97898,6.58609 23.39046,-1.40909 2.0921,-3.09098 2.76118,-5.84143 2.77084,-11.39032 0.004,-2.01752 0.11321,-3.16382 0.32282,-3.37343 0.42212,-0.42212 82.785247,-0.4651 83.572811,-0.0436 0.470088,0.25158 0.512091,0.59101 0.515684,4.16719 0.0045,4.50005 0.352869,6.34609 1.703671,9.02842 4.405569,8.74832 16.125391,10.77962 23.251634,4.02999 2.013413,-1.90699 3.163729,-3.70183 4.037843,-6.30025 0.606465,-1.80281 0.714989,-2.64586 0.837698,-6.50761 0.140766,-4.43004 0.141909,-4.43673 0.785471,-4.59826 0.354473,-0.089 4.236262,-0.0975 8.626197,-0.0189 6.877638,0.12312 8.282755,0.21858 10.158135,0.69013 8.6595588,2.17737 15.2388283,9.07424 16.89764682,17.71334 0.56566066,2.94598 0.55815708,181.06088 -0.007752,184.01858 -1.50345512,7.8579 -7.30980532,14.4206 -15.16543882,17.1409 l -2.577973,0.8928 -91.413547,0.037 c -50.27745,0.02 -91.65167,-0.012 -91.94271,-0.072 z m 180.692025,-8.3903 c 3.084676,-0.9422 5.169577,-2.2175 7.584451,-4.6393 2.424485,-2.4314 3.7135167,-4.596 4.6669507,-7.8371 0.4405577,-1.4976 0.4709001,-5.719 0.5359427,-74.5585 0.047614,-50.3968 -0.016642,-73.131 -0.2077482,-73.488 -0.2737829,-0.5116 -1.3463615,-0.517 -102.1269212,-0.517 h -101.85024 l -0.14487,0.5953 c -0.0797,0.3274 -0.11171,33.4565 -0.0712,73.6203 0.0694,68.7832 0.1007,73.1146 0.53872,74.567 2.07414,6.8775 7.64454,11.7139 14.61622,12.6901 0.43656,0.061 39.96531,0.097 87.84167,0.079 83.221687,-0.031 87.116885,-0.053 88.617015,-0.5116 z m -179.737005,-16.9394 c -0.21465,-0.2586 -0.28054,-3.0345 -0.23084,-9.7234 l 0.0696,-9.3615 9.65729,-0.07 c 8.84407,-0.064 9.68515,-0.032 9.98803,0.3813 0.42653,0.5819 0.47918,17.8345 0.0568,18.6237 -0.26297,0.4913 -0.65212,0.5118 -9.75718,0.5118 -7.70031,0 -9.53978,-0.068 -9.7837,-0.362 z m 0.50019,-28.1786 -0.66146,-0.1905 -0.0696,-9.3496 c -0.0497,-6.6801 0.0162,-9.4529 0.23084,-9.7115 0.24377,-0.2938 2.06154,-0.362 9.64182,-0.362 8.22953,0 9.39205,0.051 9.76686,0.4254 0.37759,0.3776 0.41692,1.4615 0.34962,9.6356 -0.0417,5.0655 -0.17488,9.3092 -0.29596,9.4303 -0.27156,0.2716 -18.0452,0.3862 -18.96215,0.1223 z m 54.15464,-0.2076 c -0.0988,-0.099 -0.17964,-4.3894 -0.17964,-9.5348 v -9.3551 l 0.67869,-0.2581 c 0.74441,-0.283 16.71539,-0.3643 18.07692,-0.092 l 0.83009,0.166 -0.0694,9.5574 -0.0694,9.5575 -9.5438,0.069 c -5.24909,0.038 -9.62464,-0.011 -9.72344,-0.1103 z m 54.618043,-0.1857 c -0.214569,-0.2585 -0.280551,-3 -0.230835,-9.5911 l 0.06961,-9.2291 9.639605,-0.069 c 7.535928,-0.054 9.685888,0 9.851678,0.2645 0.363189,0.5722 0.270767,18.3017 -0.09732,18.6698 -0.493803,0.4938 -18.821181,0.4513 -19.232738,-0.045 z m 54.372493,-0.053 c -0.08901,-0.232 -0.161837,-4.5226 -0.161837,-9.5348 v -9.113 l 0.678682,-0.2581 c 0.899766,-0.3421 17.589641,-0.3409 18.489732,0 l 0.682033,0.2594 -0.0695,9.4641 -0.06949,9.4641 -9.693891,0.069 c -8.667478,0.062 -9.711027,0.025 -9.85573,-0.3523 z m -163.762536,-28.6007 c -0.097,-0.097 -0.17639,-4.3595 -0.17639,-9.4721 0,-6.8772 0.0826,-9.3783 0.3175,-9.6132 0.23511,-0.2351 2.77312,-0.3175 9.78028,-0.3175 9.08478,0 9.47371,0.021 9.73666,0.5118 0.29442,0.5501 0.39219,17.4084 0.10713,18.4721 l -0.15954,0.5953 h -9.71462 c -5.34305,0 -9.79401,-0.079 -9.89102,-0.1764 z m 54.772,0 c -0.0988,-0.099 -0.17964,-4.4321 -0.17964,-9.6297 v -9.45 l 0.59531,-0.1595 c 0.77855,-0.2087 17.61289,-0.2079 18.39181,8e-4 l 0.59858,0.1604 -0.0694,9.5594 -0.0694,9.5595 -9.5438,0.069 c -5.24909,0.038 -9.62464,-0.011 -9.72344,-0.1103 z m 54.50092,0 c -0.09701,-0.097 -0.17639,-4.3791 -0.17639,-9.5157 0,-8.9627 0.02064,-9.3504 0.511773,-9.6132 0.697066,-0.3731 18.123139,-0.3731 18.820205,0 0.490908,0.2627 0.511773,0.6489 0.511773,9.4721 0,6.8014 -0.08273,9.2809 -0.3175,9.5157 -0.235064,0.235 -2.765385,0.3175 -9.745486,0.3175 -5.185394,0 -9.507363,-0.079 -9.604375,-0.1764 z m 54.64852,-0.1411 c -0.238964,-0.239 -0.320741,-2.6659 -0.320741,-9.5189 0,-8.8232 0.02088,-9.2094 0.511772,-9.4721 0.789538,-0.4226 18.306175,-0.3698 18.888351,0.057 0.412956,0.3027 0.445326,1.1281 0.381299,9.7235 l -0.06996,9.3927 -9.534988,0.069 c -7.195169,0.052 -9.613696,-0.01 -9.855729,-0.2514 z m -163.93599,-28.9406 c -0.089,-0.232 -0.16184,-4.5051 -0.16184,-9.4958 0,-7.3535 0.0686,-9.1311 0.36191,-9.3745 0.25872,-0.2147 3.06891,-0.2805 9.85573,-0.2308 l 9.49382,0.07 v 9.6573 9.6573 l -9.69389,0.069 c -8.66748,0.062 -9.71103,0.025 -9.85573,-0.3524 z m 54.93764,0.2389 c -0.25591,-0.1046 -0.33073,-2.2786 -0.33073,-9.6098 0,-8.3956 0.0477,-9.493 0.41852,-9.6353 0.62951,-0.2415 18.44771,-0.1852 18.83332,0.06 0.26112,0.1658 0.31892,2.2894 0.26458,9.7194 l -0.0695,9.5073 -9.39271,0.047 c -5.16599,0.026 -9.54154,-0.014 -9.72344,-0.088 z m 54.928199,0 c -0.239729,-0.066 -0.505995,-0.3823 -0.591701,-0.7019 -0.263443,-0.9824 -0.175019,-17.7473 0.09587,-18.1759 0.215152,-0.3405 1.567217,-0.3969 9.507612,-0.3969 7.244197,0 9.331601,0.075 9.600859,0.3441 0.269015,0.269 0.344064,2.3275 0.344064,9.4369 0,5.001 -0.09908,9.192 -0.220181,9.3132 -0.226258,0.2265 -17.953752,0.3972 -18.736519,0.1805 z m 54.023301,-0.3396 c -0.17299,-0.3232 -0.273891,-3.7411 -0.273891,-9.2778 0,-5.5367 0.100901,-8.9546 0.273891,-9.2778 0.262842,-0.4911 0.650391,-0.5118 9.604375,-0.5118 6.904265,0 9.413045,0.083 9.647984,0.3175 0.454967,0.455 0.454967,18.4892 0,18.9442 -0.234939,0.2349 -2.743719,0.3175 -9.647984,0.3175 -8.953984,0 -9.341533,-0.021 -9.604375,-0.5118 z m 0.141883,-28.7436 c -0.361604,-0.3616 -0.415774,-1.5829 -0.415774,-9.3738 0,-7.7909 0.05417,-9.0122 0.415774,-9.3738 0.361669,-0.3617 1.586217,-0.4158 9.410102,-0.4158 5.694042,0 9.182113,0.1005 9.506101,0.2739 0.490979,0.2628 0.511773,0.6494 0.511773,9.5157 0,8.8663 -0.0208,9.2529 -0.511773,9.5157 -0.323988,0.1734 -3.812059,0.2739 -9.506101,0.2739 -7.823885,0 -9.048433,-0.054 -9.410102,-0.4158 z M -168.3509,995.02827 c -2.37992,-0.78313 -4.35152,-2.50328 -5.34475,-4.66309 -0.5895,-1.28189 -0.61084,-1.59223 -0.68801,-10.0062 -0.09,-9.81098 5.3e-4,-10.47708 1.72768,-12.72183 3.17502,-4.12643 9.22293,-4.2596 12.72571,-0.28023 1.83925,2.08949 1.89812,2.48324 1.89812,12.69438 v 9.03873 l -0.80614,1.61323 c -1.42026,2.8422 -3.73136,4.315 -6.99907,4.46031 -1.01864,0.0453 -2.14974,-0.0156 -2.51354,-0.1353 z m 114.140276,-0.12769 c -1.520299,-0.49802 -3.314012,-1.79295 -4.143108,-2.99103 -1.508297,-2.17954 -1.602621,-2.77591 -1.721731,-10.8858 -0.121534,-8.27492 0.0697,-10.22748 1.206164,-12.31554 3.446047,-6.33153 13.017876,-5.32552 15.025119,1.57915 0.333407,1.14688 0.389501,2.91454 0.323797,10.20334 -0.07858,8.7168 -0.08669,8.83082 -0.720532,10.11866 -0.815115,1.65617 -2.223942,3.06638 -3.849529,3.85331 -1.557075,0.75377 -4.510791,0.96511 -6.12018,0.43791 z"
           style="fill:#7a858a;stroke-width:0.26458335"
           sodipodi:nodetypes="cccccccsscccccscccccscccccccccccccscsccssccccccccccsccccccsccccccsccccccccccscccccccsccccccccccscscccsccsccccccccccsccscsccsccscccccscccccccccsccccccccccscsccccscsccsccscscscsccccccscsccccssssccc" />
        <path
           inkscape:connector-curvature="0"
           id="path1151"
           d="m -201.51384,1201.3578 c -7.26771,-1.2198 -13.40322,-5.7644 -16.59316,-12.2905 -2.48056,-5.0749 -2.23452,5.6747 -2.23452,-97.6313 0,-87.6756 0.0192,-91.3544 0.48521,-93.13332 0.70594,-2.69459 2.82219,-6.87575 4.50855,-8.90773 3.44813,-4.15483 8.52948,-7.03146 13.92394,-7.88257 0.94589,-0.14923 5.84448,-0.27223 10.88576,-0.27333 8.11527,-0.002 9.18437,0.046 9.32656,0.41652 0.0883,0.23018 0.1606,2.1697 0.1606,4.31003 0,2.63767 0.1303,4.39176 0.40439,5.44407 1.57992,6.06571 7.03729,10.63023 13.36279,11.17653 5.68544,0.491 11.67044,-2.8451 14.33011,-7.98769 1.40367,-2.71405 1.61715,-3.7595 1.78294,-8.73125 l 0.14998,-4.49792 h 41.93646 41.936459 l 0.15248,4.23334 c 0.103365,2.86972 0.302768,4.74468 0.619045,5.82083 2.088373,7.10577 8.459563,11.68409 15.522242,11.15409 6.032493,-0.4526 10.929324,-4.23787 13.148872,-10.16414 0.587221,-1.5679 0.687183,-2.34387 0.826246,-6.41391 l 0.1582,-4.63021 8.863541,0.003 c 10.10234,0.003 10.77141,0.0986 14.948959,2.12539 6.0450997,2.93287 10.2435796,7.97771 12.10093877,14.54032 l 0.59906166,2.11665 0.0692706,90.3552 c 0.0764593,99.7284 0.19541861,92.3363 -1.55918703,96.8861 -2.7834723,7.2178 -9.640258,12.7099 -17.427792,13.959 -2.077654,0.3334 -180.402676,0.336 -182.387946,0 z m 180.374604,-8.1821 c 5.670873,-1.4504 10.34855,-5.8297 12.264422,-11.4822 l 0.7291282,-2.1512 0.069125,-73.5542 c 0.064855,-69.0092 0.041294,-73.5746 -0.381299,-73.8849 -0.6987276,-0.5131 -203.3578702,-0.4833 -203.7837902,0.03 -0.22147,0.2668 -0.2815,19.5167 -0.23084,74.0172 l 0.0685,73.6565 0.74455,2.1066 c 1.93223,5.4669 6.60972,9.7998 12.14476,11.25 1.87723,0.4918 4.19527,0.5053 89.13139,0.5195 85.949958,0.014 87.233367,0.01 89.244084,-0.5072 z m -179.437914,-16.9936 c -0.23457,-0.2346 -0.3175,-2.6822 -0.3175,-9.3711 0,-4.9795 0.0723,-9.2419 0.1606,-9.4721 0.14238,-0.371 1.25402,-0.4185 9.79789,-0.4185 8.92955,0 9.65125,0.034 9.82742,0.463 0.10457,0.2547 0.19013,4.5453 0.19013,9.5347 0,7.7759 -0.0567,9.1075 -0.39687,9.3225 -0.62077,0.3924 -18.86625,0.3369 -19.26167,-0.059 z m -0.1569,-28.6761 c -0.0883,-0.2301 -0.1606,-4.5122 -0.1606,-9.5156 0,-8.7234 0.021,-9.1085 0.51177,-9.3711 0.6605,-0.3535 18.50946,-0.3676 19.0674,-0.015 0.34018,0.2149 0.39687,1.5465 0.39687,9.3225 0,4.9894 -0.0856,9.2801 -0.19013,9.5347 -0.17617,0.429 -0.89787,0.4631 -9.82742,0.4631 -8.54387,0 -9.65551,-0.048 -9.79789,-0.4186 z m 64.39773,-18.7637 h 9.65729 l 0.0696,9.3749 c 0.0544,7.3242 -0.004,9.4214 -0.26458,9.5871 -0.18379,0.1167 -4.45701,0.214 -9.49604,0.2162 -18.41683,-5.0413 -8.56733,-11.2442 0.0337,-19.1782 z m 45.306463,18.962 c -0.261067,-0.1657 -0.318944,-2.2629 -0.264583,-9.5871 l 0.06958,-9.3749 h 9.525001 9.525 l 0.06958,9.3749 c 0.05436,7.3242 -0.0035,9.4214 -0.264583,9.5871 -0.183793,0.1167 -4.382294,0.2122 -9.330002,0.2122 -4.947709,0 -9.14621,-0.096 -9.330003,-0.2122 z m 54.353269,0.044 c -0.09701,-0.097 -0.17639,-4.4428 -0.17639,-9.6573 v -9.4809 h 9.628984 c 8.5363,0 9.647209,0.048 9.789584,0.4185 0.08833,0.2302 0.160599,4.4331 0.160599,9.3398 0,6.586 -0.08311,9.0044 -0.3175,9.2388 -0.234894,0.2348 -2.735988,0.3175 -9.613194,0.3175 -5.112634,0 -9.375071,-0.079 -9.472083,-0.1764 z m -164.057462,-29.0817 c -0.0883,-0.2302 -0.1606,-4.4927 -0.1606,-9.4721 0,-6.6889 0.0829,-9.1365 0.3175,-9.3711 0.23513,-0.2351 2.77703,-0.3175 9.79789,-0.3175 8.78012,0 9.49443,0.034 9.67052,0.463 0.24818,0.6044 0.24818,18.0488 0,18.6532 -0.17617,0.429 -0.89787,0.463 -9.82742,0.463 -8.54387,0 -9.65551,-0.048 -9.79789,-0.4185 z m 64.39767,-18.7639 h 9.65729 l 0.0695,9.3318 0.0695,9.3318 -0.68207,0.2593 c -29.22589,4.0472 -18.50091,-10.1659 -9.11422,-18.9229 z m 99.814131,19.0075 c -0.255968,-0.1032 -0.330729,-2.2816 -0.330729,-9.6364 v -9.5029 h 9.628984 c 8.5363,0 9.647209,0.047 9.789584,0.4185 0.08833,0.2302 0.160599,4.3889 0.160599,9.2415 0,7.6682 -0.05442,8.8774 -0.415774,9.2388 -0.362606,0.3626 -1.572154,0.4131 -9.458855,0.3949 -4.973693,-0.012 -9.191908,-0.081 -9.373809,-0.1544 z m -54.979042,-0.4217 c -0.07015,-0.1828 -0.09617,-4.4392 -0.05784,-9.4588 l 0.06969,-9.1265 9.723438,-0.069 9.723438,-0.069 v 9.5282 9.5283 h -9.665595 c -7.513635,0 -9.693992,-0.074 -9.793134,-0.3324 z m -109.072619,-28.5569 c -0.49653,-0.4965 -0.45733,-18.5576 0.0412,-18.9713 0.25872,-0.2147 3.06891,-0.2805 9.85573,-0.2308 l 9.49382,0.07 v 9.6573 9.6573 l -9.53499,0.069 c -7.19517,0.052 -9.61369,-0.01 -9.85573,-0.2514 z m 64.23762,-18.8714 h 9.65729 v 9.3927 9.3927 l -9.59818,0.069 c -18.31685,-4.9282 -8.80082,-10.8804 -0.0591,-18.8544 z m 45.100868,18.5887 c -0.07085,-0.1846 -0.09746,-4.4426 -0.05913,-9.4622 l 0.06969,-9.1265 h 9.525001 9.525 v 9.3927 9.3927 l -9.465874,0.069 c -7.45453,0.055 -9.493245,0 -9.594694,-0.2662 z m 54.382444,-9.1965 v -9.525 h 9.657292 9.657292 v 9.525 9.525 h -9.657292 -9.657292 z m 0,-28.8396 v -9.525 h 9.657292 9.657292 v 9.525 9.525 h -9.657292 -9.657292 z M -168.82584,994.776 c -2.67663,-0.95741 -4.79166,-3.32858 -5.34454,-5.99181 -0.19791,-0.95335 -0.27147,-4.29867 -0.21665,-9.85309 l 0.083,-8.40967 0.72758,-1.38022 c 0.87886,-1.6672 2.20588,-3.04032 3.71121,-3.84013 1.4964,-0.79507 5.61334,-0.86487 7.10889,-0.12053 1.55991,0.77637 3.10623,2.25965 3.87487,3.7169 l 0.71703,1.35939 v 9.65729 c 0,9.55991 -0.006,9.66874 -0.60626,10.79269 -0.78034,1.46143 -2.4211,3.04752 -3.88628,3.75679 -1.67417,0.81046 -4.39169,0.94807 -6.16886,0.31239 z m 115.17182,0.25134 c -1.518836,-0.40132 -2.977587,-1.33698 -4.194355,-2.69032 -1.940611,-2.15843 -2.023354,-2.67371 -2.023354,-12.60036 0,-7.7965 0.04478,-8.66596 0.509326,-9.88854 0.7693,-2.02463 2.152465,-3.53676 4.122034,-4.50638 1.596228,-0.78582 1.849255,-0.8326 3.895685,-0.72031 1.560306,0.0856 2.514534,0.28826 3.324037,0.70592 1.529565,0.78916 3.160221,2.46715 3.852159,3.96398 0.547031,1.18336 0.568635,1.57687 0.568635,10.35822 0,8.36333 -0.04251,9.23834 -0.50732,10.44359 -0.677813,1.75755 -2.48538,3.64341 -4.198528,4.38039 -1.472414,0.63342 -4.0406,0.89935 -5.348319,0.55381 z"
           style="fill:#727c82;stroke-width:0.26458335"
           sodipodi:nodetypes="ccscscccscccccccsccsscccccscccccccsccscccccccscscsccccsccscsccccccccccccscscccccscscsccccsccsccccccccccscsccccccccccscccccccccccccccccccccccccccccscccccccscccccccccscsccccscccccscccccsscscsc" />
        <path
           inkscape:connector-curvature="0"
           id="path1149"
           d="m -203.4611,1200.7152 c -8.06592,-2.0848 -14.20717,-8.2771 -16.27501,-16.4104 l -0.60541,-2.3813 v -90.4875 -90.4875 l 0.62603,-2.38124 c 0.80428,-3.05922 1.77375,-5.18707 3.50292,-7.68839 3.6671,-5.30466 9.6304,-8.72708 16.34476,-9.3805 3.00622,-0.29255 17.75627,-0.34025 18.19149,-0.0588 0.1977,0.12784 0.34114,1.77942 0.419,4.82459 0.10855,4.24561 0.17785,4.78348 0.83431,6.47542 0.96688,2.492 1.97081,3.9893 3.94742,5.88734 4.61186,4.42848 11.38387,5.42948 17.12045,2.53058 3.63877,-1.83877 6.7501,-5.61598 7.80006,-9.46938 0.26878,-0.98643 0.49071,-3.19035 0.58615,-5.82083 0.0961,-2.64957 0.26365,-4.30606 0.44779,-4.42772 0.16181,-0.10691 18.8739,-0.19621 41.58243,-0.19844 31.764826,-0.003 41.361465,0.0692 41.605731,0.31345 0.217006,0.21701 0.3175,1.50166 0.3175,4.05872 0,6.09386 0.986145,8.94738 4.30448,12.45553 2.98419,3.15487 6.636179,4.71937 10.909062,4.67337 5.198055,-0.056 9.769938,-2.5266 12.538327,-6.77565 1.990026,-3.05441 2.651633,-5.89726 2.667045,-11.46002 0.0068,-2.43931 0.08041,-2.97597 0.426685,-3.10885 0.702914,-0.26973 12.578068,-0.1786 15.494599,0.1189 10.114127,1.03173 17.9625601,8.07201 19.92946473,17.87734 0.3769413,1.87908 0.41087941,11.01008 0.34552203,92.96818 l -0.0724747,90.8843 -0.61173516,1.9742 c -2.4453057,7.8913 -8.3067368,13.5289 -16.1289499,15.5132 l -2.509459,0.6366 -90.652017,-0.013 -90.65201,-0.013 z m 182.615414,-7.3764 c 4.80559,-1.4591 8.935228,-4.8239 10.9364253,-8.9107 2.2392376,-4.573 2.0196096,3.6502 2.0970981,-78.5183 0.047612,-50.488 -0.016669,-73.2633 -0.2077482,-73.6203 -0.2737776,-0.5116 -1.3476367,-0.517 -102.2113392,-0.517 -78.92973,0 -102.0063,0.072 -102.25215,0.3175 -0.41964,0.4196 -0.46092,144.1366 -0.0422,146.7908 0.42127,2.67 1.24037,4.8495 2.60957,6.9435 2.72692,4.1704 7.08845,7.0231 11.99462,7.8453 0.78776,0.132 39.191,0.2155 88.44028,0.1923 83.386909,-0.039 87.114679,-0.061 88.635414,-0.5231 z m -179.887124,-17.5191 c -0.28748,-0.7492 -0.18336,-17.8356 0.11205,-18.3875 0.2629,-0.4913 0.64804,-0.5117 9.59115,-0.5078 5.12449,0 9.46763,0.099 9.65142,0.2162 0.26107,0.1657 0.31895,2.2629 0.26459,9.5871 l -0.0696,9.375 -9.69389,0.069 c -8.66748,0.062 -9.71103,0.025 -9.85573,-0.3524 z m 0.11381,-28.4041 c -0.29656,-0.5542 -0.39496,-17.1433 -0.10804,-18.214 l 0.16038,-0.5986 9.69173,0.069 9.69174,0.069 v 9.525 9.525 l -9.58008,0.069 c -9.25924,0.067 -9.58931,0.052 -9.85573,-0.4456 z m 54.75769,-9.118 v -9.3618 l 0.59531,-0.1596 c 0.77655,-0.2081 17.08282,-0.2081 17.85937,0 l 0.59532,0.1596 v 9.3618 9.3619 h -9.525 -9.525 z m 54.62584,9.0327 c -0.07088,-0.1847 -0.09748,-4.3831 -0.05913,-9.3299 l 0.06974,-8.9941 h 9.525001 9.525 v 9.2605 9.2604 l -9.465874,0.069 c -7.456368,0.055 -9.493229,0 -9.594742,-0.2664 z m 54.56217,0.1561 c -0.09882,-0.099 -0.179678,-4.2633 -0.179678,-9.2544 0,-8.7011 0.02106,-9.086 0.511773,-9.3486 0.551077,-0.295 17.145379,-0.3918 18.210848,-0.1063 l 0.598662,0.1604 -0.0695,9.2949 -0.06949,9.2948 -9.411468,0.069 c -5.176305,0.038 -9.492321,-0.011 -9.591146,-0.1102 z M -200.619,1118.576 c -0.32823,-0.6133 -0.38033,-17.967 -0.0555,-18.4787 0.16579,-0.2612 2.31575,-0.3189 9.85168,-0.2646 l 9.6396,0.07 v 9.525 9.525 l -9.58008,0.069 c -9.25924,0.067 -9.58931,0.052 -9.85573,-0.4456 z m 54.93741,0.071 c -0.0988,-0.099 -0.17972,-4.3248 -0.17972,-9.391 v -9.2112 l 0.59531,-0.1451 c 0.32742,-0.08 4.5839,-0.1118 9.45885,-0.071 l 8.86354,0.074 v 9.3927 9.3927 l -9.27913,0.069 c -5.10352,0.038 -9.36001,-0.011 -9.45885,-0.1103 z m 54.504122,0 c -0.09882,-0.099 -0.179678,-4.3143 -0.179678,-9.3677 0,-8.1342 0.048,-9.2064 0.418515,-9.3486 0.629523,-0.2416 18.18313,-0.1852 18.568824,0.06 0.261011,0.1657 0.318961,2.2365 0.264583,9.4548 l -0.06963,9.2427 -9.411468,0.069 c -5.176305,0.038 -9.492321,-0.011 -9.591146,-0.1102 z m 54.504168,0 c -0.09882,-0.099 -0.179678,-4.3143 -0.179678,-9.3677 0,-8.1342 0.048,-9.2064 0.418515,-9.3486 0.629523,-0.2416 18.18313,-0.1852 18.568824,0.06 0.261012,0.1657 0.318961,2.2365 0.264583,9.4548 l -0.06963,9.2427 -9.411468,0.069 c -5.176305,0.038 -9.492321,-0.011 -9.591146,-0.1102 z m -163.80557,-28.8177 c -0.36161,-0.3616 -0.41578,-1.5829 -0.41578,-9.3738 0,-7.7909 0.0542,-9.0122 0.41578,-9.3738 0.36201,-0.362 1.60387,-0.4158 9.60437,-0.4158 6.79391,0 9.27135,0.083 9.5061,0.3175 0.45497,0.455 0.45497,18.4892 0,18.9442 -0.23475,0.2347 -2.71219,0.3175 -9.5061,0.3175 -8.0005,0 -9.24236,-0.054 -9.60437,-0.4158 z m 54.7393,-0.1778 c -0.0709,-0.1846 -0.0975,-4.4426 -0.0592,-9.4622 l 0.0697,-9.1265 h 9.39271 9.3927 v 9.3927 9.3927 l -9.33356,0.069 c -7.3483,0.055 -9.36097,0 -9.4624,-0.2662 z m 54.798198,-0.083 c -0.361408,-0.3614 -0.415774,-1.5733 -0.415774,-9.2687 0,-8.1825 0.03506,-8.8673 0.463021,-9.0431 0.650991,-0.2673 18.230183,-0.2385 18.498886,0.03 0.121211,0.1212 0.220385,4.263 0.220385,9.2039 0,7.6974 -0.05682,9.0194 -0.396875,9.2343 -0.229195,0.1449 -4.105786,0.2526 -9.175372,0.255 -7.631274,0 -8.832834,-0.05 -9.194271,-0.4118 z m 54.250263,10e-4 c -0.08903,-0.232 -0.161869,-4.3861 -0.161869,-9.2313 0,-7.1309 0.06898,-8.8668 0.362019,-9.11 0.25854,-0.2146 3.000047,-0.2805 9.591146,-0.2308 l 9.229127,0.07 v 9.3927 9.3927 l -9.429277,0.069 c -8.42614,0.062 -9.446498,0.025 -9.591146,-0.3524 z m 0.155631,-28.7458 c -0.234344,-0.2343 -0.3175,-2.6458 -0.3175,-9.2075 0,-6.5616 0.08316,-8.9731 0.3175,-9.2075 0.234389,-0.2344 2.652784,-0.3175 9.238776,-0.3175 4.906704,0 9.10961,0.072 9.339792,0.1606 0.370533,0.1422 0.418516,1.2158 0.418516,9.3644 0,8.1486 -0.04798,9.2222 -0.418516,9.3644 -0.230182,0.088 -4.433088,0.1606 -9.339792,0.1606 -6.585992,0 -9.004387,-0.083 -9.238776,-0.3175 z M -169.86165,994.2075 c -1.87874,-0.94943 -2.78279,-1.90584 -3.75706,-3.97462 l -0.68531,-1.4552 v -8.73125 c 0,-7.73303 0.0546,-8.88766 0.4773,-10.09929 0.61194,-1.75394 2.26334,-3.62514 3.98798,-4.51878 1.14638,-0.59402 1.70259,-0.70436 3.60451,-0.71509 1.86155,-0.0105 2.47333,0.0978 3.55148,0.62838 1.65763,0.81584 3.04043,2.19864 3.86801,3.86802 l 0.6503,1.31176 v 9.3927 9.39271 l -0.70705,1.33971 c -0.75805,1.43634 -2.29081,2.97461 -3.70891,3.72224 -0.58221,0.30694 -1.6738,0.49642 -3.25696,0.56535 -2.2458,0.0978 -2.47471,0.0565 -4.02429,-0.72664 z m 115.102791,0.36715 c -1.59983,-0.58503 -3.380727,-2.27446 -4.238118,-4.02045 l -0.74246,-1.51194 v -9.12813 c 0,-9.04918 0.0055,-9.14018 0.630185,-10.5225 1.284512,-2.8422 4.340254,-4.82333 7.439607,-4.82333 3.086925,0 6.197449,2.00637 7.382981,4.76221 0.558033,1.29718 0.571508,1.58914 0.497893,10.78709 -0.07044,8.80081 -0.111837,9.52693 -0.599329,10.51216 -0.672785,1.35971 -2.359665,3.04354 -3.70967,3.70295 -1.398855,0.68328 -5.0878,0.81727 -6.661089,0.24194 z"
           style="fill:#49545b;stroke-width:0.26458335"
           sodipodi:nodetypes="cccccccccsscccccccscccccccscccccccccscscccccccccccccccccccccccccccccccccccccccccccccccsccccccccccccccccccsccccccccccsccsccccsccsccccscsccsccccccccccccsccscccccscccccccccscscscsccscscccccccccccccccscsssscc" />
        <path
           inkscape:connector-curvature="0"
           id="path1147"
           d="m -200.73281,1175.8197 c -0.28748,-0.7492 -0.18336,-17.8356 0.11205,-18.3875 0.2629,-0.4913 0.64804,-0.5117 9.59115,-0.5078 5.12449,0 9.46763,0.099 9.65142,0.2162 0.26107,0.1657 0.31895,2.2629 0.26459,9.5871 l -0.0696,9.375 -9.69389,0.069 c -8.66748,0.062 -9.71103,0.025 -9.85573,-0.3524 z m 0.11381,-28.4036 c -0.29656,-0.5542 -0.39496,-17.1433 -0.10804,-18.214 l 0.16038,-0.5986 9.69173,0.069 9.69174,0.069 v 9.525 9.525 l -9.58008,0.069 c -9.25924,0.067 -9.58931,0.052 -9.85573,-0.4456 z m 0,-28.8396 c -0.32823,-0.6133 -0.38033,-17.967 -0.0555,-18.4787 0.16579,-0.2612 2.31575,-0.3189 9.85168,-0.2646 l 9.6396,0.07 v 9.525 9.525 l -9.58008,0.069 c -9.25924,0.067 -9.58931,0.052 -9.85573,-0.4456 z m 0.14013,-28.7469 c -0.36161,-0.3616 -0.41578,-1.5829 -0.41578,-9.3738 0,-7.7909 0.0542,-9.0122 0.41578,-9.3738 0.36201,-0.362 1.60387,-0.4158 9.60437,-0.4158 6.79391,0 9.27135,0.083 9.5061,0.3175 0.45497,0.455 0.45497,18.4892 0,18.9442 -0.23475,0.2347 -2.71219,0.3175 -9.5061,0.3175 -8.0005,0 -9.24236,-0.054 -9.60437,-0.4158 z m 30.61722,-95.6221 c -1.87874,-0.94943 -2.78279,-1.90584 -3.75706,-3.97462 l -0.68531,-1.4552 v -8.73125 c 0,-7.73303 0.0546,-8.88766 0.4773,-10.09929 0.61194,-1.75394 2.26334,-3.62514 3.98798,-4.51878 1.14638,-0.59402 1.70259,-0.70436 3.60451,-0.71509 1.86155,-0.0105 2.47333,0.0978 3.55148,0.62838 1.65763,0.81584 3.04043,2.19864 3.86801,3.86802 l 0.6503,1.31176 v 9.3927 9.39271 l -0.70705,1.33971 c -0.75805,1.43634 -2.29081,2.97461 -3.70891,3.72224 -0.58221,0.30694 -1.6738,0.49642 -3.25696,0.56535 -2.2458,0.0978 -2.47471,0.0565 -4.02429,-0.72664 z m 115.102791,0.36715 c -1.59983,-0.58503 -3.380727,-2.27446 -4.238118,-4.02045 l -0.74246,-1.51194 v -9.12813 c 0,-9.04918 0.0055,-9.14018 0.630185,-10.5225 1.284512,-2.8422 4.340254,-4.82333 7.439607,-4.82333 3.086925,0 6.197449,2.00637 7.382981,4.76221 0.558033,1.29718 0.571508,1.58914 0.497893,10.78709 -0.07044,8.80081 -0.111837,9.52693 -0.599329,10.51216 -0.672785,1.35971 -2.359665,3.04354 -3.70967,3.70295 -1.398855,0.68328 -5.0878,0.81727 -6.661089,0.24194 z"
           style="fill:#941914;stroke-width:0.26458335" />
      </g>
      <path
         inkscape:connector-curvature="0"
         d="m 29.758818,103.67583 c 0.84977,-0.43944 1.07725,-0.88061 1.07725,-2.08922 0,-1.15576 -0.63543,-1.967927 -1.69525,-2.166747 -2.42748,-0.4554 -3.77834,2.120587 -2.02926,3.869657 0.8619,0.86191 1.53703,0.96043 2.64726,0.38631 z m 26.68335,18.07844 c 1.09245,-0.52884 1.31464,-0.54845 2.90142,-0.25608 0.9451,0.17414 1.76579,0.2692 1.82376,0.21123 0.058,-0.058 -0.35741,-0.42611 -0.92306,-0.81811 -2.33049,-1.65777 -4.54418,-6.82433 -4.66845,-9.31098 l 1.92902,-5.72663 c -4.76822,3.1504 -1.94826,11.19293 -1.94826,11.19293 -7.61718,2.6727 -11.28557,0.11943 -13.66372,0.47853 -0.86861,1.01815 -0.23612,2.23125 -0.5811,3.01005 0.98045,0.62691 -0.24012,0.69566 -0.96509,1.47382 -0.53712,0.57653 -0.62543,0.58259 -7.47448,0.51291 l -6.93094,-0.0705 -0.0843,-0.87883 c 0.13274,-4.91063 5.62019,-2.9108 6.29364,-2.79687 3.588,-1.60171 3.66087,-2.33498 2.51802,-4.46629 -2.77753,-4.95349 -14.5104,-2.27722 -17.45857,-5.00785 -0.43656,-0.42992 -1.21046,-1.04461 -1.71979,-1.36597 -1.10441,-0.69686 -1.82191,-2.03678 -1.83937,-3.43503 -0.0233,-1.8669 0.0696,-1.95526 7.35665,-6.996967 2.05032,-1.41855 8.07702,-4.51187 9.8947,-5.07865 l 0.99219,-0.30937 v -2.17285 c 0,-3.50749 0.93112,-6.25278 2.12075,-6.25278 0.55125,0 2.3363,1.16307 2.98189,1.94289 0.85727,1.0355 1.72374,2.94843 1.91589,4.22976 l 0.18916,1.26143 1.88626,-0.16795 c 3.59795,-0.32035 6.55562,-1.30201 11.91617,-3.955 5.93437,-2.93697 7.94096,-3.48117 11.9212,-3.2331 4.49968,0.28045 8.21897,1.9007 12.27168,5.34593 1.05249,0.89473 3.10813,3.62737 3.87986,5.15763 1.18399,2.34777 1.74442,4.65077 1.8676,7.674657 l 0.11316,2.77813 3.373921,0.18565 c 7.645231,0.42069 10.953316,1.85644 11.365968,4.93297 0.249428,1.85965 -0.31973,2.85734 -3.469187,6.08109 l -2.93537,3.00463 0.78749,0.62843 c 2.126581,1.69707 9.45638,3.29118 15.13295,3.29118 0.79451,0 1.67487,0.12326 1.95634,0.2739 0.673,0.36018 0.66973,1.61781 -0.006,2.22916 -0.46669,0.42235 -0.91538,0.4513 -4.56406,0.29444 -12.7546,-0.5483 -17.001242,-1.78445 -18.360891,-5.34463 -0.81512,-2.13436 0.01921,-3.87113 3.475199,-7.23377 1.957232,-1.90439 2.006452,-1.98213 1.363671,-2.15403 -1.325859,-0.35459 -6.170179,-0.80879 -7.698301,-0.72178 l -1.5634,0.089 -0.46792,1.37998 c -1.0443,3.07983 -2.3827,5.14898 -5.05926,7.82159 -2.27941,2.27604 -2.59081,2.69692 -2.59081,3.50155 0,0.6364 -0.23467,1.17739 -0.77152,1.77864 l -0.77152,0.86407 -5.43119,0.0811 c -4.4436,0.1107 -10.24407,0.7749 -12.08585,-0.22193 -1.32313,-0.71612 0.26979,-2.96848 1.80365,-3.73133 z"
         style="opacity:1;fill:#999999;stroke-width:0.26458332"
         id="path1129" />
    </g>
  </g>
</svg>
